<svg width="24" height="24" viewBox="0 0 24 24" fill="none" xmlns="http://www.w3.org/2000/svg">
<g clip-path="url(#clip0_2943_6379)">
<path d="M14.4995 2.86468C14.4995 2.86468 4.2324 13.5401 2.68113 14.6835C1.12985 15.827 0.335203 14.8252 0.335203 14.8252C-0.611622 10.8961 0.447211 6.58238 3.51383 3.51565C6.48111 0.548248 10.6192 -0.542334 14.4446 0.25024C15.9134 1.4148 14.4974 2.86679 14.4974 2.86679L14.4995 2.86468Z" fill="#F9F9FA"/>
<path d="M10.9744 12.4982L17.2851 18.8092C17.8642 19.3883 18.3778 20.0329 18.7878 20.7431C18.9421 21.0115 19.09 21.2989 19.2105 21.5948C14.508 25.1371 7.79573 24.7672 3.51599 20.4852C3.00031 19.9695 2.54169 19.42 2.14014 18.843C2.20354 18.4668 2.40431 17.6573 3.03201 16.8816C3.80764 15.9242 8.7193 10.2409 10.9744 12.4961V12.4982Z" fill="#F9F9FA"/>
<path d="M20.4893 3.51317C24.7944 7.81844 25.1452 14.5796 21.5397 19.2865C21.2438 19.166 20.9543 19.018 20.6837 18.8637C19.9694 18.4537 19.3227 17.938 18.7394 17.3547L12.4286 11.0437C10.1736 8.78854 15.8566 3.8767 16.814 3.10104C17.7101 2.37609 18.6548 2.21969 18.919 2.18799C19.4706 2.57688 19.9969 3.01861 20.4893 3.51317Z" fill="#F9F9FA"/>
</g>
<defs>
<clipPath id="clip0_2943_6379">
<rect width="24" height="24" fill="white"/>
</clipPath>
</defs>
</svg>
