<svg width="32" height="32" viewBox="0 0 32 32" fill="none" xmlns="http://www.w3.org/2000/svg">
<circle cx="16" cy="16" r="16" fill="#DFE0E6"/>
<path d="M21.8747 10.0916C21.1107 9.31982 20.2007 8.70794 19.1977 8.2916C18.1948 7.87525 17.1189 7.66277 16.033 7.66655C11.483 7.66655 7.77467 11.3749 7.77467 15.9249C7.77467 17.3832 8.15801 18.7999 8.87467 20.0499L7.70801 24.3332L12.083 23.1832C13.2913 23.8416 14.6497 24.1916 16.033 24.1916C20.583 24.1916 24.2913 20.4832 24.2913 15.9332C24.2913 13.7249 23.433 11.6499 21.8747 10.0916ZM16.033 22.7916C14.7997 22.7916 13.5913 22.4582 12.533 21.8332L12.283 21.6832L9.68301 22.3666L10.3747 19.8332L10.208 19.5749C9.5228 18.4807 9.15896 17.2159 9.15801 15.9249C9.15801 12.1416 12.2413 9.05822 16.0247 9.05822C17.858 9.05822 19.583 9.77489 20.8747 11.0749C21.5142 11.7115 22.0211 12.4688 22.3658 13.3027C22.7106 14.1367 22.8864 15.0308 22.883 15.9332C22.8997 19.7166 19.8163 22.7916 16.033 22.7916ZM19.7997 17.6582C19.5913 17.5582 18.5747 17.0582 18.3913 16.9832C18.1997 16.9166 18.0663 16.8832 17.9247 17.0832C17.783 17.2916 17.3913 17.7582 17.2747 17.8916C17.158 18.0332 17.033 18.0499 16.8247 17.9416C16.6163 17.8416 15.9497 17.6166 15.1663 16.9166C14.5497 16.3666 14.1413 15.6916 14.0163 15.4832C13.8997 15.2749 13.9997 15.1666 14.108 15.0582C14.1997 14.9666 14.3163 14.8166 14.4163 14.6999C14.5163 14.5832 14.558 14.4916 14.6247 14.3582C14.6913 14.2166 14.658 14.0999 14.608 13.9999C14.558 13.8999 14.1413 12.8832 13.9747 12.4666C13.808 12.0666 13.633 12.1166 13.508 12.1082H13.108C12.9663 12.1082 12.7497 12.1582 12.558 12.3666C12.3747 12.5749 11.8413 13.0749 11.8413 14.0916C11.8413 15.1082 12.583 16.0916 12.683 16.2249C12.783 16.3666 14.1413 18.4499 16.208 19.3416C16.6997 19.5582 17.083 19.6832 17.383 19.7749C17.8747 19.9332 18.3247 19.9082 18.683 19.8582C19.083 19.7999 19.908 19.3582 20.0747 18.8749C20.2497 18.3916 20.2497 17.9832 20.1913 17.8916C20.133 17.7999 20.008 17.7582 19.7997 17.6582Z" fill="#476073"/>
</svg>
