<svg width="92" height="92" viewBox="0 0 92 92" fill="none" xmlns="http://www.w3.org/2000/svg">
<circle cx="46" cy="46" r="46" fill="#2F4159"/>
<rect x="25" y="20" width="42.5455" height="52" rx="2" fill="#DFE0E6"/>
<rect x="29.7266" y="24.7275" width="9.45455" height="9.45455" rx="1" fill="#2F4159"/>
<rect x="29.7266" y="36.5459" width="9.45455" height="9.45455" rx="1" fill="#2F4159"/>
<rect x="29.7266" y="48.3633" width="9.45455" height="9.45455" rx="1" fill="#2F4159"/>
<rect x="41.5449" y="24.7275" width="9.45455" height="9.45455" rx="1" fill="#2F4159"/>
<rect x="41.5449" y="36.5459" width="9.45455" height="9.45455" rx="1" fill="#2F4159"/>
<rect x="41.5449" y="48.3633" width="9.45455" height="9.45455" rx="1" fill="#2F4159"/>
<rect x="53.3633" y="24.7275" width="9.45455" height="9.45455" rx="1" fill="#2F4159"/>
<rect x="53.3633" y="36.5459" width="9.45455" height="9.45455" rx="1" fill="#2F4159"/>
<rect x="53.3633" y="48.3633" width="9.45455" height="9.45455" rx="1" fill="#2F4159"/>
<path d="M29.7266 63.7275H62.8175" stroke="#2F4159" stroke-width="0.5" stroke-linecap="round"/>
<path d="M29.7266 61.3633H62.8175" stroke="#2F4159" stroke-width="0.5" stroke-linecap="round"/>
<path d="M29.7275 66.0908H62.8184" stroke="#2F4159" stroke-width="0.5" stroke-linecap="round"/>
<path d="M29.7266 68.4541H62.8175" stroke="#2F4159" stroke-width="0.5" stroke-linecap="round"/>
</svg>
