<svg width="92" height="92" viewBox="0 0 92 92" fill="none" xmlns="http://www.w3.org/2000/svg">
<circle cx="46" cy="46" r="46" fill="#2F4159"/>
<path d="M49.7334 33.7514V20.2314H36.2134C35.0181 20.2314 33.8718 20.7063 33.0267 21.5514C32.1815 22.3966 31.7067 23.5429 31.7067 24.7381V42.0557L32.0252 41.8965C32.8592 41.4797 33.7788 41.2628 34.7111 41.2628C35.6435 41.2628 36.5631 41.4797 37.3971 41.8965L43.8657 45.1323C43.9868 44.8736 44.1792 44.6548 44.4202 44.5015C44.6613 44.3483 44.941 44.2669 45.2267 44.267H60.2489C60.6473 44.267 61.0294 44.4253 61.3111 44.707C61.5929 44.9887 61.7511 45.3708 61.7511 45.7692C61.7511 46.1676 61.5929 46.5497 61.3111 46.8315C61.0294 47.1132 60.6473 47.2714 60.2489 47.2714H47.6994C48.6007 48.0646 49.2436 49.1132 49.5441 50.2759H60.2489C60.6473 50.2759 61.0294 50.4342 61.3111 50.7159C61.5929 50.9976 61.7511 51.3797 61.7511 51.7781C61.7511 52.1765 61.5929 52.5586 61.3111 52.8403C61.0294 53.1221 60.6473 53.2803 60.2489 53.2803H49.7334V56.2848H60.2489C60.6473 56.2848 61.0294 56.443 61.3111 56.7248C61.5929 57.0065 61.7511 57.3886 61.7511 57.787C61.7511 58.1854 61.5929 58.5675 61.3111 58.8492C61.0294 59.131 60.6473 59.2892 60.2489 59.2892H49.7334V63.8079C49.7332 64.6575 49.5529 65.4973 49.2044 66.2721C48.8558 67.0468 48.347 67.7389 47.7114 68.3026H63.2534C64.4486 68.3026 65.5949 67.8277 66.4401 66.9826C67.2852 66.1374 67.76 64.9911 67.76 63.7959V38.2581H54.24C53.0448 38.2581 51.8985 37.7833 51.0533 36.9381C50.2082 36.093 49.7334 34.9467 49.7334 33.7514ZM52.7378 33.7514V20.9826L67.0089 35.2537H54.24C53.8416 35.2537 53.4595 35.0954 53.1778 34.8137C52.8961 34.532 52.7378 34.1499 52.7378 33.7514ZM45.0675 49.0921L36.0541 44.5855C35.6371 44.3771 35.1773 44.2686 34.7111 44.2686C34.245 44.2686 33.7852 44.3771 33.3681 44.5855L24.3548 49.0921C23.8558 49.3415 23.4361 49.7248 23.1427 50.1992C22.8492 50.6736 22.6937 51.2203 22.6934 51.7781V63.8079C22.6937 64.3657 22.8492 64.9124 23.1427 65.3868C23.4361 65.8612 23.8558 66.2445 24.3548 66.4939L33.3681 71.0005C33.7852 71.2089 34.245 71.3174 34.7111 71.3174C35.1773 71.3174 35.6371 71.2089 36.0541 71.0005L45.0675 66.4939C45.5664 66.2445 45.9862 65.8612 46.2796 65.3868C46.573 64.9124 46.7286 64.3657 46.7289 63.8079V51.7781C46.7286 51.2203 46.573 50.6736 46.2796 50.1992C45.9862 49.7248 45.5664 49.3415 45.0675 49.0921ZM25.818 52.4751C25.8956 52.2935 26.0082 52.129 26.1495 51.991C26.2907 51.853 26.4578 51.7442 26.6411 51.6708C26.8244 51.5974 27.0204 51.5609 27.2179 51.5633C27.4154 51.5657 27.6104 51.6071 27.7919 51.685L34.7111 54.6504L41.6304 51.685C41.9969 51.528 42.4108 51.5231 42.781 51.6712C43.1512 51.8194 43.4473 52.1086 43.6043 52.4751C43.7613 52.8417 43.7662 53.2556 43.618 53.6258C43.4698 53.9959 43.1807 54.2921 42.8141 54.4491L36.2134 57.2732V65.2981C36.2134 65.6965 36.0551 66.0786 35.7734 66.3603C35.4916 66.6421 35.1096 66.8003 34.7111 66.8003C34.3127 66.8003 33.9306 66.6421 33.6489 66.3603C33.3672 66.0786 33.2089 65.6965 33.2089 65.2981V57.2762L26.6082 54.4461C26.2421 54.2893 25.9533 53.9937 25.8052 53.6241C25.657 53.2546 25.6616 52.8413 25.818 52.4751Z" fill="#DFE0E6"/>
<path d="M45.0675 49.0921L36.0541 44.5854C35.6371 44.377 35.1773 44.2686 34.7111 44.2686C34.245 44.2686 33.7852 44.377 33.3681 44.5854L24.3548 49.0921C23.8558 49.3414 23.4361 49.7248 23.1427 50.1991C22.8492 50.6735 22.6937 51.2203 22.6934 51.7781V63.8079C22.6937 64.3657 22.8492 64.9124 23.1427 65.3868C23.4361 65.8612 23.8558 66.2445 24.3548 66.4938L33.3681 71.0005C33.7852 71.2089 34.245 71.3174 34.7111 71.3174C35.1773 71.3174 35.6371 71.2089 36.0541 71.0005L45.0675 66.4938C45.5664 66.2445 45.9862 65.8612 46.2796 65.3868C46.573 64.9124 46.7286 64.3657 46.7289 63.8079V51.7781C46.7286 51.2203 46.573 50.6735 46.2796 50.1991C45.9862 49.7248 45.5664 49.3414 45.0675 49.0921ZM25.818 52.4751C25.8956 52.2935 26.0082 52.129 26.1495 51.991C26.2907 51.8529 26.4578 51.7441 26.6411 51.6707C26.8244 51.5973 27.0204 51.5608 27.2179 51.5632C27.4154 51.5657 27.6104 51.607 27.7919 51.6849L34.7111 54.6503L41.6304 51.6849C41.9969 51.5279 42.4108 51.523 42.781 51.6712C43.1512 51.8194 43.4473 52.1086 43.6043 52.4751C43.7613 52.8416 43.7662 53.2555 43.618 53.6257C43.4698 53.9959 43.1807 54.292 42.8141 54.449L36.2134 57.2732V65.2981C36.2134 65.6965 36.0551 66.0786 35.7734 66.3603C35.4916 66.642 35.1096 66.8003 34.7111 66.8003C34.3127 66.8003 33.9306 66.642 33.6489 66.3603C33.3672 66.0786 33.2089 65.6965 33.2089 65.2981V57.2762L26.6082 54.446C26.2421 54.2893 25.9533 53.9937 25.8052 53.6241C25.657 53.2545 25.6616 52.8413 25.818 52.4751Z" fill="white"/>
</svg>
