<svg width="92" height="92" viewBox="0 0 92 92" fill="none" xmlns="http://www.w3.org/2000/svg">
<circle cx="46" cy="46" r="46" fill="#2F4159"/>
<path d="M70.8568 33.4691V25.0832C70.8568 24.0003 70.4204 22.9617 69.6434 22.1959C68.8665 21.4302 67.8128 21 66.714 21H21.1428C20.0441 21 18.9903 21.4302 18.2134 22.1959C17.4365 22.9617 17 24.0003 17 25.0832V57.7489C17 58.8318 17.4365 59.8704 18.2134 60.6362C18.9903 61.4019 20.0441 61.8321 21.1428 61.8321H50.1427V67.9569C50.1424 68.3051 50.2325 68.6476 50.4044 68.9518C50.5763 69.256 50.8243 69.5118 51.1247 69.6949C51.4252 69.878 51.7682 69.9823 52.1211 69.9979C52.474 70.0136 52.8251 69.94 53.141 69.7842L60.4998 66.1552L67.8585 69.7842C68.1744 69.94 68.5255 70.0136 68.8784 69.9979C69.2313 69.9823 69.5743 69.878 69.8748 69.6949C70.1753 69.5118 70.4232 69.256 70.5951 68.9518C70.767 68.6476 70.8571 68.3051 70.8568 67.9569V53.4462C73.5123 50.7803 75 47.1936 75 43.4577C75 39.7217 73.5123 36.1351 70.8568 33.4691ZM39.9284 47.5409H25.4285C24.8791 47.5409 24.3523 47.3258 23.9638 46.9429C23.5753 46.56 23.3571 46.0407 23.3571 45.4993C23.3571 44.9578 23.5753 44.4385 23.9638 44.0556C24.3523 43.6728 24.8791 43.4577 25.4285 43.4577H39.9284C40.4778 43.4577 41.0047 43.6728 41.3931 44.0556C41.7816 44.4385 41.9998 44.9578 41.9998 45.4993C41.9998 46.0407 41.7816 46.56 41.3931 46.9429C41.0047 47.3258 40.4778 47.5409 39.9284 47.5409ZM39.9284 39.3745H25.4285C24.8791 39.3745 24.3523 39.1594 23.9638 38.7765C23.5753 38.3936 23.3571 37.8743 23.3571 37.3328C23.3571 36.7914 23.5753 36.2721 23.9638 35.8892C24.3523 35.5063 24.8791 35.2912 25.4285 35.2912H39.9284C40.4778 35.2912 41.0047 35.5063 41.3931 35.8892C41.7816 36.2721 41.9998 36.7914 41.9998 37.3328C41.9998 37.8743 41.7816 38.3936 41.3931 38.7765C41.0047 39.1594 40.4778 39.3745 39.9284 39.3745ZM66.714 64.6546L61.4267 62.0465C61.1389 61.9046 60.8216 61.8307 60.4998 61.8307C60.178 61.8307 59.8606 61.9046 59.5728 62.0465L54.2855 64.6546V56.3683C56.2273 57.2773 58.3501 57.7489 60.4998 57.7489C62.6495 57.7489 64.7722 57.2773 66.714 56.3683V64.6546ZM60.4998 53.6657C58.4513 53.6657 56.4489 53.067 54.7457 51.9453C53.0425 50.8237 51.715 49.2294 50.9311 47.3641C50.1472 45.4988 49.942 43.4463 50.3417 41.4662C50.7413 39.486 51.7277 37.6671 53.1762 36.2395C54.6247 34.8119 56.4701 33.8397 58.4792 33.4458C60.4883 33.0519 62.5707 33.2541 64.4632 34.0267C66.3558 34.7993 67.9733 36.1077 69.1114 37.7864C70.2494 39.4651 70.8568 41.4387 70.8568 43.4577C70.8568 46.165 69.7657 48.7615 67.8233 50.6758C65.881 52.5902 63.2466 53.6657 60.4998 53.6657Z" fill="#DFE0E6"/>
<path d="M69.5 69.5V53H51.5V69.5L60.5 64.5L69.5 69.5Z" fill="white" stroke="#2F4159" stroke-width="3" stroke-linejoin="round"/>
<circle cx="61" cy="44" r="13.5" fill="white" stroke="#2F4159" stroke-width="3"/>
</svg>
