<svg width="32" height="32" viewBox="0 0 32 32" fill="none" xmlns="http://www.w3.org/2000/svg">
<circle cx="16" cy="16" r="16" fill="#DFE0E6"/>
<g clip-path="url(#clip0_876_6882)">
<path fill-rule="evenodd" clip-rule="evenodd" d="M19.7935 24.4442C18.5935 24.4001 15.1927 23.9301 11.631 20.3692C8.07016 16.8076 7.601 13.4076 7.556 12.2067C7.48933 10.3767 8.891 8.59922 10.5102 7.90506C10.7051 7.82086 10.9187 7.78881 11.1298 7.81204C11.3409 7.83527 11.5423 7.91298 11.7143 8.03756C13.0477 9.00922 13.9677 10.4792 14.7577 11.6351C14.9315 11.889 15.0058 12.198 14.9665 12.5032C14.9271 12.8084 14.7769 13.0885 14.5443 13.2901L12.9185 14.4976C12.8399 14.5543 12.7847 14.6376 12.7629 14.732C12.7411 14.8264 12.7544 14.9255 12.8002 15.0109C13.1685 15.6801 13.8235 16.6767 14.5735 17.4267C15.3243 18.1767 16.3677 18.8751 17.0835 19.2851C17.1732 19.3354 17.2789 19.3495 17.3787 19.3244C17.4785 19.2993 17.5649 19.2369 17.6202 19.1501L18.6785 17.5392C18.8731 17.2808 19.1601 17.1076 19.4795 17.056C19.7989 17.0045 20.1258 17.0785 20.3918 17.2626C21.5643 18.0742 22.9327 18.9784 23.9343 20.2609C24.069 20.4341 24.1547 20.6404 24.1824 20.8581C24.2101 21.0758 24.1788 21.2969 24.0918 21.4984C23.3943 23.1259 21.6293 24.5117 19.7935 24.4442Z" fill="#4DA2FC"/>
</g>
<defs>
<clipPath id="clip0_876_6882">
<rect width="20" height="20" fill="white" transform="translate(6 6)"/>
</clipPath>
</defs>
</svg>
