<svg width="92" height="92" viewBox="0 0 92 92" fill="none" xmlns="http://www.w3.org/2000/svg">
<circle cx="46" cy="46" r="46" fill="#2F4159"/>
<path d="M42.269 72.0002H50.7799L65.9995 62.0003L63.2639 58.0488L48.9561 67.1368H44.0927C29.1987 58.0181 24.9423 57.9906 23.1191 58.322C19.775 58.9299 19.4717 62.4253 22.5116 63.1854C28.5902 64.7052 30.718 64.0972 42.269 72.0002Z" fill="#DFE0E6"/>
<path d="M22.2058 20.0228C20.5037 19.7796 20.0781 21.5426 20.0781 22.4545V51.3307C20.0784 54.3703 20.6867 54.7905 22.8138 54.9782C33.1484 55.8903 40.7474 62.2733 42.8751 63.1851C44.5773 63.9146 44.8002 61.6653 44.6989 60.4495V31.2127C44.6989 29.8866 44.1909 28.592 43.1468 27.7746C36.29 22.4065 24.1744 20.304 22.2058 20.0228Z" fill="#DFE0E6"/>
<path d="M70.8606 20.0228C72.5627 19.7796 72.9883 21.5426 72.9883 22.4545V51.3307C72.988 54.3703 72.3798 54.7905 70.2526 54.9782C59.918 55.8903 52.319 62.2733 50.1913 63.1851C48.4891 63.9146 48.2662 61.6653 48.3675 60.4495V31.2127C48.3675 29.8866 48.8755 28.592 49.9196 27.7746C56.7765 22.4065 68.892 20.304 70.8606 20.0228Z" fill="#DFE0E6"/>
<path d="M54.5897 45.9809C54.5897 44.7487 55.0866 43.567 55.9709 42.6957C56.8553 41.8244 58.0547 41.335 59.3054 41.335C60.5561 41.335 61.7555 41.8244 62.6399 42.6957C63.5242 43.567 64.021 44.7487 64.021 45.9809C64.021 46.1863 63.9382 46.3832 63.7908 46.5284C63.6434 46.6737 63.4435 46.7552 63.2351 46.7552C63.0266 46.7552 62.8267 46.6737 62.6793 46.5284C62.532 46.3832 62.4491 46.1863 62.4491 45.9809C62.4491 45.1595 62.1179 44.3716 61.5284 43.7908C60.9388 43.2099 60.1392 42.8836 59.3054 42.8836C58.4716 42.8836 57.672 43.2099 57.0824 43.7908C56.4928 44.3716 56.1616 45.1595 56.1616 45.9809C56.1616 46.1863 56.0788 46.3832 55.9314 46.5284C55.784 46.6737 55.5841 46.7552 55.3757 46.7552C55.1672 46.7552 54.9673 46.6737 54.8199 46.5284C54.6725 46.3832 54.5897 46.1863 54.5897 45.9809ZM68.661 51.4012C67.8152 51.4399 67.1648 52.1581 67.1648 52.9915V53.6961C67.1675 53.8959 67.0934 54.0894 66.9572 54.2375C66.8211 54.3857 66.633 54.4775 66.4309 54.4946C66.3234 54.5017 66.2156 54.4868 66.1141 54.4511C66.0127 54.4153 65.9198 54.3594 65.8412 54.2868C65.7626 54.2142 65.7 54.1264 65.6573 54.029C65.6146 53.9315 65.5927 53.8265 65.5929 53.7203V51.4448C65.5929 50.6114 64.9425 49.8961 64.0967 49.8545C63.8841 49.8444 63.6717 49.8769 63.4723 49.9501C63.273 50.0233 63.0907 50.1356 62.9367 50.2802C62.7826 50.4248 62.66 50.5987 62.5762 50.7914C62.4924 50.9841 62.4492 51.1916 62.4491 51.4012V52.9237C62.4519 53.1235 62.3777 53.317 62.2416 53.4651C62.1054 53.6133 61.9174 53.7051 61.7153 53.7222C61.6078 53.7293 61.4999 53.7144 61.3985 53.6787C61.297 53.6429 61.2041 53.587 61.1256 53.5144C61.047 53.4418 60.9844 53.354 60.9417 53.2566C60.8989 53.1591 60.877 53.0541 60.8773 52.9479V46.0245C60.8773 45.1911 60.2269 44.4758 59.381 44.4342C59.1685 44.4241 58.9561 44.4566 58.7567 44.5298C58.5573 44.603 58.3751 44.7153 58.221 44.8599C58.067 45.0045 57.9443 45.1784 57.8605 45.3711C57.7767 45.5638 57.7335 45.7713 57.7335 45.9809V57.5706C57.7359 57.7579 57.6709 57.94 57.5501 58.0845C57.4292 58.2291 57.2603 58.3268 57.0733 58.3604H57.0615C56.9443 58.3734 56.8258 58.3519 56.7209 58.2987C56.616 58.2455 56.5294 58.1629 56.4721 58.0614L54.409 54.5343C53.9865 53.8123 53.0591 53.5112 52.3066 53.8936C52.1164 53.9888 51.9479 54.1213 51.8114 54.2828C51.6749 54.4443 51.5731 54.6314 51.5124 54.8329C51.4516 55.0344 51.4331 55.246 51.458 55.4547C51.4829 55.6635 51.5507 55.865 51.6572 56.0472L54.7027 61.8594C54.7717 61.9751 54.8699 62.0712 54.9879 62.1382C55.1059 62.2053 55.2395 62.2409 55.3757 62.2418H68.7367C68.8827 62.2419 69.0258 62.2019 69.1501 62.1263C69.2743 62.0508 69.3748 61.9426 69.4401 61.8139C69.4755 61.7443 70.3086 60.3563 70.3086 57.8794V52.9498C70.3088 52.74 70.2658 52.5324 70.1821 52.3395C70.0984 52.1465 69.9758 51.9724 69.8217 51.8276C69.6677 51.6827 69.4853 51.5703 69.2858 51.497C69.0863 51.4237 68.8737 51.3911 68.661 51.4012Z" fill="#2F4159"/>
</svg>
