<svg width="92" height="92" viewBox="0 0 92 92" fill="none" xmlns="http://www.w3.org/2000/svg">
<circle cx="46" cy="46" r="46" fill="#2F4159"/>
<g clip-path="url(#clip0_172_881)">
<path d="M53.475 46.65L50.55 49.575L53.475 52.5L49.575 56.4L63.55 70.375C65.5 72.325 68.425 72.325 70.375 70.375C72.325 68.425 72.325 65.5 70.375 63.55L53.475 46.65ZM66.15 68.75C64.85 68.75 63.55 67.775 63.55 66.15C63.55 64.85 64.525 63.55 66.15 63.55C67.775 63.55 68.75 64.525 68.75 66.15C68.75 67.775 67.775 68.75 66.15 68.75ZM31.7 46L34.625 44.05L39.5 38.525L42.425 41.45L45.35 38.525L45.025 38.2C45.675 36.575 46 34.95 46 33C46 25.85 40.15 20 33 20C31.05 20 29.425 20.325 27.8 20.975L37.225 30.4L30.4 37.225L20.975 27.8C20.325 29.425 20 31.05 20 33C20 39.825 25.2 45.025 31.7 46Z" fill="#DFE0E6"/>
<path d="M45.9996 55.1002L48.9246 52.5002L45.9996 49.5752L64.5246 31.0502L68.4246 29.7502L71.9996 22.6002L69.7246 20.3252L62.2496 23.5752L60.6246 27.4752L42.4246 46.0002L39.4996 43.0752L36.8996 46.0002C36.8996 46.0002 39.4996 47.9502 36.5746 50.8752C34.9496 52.5002 32.3496 50.5502 27.4746 55.4252L20.6496 62.2502C20.6496 62.2502 18.6996 65.5002 22.5996 69.4002C26.4996 73.3002 29.7496 71.3502 29.7496 71.3502L36.5746 64.5252C41.1246 59.9752 39.4996 57.0502 40.7996 55.7502C43.7246 52.8252 45.9996 55.1002 45.9996 55.1002ZM35.9246 53.8002L38.1996 56.0752L25.8496 68.4252L23.5746 66.1502L35.9246 53.8002Z" fill="#DFE0E6"/>
</g>
<defs>
<clipPath id="clip0_172_881">
<rect width="52" height="52" fill="white" transform="translate(20 20)"/>
</clipPath>
</defs>
</svg>
