<svg width="269" height="80" viewBox="0 0 269 80" fill="none" xmlns="http://www.w3.org/2000/svg">
<path d="M48.3318 9.54893C48.3318 9.54893 14.108 45.1337 8.93709 48.9451C3.76618 52.7565 1.11734 49.4172 1.11734 49.4172C-2.03874 36.3203 1.4907 21.9413 11.7128 11.7188C21.6037 1.82749 35.3974 -1.80778 48.1486 0.834135C53.0447 4.71599 48.3247 9.55598 48.3247 9.55598L48.3318 9.54893Z" fill="#2F4159"/>
<path d="M36.581 41.6596L57.6169 62.6963C59.5471 64.6267 61.2591 66.7754 62.6258 69.1426C63.14 70.0373 63.6332 70.9954 64.0347 71.9818C48.36 83.7893 25.9856 82.5565 11.7198 68.2831C10.0009 66.5641 8.47214 64.7323 7.13362 62.809C7.34497 61.555 8.0142 58.8567 10.1065 56.2712C12.692 53.0797 29.0642 34.1355 36.581 41.6526V41.6596Z" fill="#2F4159"/>
<path d="M68.2968 11.7112C82.6472 26.062 83.8166 48.5993 71.7981 64.2888C70.8118 63.8872 69.8467 63.394 68.945 62.8797C66.5638 61.513 64.4081 59.794 62.4637 57.8495L41.4278 36.8129C33.911 29.2957 52.8546 12.9229 56.0459 10.3374C59.0329 7.9209 62.1819 7.39955 63.0625 7.29388C64.9012 8.59018 66.6554 10.0626 68.2968 11.7112Z" fill="#2F4159"/>
<path d="M107.205 24.5978C106.317 24.5978 105.563 24.9008 104.936 25.5207C104.316 26.1407 104.013 26.8804 104.013 27.7681V29.9944H113.038V55.0468H119.322V29.9944H128.269V24.5978H107.205Z" fill="#2F4159"/>
<path d="M140.336 31.4894C138.751 31.4894 137.187 31.7008 135.694 32.1094C134.186 32.525 132.862 33.1661 131.749 34.0538C130.558 34.9979 129.635 36.2589 128.952 37.83C128.276 39.394 127.931 41.3244 127.931 43.6281V55.0482H134.144V42.9095C134.144 41.1553 134.539 39.8519 135.37 39.0206C136.201 38.1893 137.462 37.7736 139.181 37.7736H139.428C141.203 37.7525 141.224 35.336 141.224 35.336V31.4824H140.336V31.4894Z" fill="#2F4159"/>
<path d="M162.084 32.6452C160.421 31.5321 157.949 30.9684 154.645 30.9684C151.679 30.9684 149.417 31.6448 147.832 33.0045C146.832 33.8288 146.12 34.8292 145.705 35.9775C145.43 36.7243 146.036 37.5204 146.832 37.5204H149.135C150.192 37.5204 151.207 37.1611 152.059 36.5341C152.249 36.3932 152.468 36.2804 152.707 36.1959C153.348 35.9705 154.088 35.8366 154.912 35.8366C155.666 35.8366 156.518 35.9705 157.42 36.2311C158.343 36.4988 158.801 37.0836 158.801 37.9713C158.801 39.1408 157.498 39.9157 154.912 40.275C154.384 40.3314 153.912 40.4089 153.496 40.4793C153.081 40.5709 152.721 40.6132 152.418 40.6132C150.192 40.9725 148.339 41.6911 146.888 42.7479C145.451 43.8046 144.718 45.58 144.718 48.0528C144.718 50.7159 145.529 52.618 147.114 53.7734C148.699 54.9218 150.566 55.4925 152.7 55.4925C153.757 55.4925 154.983 55.415 156.363 55.2881C157.758 55.1402 159.062 54.7386 160.309 54.0764C161.478 53.4916 162.5 52.5265 163.366 51.209C164.218 49.8845 164.648 48.0387 164.648 45.6786V37.619C164.648 35.4844 163.782 33.8428 162.084 32.6522V32.6452ZM158.893 45.4039C158.893 47.0454 158.421 48.3487 157.477 49.2927C156.533 50.2368 155.229 50.7088 153.567 50.7088C152.566 50.7088 151.813 50.4834 151.263 50.0114C150.735 49.4618 150.467 48.7644 150.467 47.8767C150.467 47.2356 150.671 46.5733 151.087 45.9322C151.559 45.4602 152.334 45.0798 153.391 44.7839L155.426 44.333C156.899 43.9948 158.047 43.6003 158.878 43.1846V45.4109L158.893 45.4039Z" fill="#2F4159"/>
<path d="M190.799 25.4306C190.193 24.8106 189.495 24.5077 188.664 24.5077H185.663V34.6033C183.888 31.1301 180.393 30.961 178.921 30.961C176.145 30.961 173.884 32.1094 172.109 34.4131C170.39 36.6605 169.544 39.6406 169.544 43.3604C169.544 47.0802 170.397 50.1166 172.109 52.3077C172.996 53.4208 174.166 54.231 175.659 54.7453C177.132 55.2385 178.625 55.478 180.168 55.478C183 55.478 185.621 54.7453 188.037 53.2728C190.453 51.8004 191.679 48.9683 191.679 44.7765V27.5019C191.679 26.748 191.376 26.0506 190.792 25.4236L190.799 25.4306ZM184.416 48.4963C183.528 49.7433 182.281 50.3491 180.696 50.3491C179.315 50.3773 178.04 49.7855 176.885 48.4963C175.997 47.2493 175.561 45.4598 175.561 43.0997C175.561 40.9651 175.997 39.3235 176.885 38.1329C177.773 36.8859 178.977 36.2801 180.527 36.2801C182.077 36.2801 183.38 36.8648 184.324 38.0343C185.212 39.2813 185.663 40.958 185.663 43.0927C185.663 45.4528 185.247 47.2422 184.416 48.4892V48.4963Z" fill="#2F4159"/>
<path d="M215.653 34.1179C213.708 32.0044 210.954 30.9265 207.424 30.9265C203.895 30.9265 201.422 32.0185 199.534 34.2095C197.702 36.3442 196.794 39.289 196.794 43.0652C196.794 47.0316 197.738 50.0469 199.626 52.1815C201.514 54.3726 204.134 55.4646 207.495 55.4646C210.271 55.4646 212.574 54.7882 214.406 53.4285C216.237 52.1252 217.484 50.2371 218.125 47.7643H213.708C212.99 47.7643 212.44 47.8981 212.067 48.2011C211.687 48.504 211.461 48.7294 211.405 48.9197C211.214 49.0887 211.067 49.2578 210.912 49.3917C210.764 49.5396 210.609 49.6594 210.418 49.7158C209.721 50.1314 208.854 50.3357 207.854 50.3357C206.325 50.3357 205.177 49.8637 204.402 48.9197C203.571 48.032 203.134 46.6723 203.078 44.8406H218.386C218.442 44.7278 218.478 44.5165 218.478 44.2206V43.2413C218.478 39.3524 217.534 36.316 215.646 34.1249L215.653 34.1179ZM203.085 40.8601C203.141 39.3101 203.578 38.1407 204.409 37.3093C205.24 36.478 206.297 36.0623 207.6 36.0623C209.016 36.0623 210.108 36.478 210.883 37.3093C211.581 38.0843 211.996 39.2538 212.109 40.8601H203.085Z" fill="#2F4159"/>
<path d="M239.556 47.7431C238.858 47.7431 238.33 47.8911 237.971 48.194C237.611 48.4758 237.386 48.7224 237.252 48.8915C237.083 49.0606 236.914 49.2296 236.78 49.3846C236.632 49.5326 236.456 49.6312 236.287 49.6876C235.568 50.1032 234.723 50.3075 233.723 50.3075C232.173 50.3075 231.025 49.8355 230.271 48.8915C229.214 47.7784 228.665 45.855 228.665 43.1356C228.665 40.4162 229.214 38.4718 230.271 37.3023C231.102 36.471 232.159 36.0553 233.462 36.0553C234.878 36.0553 235.97 36.471 236.731 37.3023C237.034 37.5841 237.316 38.035 237.618 38.6268H243.811C243.339 36.9078 242.585 35.4212 241.528 34.1179C239.563 31.9832 236.829 30.9265 233.279 30.9265C229.919 30.9265 227.298 32.0185 225.41 34.2095C223.578 36.323 222.669 39.2679 222.669 43.0652C222.669 46.8625 223.592 50.0469 225.501 52.1815C227.389 54.3514 230.01 55.4505 233.37 55.4505C236.146 55.4505 238.45 54.7741 240.281 53.4144C242.113 52.1322 243.339 50.223 244.001 47.7502H239.563L239.556 47.7431Z" fill="#2F4159"/>
<path d="M267.277 36.2303C266.199 34.0604 264.558 32.5105 262.311 31.6228C260.366 30.9254 258.175 30.7351 255.759 31.0592C253.343 31.3833 251.363 32.4401 249.834 34.2084C248.89 35.2651 248.193 36.5896 247.756 38.1889C247.305 39.774 247.08 41.3591 247.08 42.9654C247.08 44.9099 247.34 46.7768 247.89 48.5874C248.418 50.3839 249.306 51.8141 250.532 52.8709C251.722 53.9276 253.286 54.6814 255.273 55.1394C257.252 55.5762 259.218 55.5339 261.162 55.0055C263.353 54.5335 265.143 53.3288 266.559 51.3632C267.221 50.4192 267.749 49.2708 268.165 47.9252C268.559 46.5655 268.785 44.9451 268.785 43.057C268.785 40.4503 268.278 38.1889 267.277 36.2233V36.2303ZM261.613 48.2704C260.895 49.3483 260.084 50.0105 259.176 50.2712C258.253 50.5389 257.344 50.4967 256.478 50.1796C255.59 49.8555 254.97 49.461 254.611 48.989C253.723 47.9322 253.23 46.0441 253.103 43.367C252.99 40.6899 253.554 38.6679 254.78 37.3082C255.195 36.8926 255.858 36.5544 256.745 36.2867C257.633 36.019 258.499 36.019 259.387 36.3219C260.275 36.6248 261.064 37.3012 261.747 38.3579C262.423 39.4147 262.769 41.021 262.769 43.1345C262.691 45.4946 262.318 47.2136 261.62 48.2704H261.613Z" fill="#2F4159"/>
</svg>
