<svg width="1437" height="1015" viewBox="0 0 1437 1015" fill="none" xmlns="http://www.w3.org/2000/svg">
<mask id="mask0_2746_6957" style="mask-type:luminance" maskUnits="userSpaceOnUse" x="292" y="132" width="1145" height="883">
<path d="M1436.97 132.749H292.312V1014.99H1436.97V132.749Z" fill="white"/>
</mask>
<g mask="url(#mask0_2746_6957)">
<path d="M320.449 737.272L1108.07 993.852L1525.77 337.488L1164.76 285.289L320.449 737.272Z" fill="#3D3D3A"/>
<path d="M335.736 612.338L1127.85 845.801L1541.05 275.953L1167.73 237.492L335.736 612.338Z" fill="#A36E51"/>
<path d="M335.736 612.338V617.558L1127.85 853.258V845.801L335.736 612.338Z" fill="#E3B38B"/>
<path d="M1541.05 275.952V283.251L1127.85 853.257V845.8L1541.05 275.952Z" fill="#B2A38B"/>
<g opacity="0.7">
<path d="M366.683 506.805L1160.29 694.766L1525.77 245.005L1164.01 211.062L362.954 506.805" fill="#DBDDDC"/>
</g>
<g opacity="0.58">
<path d="M462.907 405.361L1202.8 545.396L1529.49 202.487L1166.62 174.896L462.907 405.361Z" fill="#C2DDE7"/>
</g>
</g>
<path d="M936.588 277.487V13.5508H1015.49" stroke="#2F4159" stroke-width="0.75" stroke-miterlimit="10"/>
<path d="M936.588 278.951C937.395 278.951 938.05 278.296 938.05 277.488C938.05 276.68 937.395 276.025 936.588 276.025C935.78 276.025 935.125 276.68 935.125 277.488C935.125 278.296 935.78 278.951 936.588 278.951Z" fill="#2F4159" stroke="#2F4159" stroke-miterlimit="10"/>
<path d="M1015.49 15.0143C1016.3 15.0143 1016.95 14.3594 1016.95 13.5516C1016.95 12.7437 1016.3 12.0889 1015.49 12.0889C1014.68 12.0889 1014.03 12.7437 1014.03 13.5516C1014.03 14.3594 1014.68 15.0143 1015.49 15.0143Z" fill="#2F4159" stroke="#2F4159" stroke-miterlimit="10"/>
<path d="M1026.65 14.02C1026.65 12.66 1026.97 11.44 1027.59 10.36C1028.23 9.28 1029.09 8.44 1030.17 7.84C1031.27 7.22667 1032.46 6.92 1033.75 6.92C1035.23 6.92 1036.55 7.28667 1037.69 8.02C1038.85 8.74 1039.69 9.76667 1040.21 11.1H1037.47C1037.11 10.3667 1036.61 9.82 1035.97 9.46C1035.33 9.1 1034.59 8.92 1033.75 8.92C1032.83 8.92 1032.01 9.12667 1031.29 9.54C1030.57 9.95333 1030.01 10.5467 1029.59 11.32C1029.19 12.0933 1028.99 12.9933 1028.99 14.02C1028.99 15.0467 1029.19 15.9467 1029.59 16.72C1030.01 17.4933 1030.57 18.0933 1031.29 18.52C1032.01 18.9333 1032.83 19.14 1033.75 19.14C1034.59 19.14 1035.33 18.96 1035.97 18.6C1036.61 18.24 1037.11 17.6933 1037.47 16.96H1040.21C1039.69 18.2933 1038.85 19.32 1037.69 20.04C1036.55 20.76 1035.23 21.12 1033.75 21.12C1032.45 21.12 1031.25 20.82 1030.17 20.22C1029.09 19.6067 1028.23 18.76 1027.59 17.68C1026.97 16.6 1026.65 15.38 1026.65 14.02ZM1042.12 15.44C1042.12 14.3333 1042.35 13.3533 1042.8 12.5C1043.27 11.6467 1043.9 10.9867 1044.68 10.52C1045.48 10.04 1046.36 9.8 1047.32 9.8C1048.19 9.8 1048.94 9.97333 1049.58 10.32C1050.24 10.6533 1050.76 11.0733 1051.14 11.58V9.98H1053.44V21H1051.14V19.36C1050.76 19.88 1050.23 20.3133 1049.56 20.66C1048.9 21.0067 1048.14 21.18 1047.28 21.18C1046.34 21.18 1045.47 20.94 1044.68 20.46C1043.9 19.9667 1043.27 19.2867 1042.8 18.42C1042.35 17.54 1042.12 16.5467 1042.12 15.44ZM1051.14 15.48C1051.14 14.72 1050.98 14.06 1050.66 13.5C1050.36 12.94 1049.95 12.5133 1049.44 12.22C1048.94 11.9267 1048.39 11.78 1047.8 11.78C1047.22 11.78 1046.67 11.9267 1046.16 12.22C1045.66 12.5 1045.24 12.92 1044.92 13.48C1044.62 14.0267 1044.46 14.68 1044.46 15.44C1044.46 16.2 1044.62 16.8667 1044.92 17.44C1045.24 18.0133 1045.66 18.4533 1046.16 18.76C1046.68 19.0533 1047.23 19.2 1047.8 19.2C1048.39 19.2 1048.94 19.0533 1049.44 18.76C1049.95 18.4667 1050.36 18.04 1050.66 17.48C1050.98 16.9067 1051.14 16.24 1051.14 15.48ZM1058.72 11.6C1059.1 11.0933 1059.63 10.6667 1060.3 10.32C1060.96 9.97333 1061.72 9.8 1062.56 9.8C1063.52 9.8 1064.39 10.04 1065.18 10.52C1065.98 10.9867 1066.6 11.6467 1067.06 12.5C1067.51 13.3533 1067.74 14.3333 1067.74 15.44C1067.74 16.5467 1067.51 17.54 1067.06 18.42C1066.6 19.2867 1065.98 19.9667 1065.18 20.46C1064.39 20.94 1063.52 21.18 1062.56 21.18C1061.72 21.18 1060.97 21.0133 1060.32 20.68C1059.66 20.3333 1059.13 19.9067 1058.72 19.4V26.24H1056.44V9.98H1058.72V11.6ZM1065.42 15.44C1065.42 14.68 1065.26 14.0267 1064.94 13.48C1064.63 12.92 1064.22 12.5 1063.7 12.22C1063.19 11.9267 1062.64 11.78 1062.06 11.78C1061.48 11.78 1060.94 11.9267 1060.42 12.22C1059.91 12.5133 1059.5 12.94 1059.18 13.5C1058.87 14.06 1058.72 14.72 1058.72 15.48C1058.72 16.24 1058.87 16.9067 1059.18 17.48C1059.5 18.04 1059.91 18.4667 1060.42 18.76C1060.94 19.0533 1061.48 19.2 1062.06 19.2C1062.64 19.2 1063.19 19.0533 1063.7 18.76C1064.22 18.4533 1064.63 18.0133 1064.94 17.44C1065.26 16.8667 1065.42 16.2 1065.42 15.44ZM1069.23 15.44C1069.23 14.3333 1069.46 13.3533 1069.91 12.5C1070.38 11.6467 1071.01 10.9867 1071.79 10.52C1072.59 10.04 1073.47 9.8 1074.43 9.8C1075.3 9.8 1076.05 9.97333 1076.69 10.32C1077.35 10.6533 1077.87 11.0733 1078.25 11.58V9.98H1080.55V21H1078.25V19.36C1077.87 19.88 1077.34 20.3133 1076.67 20.66C1076.01 21.0067 1075.25 21.18 1074.39 21.18C1073.45 21.18 1072.58 20.94 1071.79 20.46C1071.01 19.9667 1070.38 19.2867 1069.91 18.42C1069.46 17.54 1069.23 16.5467 1069.23 15.44ZM1078.25 15.48C1078.25 14.72 1078.09 14.06 1077.77 13.5C1077.47 12.94 1077.06 12.5133 1076.55 12.22C1076.05 11.9267 1075.5 11.78 1074.91 11.78C1074.33 11.78 1073.78 11.9267 1073.27 12.22C1072.77 12.5 1072.35 12.92 1072.03 13.48C1071.73 14.0267 1071.57 14.68 1071.57 15.44C1071.57 16.2 1071.73 16.8667 1072.03 17.44C1072.35 18.0133 1072.77 18.4533 1073.27 18.76C1073.79 19.0533 1074.34 19.2 1074.91 19.2C1075.5 19.2 1076.05 19.0533 1076.55 18.76C1077.06 18.4667 1077.47 18.04 1077.77 17.48C1078.09 16.9067 1078.25 16.24 1078.25 15.48ZM1087.98 15.44C1087.98 14.3333 1088.21 13.3533 1088.66 12.5C1089.13 11.6467 1089.76 10.9867 1090.54 10.52C1091.34 10.04 1092.23 9.8 1093.2 9.8C1093.92 9.8 1094.63 9.96 1095.32 10.28C1096.03 10.5867 1096.59 11 1097 11.52V6.2H1099.3V21H1097V19.34C1096.63 19.8733 1096.11 20.3133 1095.44 20.66C1094.79 21.0067 1094.04 21.18 1093.18 21.18C1092.22 21.18 1091.34 20.94 1090.54 20.46C1089.76 19.9667 1089.13 19.2867 1088.66 18.42C1088.21 17.54 1087.98 16.5467 1087.98 15.44ZM1097 15.48C1097 14.72 1096.84 14.06 1096.52 13.5C1096.22 12.94 1095.81 12.5133 1095.3 12.22C1094.8 11.9267 1094.25 11.78 1093.66 11.78C1093.08 11.78 1092.53 11.9267 1092.02 12.22C1091.52 12.5 1091.1 12.92 1090.78 13.48C1090.48 14.0267 1090.32 14.68 1090.32 15.44C1090.32 16.2 1090.48 16.8667 1090.78 17.44C1091.1 18.0133 1091.52 18.4533 1092.02 18.76C1092.54 19.0533 1093.09 19.2 1093.66 19.2C1094.25 19.2 1094.8 19.0533 1095.3 18.76C1095.81 18.4667 1096.22 18.04 1096.52 17.48C1096.84 16.9067 1097 16.24 1097 15.48ZM1112.4 15.22C1112.4 15.6333 1112.37 16.0067 1112.32 16.34H1103.9C1103.96 17.22 1104.29 17.9267 1104.88 18.46C1105.46 18.9933 1106.18 19.26 1107.04 19.26C1108.26 19.26 1109.13 18.7467 1109.64 17.72H1112.1C1111.76 18.7333 1111.16 19.5667 1110.28 20.22C1109.41 20.86 1108.33 21.18 1107.04 21.18C1105.98 21.18 1105.04 20.9467 1104.2 20.48C1103.37 20 1102.72 19.3333 1102.24 18.48C1101.77 17.6133 1101.54 16.6133 1101.54 15.48C1101.54 14.3467 1101.76 13.3533 1102.22 12.5C1102.68 11.6333 1103.33 10.9667 1104.16 10.5C1105 10.0333 1105.96 9.8 1107.04 9.8C1108.08 9.8 1109 10.0267 1109.82 10.48C1110.63 10.9333 1111.26 11.5733 1111.72 12.4C1112.17 13.2133 1112.4 14.1533 1112.4 15.22ZM1110.02 14.5C1110 13.66 1109.7 12.9867 1109.12 12.48C1108.53 11.9733 1107.8 11.72 1106.94 11.72C1106.15 11.72 1105.48 11.9733 1104.92 12.48C1104.36 12.9733 1104.02 13.6467 1103.92 14.5H1110.02ZM1122.12 11.6C1122.5 11.0933 1123.03 10.6667 1123.7 10.32C1124.36 9.97333 1125.12 9.8 1125.96 9.8C1126.92 9.8 1127.79 10.04 1128.58 10.52C1129.38 10.9867 1130 11.6467 1130.46 12.5C1130.91 13.3533 1131.14 14.3333 1131.14 15.44C1131.14 16.5467 1130.91 17.54 1130.46 18.42C1130 19.2867 1129.38 19.9667 1128.58 20.46C1127.79 20.94 1126.92 21.18 1125.96 21.18C1125.12 21.18 1124.37 21.0133 1123.72 20.68C1123.06 20.3333 1122.53 19.9067 1122.12 19.4V26.24H1119.84V9.98H1122.12V11.6ZM1128.82 15.44C1128.82 14.68 1128.66 14.0267 1128.34 13.48C1128.03 12.92 1127.62 12.5 1127.1 12.22C1126.59 11.9267 1126.04 11.78 1125.46 11.78C1124.88 11.78 1124.34 11.9267 1123.82 12.22C1123.31 12.5133 1122.9 12.94 1122.58 13.5C1122.27 14.06 1122.12 14.72 1122.12 15.48C1122.12 16.24 1122.27 16.9067 1122.58 17.48C1122.9 18.04 1123.31 18.4667 1123.82 18.76C1124.34 19.0533 1124.88 19.2 1125.46 19.2C1126.04 19.2 1126.59 19.0533 1127.1 18.76C1127.62 18.4533 1128.03 18.0133 1128.34 17.44C1128.66 16.8667 1128.82 16.2 1128.82 15.44ZM1135.67 11.58C1136 11.02 1136.44 10.5867 1136.99 10.28C1137.55 9.96 1138.21 9.8 1138.97 9.8V12.16H1138.39C1137.5 12.16 1136.82 12.3867 1136.35 12.84C1135.9 13.2933 1135.67 14.08 1135.67 15.2V21H1133.39V9.98H1135.67V11.58ZM1145.85 21.18C1144.81 21.18 1143.87 20.9467 1143.03 20.48C1142.19 20 1141.53 19.3333 1141.05 18.48C1140.57 17.6133 1140.33 16.6133 1140.33 15.48C1140.33 14.36 1140.57 13.3667 1141.07 12.5C1141.56 11.6333 1142.23 10.9667 1143.09 10.5C1143.94 10.0333 1144.89 9.8 1145.95 9.8C1147 9.8 1147.95 10.0333 1148.81 10.5C1149.66 10.9667 1150.33 11.6333 1150.83 12.5C1151.32 13.3667 1151.57 14.36 1151.57 15.48C1151.57 16.6 1151.31 17.5933 1150.81 18.46C1150.3 19.3267 1149.61 20 1148.73 20.48C1147.86 20.9467 1146.9 21.18 1145.85 21.18ZM1145.85 19.2C1146.43 19.2 1146.98 19.06 1147.49 18.78C1148.01 18.5 1148.43 18.08 1148.75 17.52C1149.07 16.96 1149.23 16.28 1149.23 15.48C1149.23 14.68 1149.07 14.0067 1148.77 13.46C1148.46 12.9 1148.05 12.48 1147.55 12.2C1147.04 11.92 1146.49 11.78 1145.91 11.78C1145.32 11.78 1144.77 11.92 1144.27 12.2C1143.77 12.48 1143.38 12.9 1143.09 13.46C1142.79 14.0067 1142.65 14.68 1142.65 15.48C1142.65 16.6667 1142.95 17.5867 1143.55 18.24C1144.16 18.88 1144.93 19.2 1145.85 19.2ZM1156.48 11.84V17.94C1156.48 18.3533 1156.57 18.6533 1156.76 18.84C1156.96 19.0133 1157.29 19.1 1157.76 19.1H1159.16V21H1157.36C1156.33 21 1155.55 20.76 1155 20.28C1154.45 19.8 1154.18 19.02 1154.18 17.94V11.84H1152.88V9.98H1154.18V7.24H1156.48V9.98H1159.16V11.84H1156.48ZM1171.36 15.22C1171.36 15.6333 1171.34 16.0067 1171.28 16.34H1162.86C1162.93 17.22 1163.26 17.9267 1163.84 18.46C1164.43 18.9933 1165.15 19.26 1166 19.26C1167.23 19.26 1168.1 18.7467 1168.6 17.72H1171.06C1170.73 18.7333 1170.12 19.5667 1169.24 20.22C1168.38 20.86 1167.3 21.18 1166 21.18C1164.95 21.18 1164 20.9467 1163.16 20.48C1162.34 20 1161.68 19.3333 1161.2 18.48C1160.74 17.6133 1160.5 16.6133 1160.5 15.48C1160.5 14.3467 1160.73 13.3533 1161.18 12.5C1161.65 11.6333 1162.3 10.9667 1163.12 10.5C1163.96 10.0333 1164.92 9.8 1166 9.8C1167.04 9.8 1167.97 10.0267 1168.78 10.48C1169.6 10.9333 1170.23 11.5733 1170.68 12.4C1171.14 13.2133 1171.36 14.1533 1171.36 15.22ZM1168.98 14.5C1168.97 13.66 1168.67 12.9867 1168.08 12.48C1167.5 11.9733 1166.77 11.72 1165.9 11.72C1165.12 11.72 1164.44 11.9733 1163.88 12.48C1163.32 12.9733 1162.99 13.6467 1162.88 14.5H1168.98ZM1172.85 15.48C1172.85 14.3467 1173.07 13.3533 1173.53 12.5C1173.99 11.6333 1174.63 10.9667 1175.45 10.5C1176.26 10.0333 1177.19 9.8 1178.25 9.8C1179.58 9.8 1180.68 10.12 1181.55 10.76C1182.43 11.3867 1183.02 12.2867 1183.33 13.46H1180.87C1180.67 12.9133 1180.35 12.4867 1179.91 12.18C1179.47 11.8733 1178.91 11.72 1178.25 11.72C1177.31 11.72 1176.57 12.0533 1176.01 12.72C1175.46 13.3733 1175.19 14.2933 1175.19 15.48C1175.19 16.6667 1175.46 17.5933 1176.01 18.26C1176.57 18.9267 1177.31 19.26 1178.25 19.26C1179.57 19.26 1180.44 18.68 1180.87 17.52H1183.33C1183.01 18.64 1182.41 19.5333 1181.53 20.2C1180.65 20.8533 1179.55 21.18 1178.25 21.18C1177.19 21.18 1176.26 20.9467 1175.45 20.48C1174.63 20 1173.99 19.3333 1173.53 18.48C1173.07 17.6133 1172.85 16.6133 1172.85 15.48ZM1184.84 15.48C1184.84 14.3467 1185.06 13.3533 1185.52 12.5C1185.98 11.6333 1186.62 10.9667 1187.44 10.5C1188.25 10.0333 1189.18 9.8 1190.24 9.8C1191.57 9.8 1192.67 10.12 1193.54 10.76C1194.42 11.3867 1195.01 12.2867 1195.32 13.46H1192.86C1192.66 12.9133 1192.34 12.4867 1191.9 12.18C1191.46 11.8733 1190.9 11.72 1190.24 11.72C1189.3 11.72 1188.56 12.0533 1188 12.72C1187.45 13.3733 1187.18 14.2933 1187.18 15.48C1187.18 16.6667 1187.45 17.5933 1188 18.26C1188.56 18.9267 1189.3 19.26 1190.24 19.26C1191.56 19.26 1192.43 18.68 1192.86 17.52H1195.32C1195 18.64 1194.4 19.5333 1193.52 20.2C1192.64 20.8533 1191.54 21.18 1190.24 21.18C1189.18 21.18 1188.25 20.9467 1187.44 20.48C1186.62 20 1185.98 19.3333 1185.52 18.48C1185.06 17.6133 1184.84 16.6133 1184.84 15.48ZM1198.75 8.52C1198.34 8.52 1197.99 8.38 1197.71 8.1C1197.43 7.82 1197.29 7.47333 1197.29 7.06C1197.29 6.64667 1197.43 6.3 1197.71 6.02C1197.99 5.74 1198.34 5.6 1198.75 5.6C1199.15 5.6 1199.49 5.74 1199.77 6.02C1200.05 6.3 1200.19 6.64667 1200.19 7.06C1200.19 7.47333 1200.05 7.82 1199.77 8.1C1199.49 8.38 1199.15 8.52 1198.75 8.52ZM1199.87 9.98V21H1197.59V9.98H1199.87ZM1207.64 21.18C1206.6 21.18 1205.66 20.9467 1204.82 20.48C1203.98 20 1203.32 19.3333 1202.84 18.48C1202.36 17.6133 1202.12 16.6133 1202.12 15.48C1202.12 14.36 1202.37 13.3667 1202.86 12.5C1203.36 11.6333 1204.03 10.9667 1204.88 10.5C1205.74 10.0333 1206.69 9.8 1207.74 9.8C1208.8 9.8 1209.75 10.0333 1210.6 10.5C1211.46 10.9667 1212.13 11.6333 1212.62 12.5C1213.12 13.3667 1213.36 14.36 1213.36 15.48C1213.36 16.6 1213.11 17.5933 1212.6 18.46C1212.1 19.3267 1211.4 20 1210.52 20.48C1209.66 20.9467 1208.7 21.18 1207.64 21.18ZM1207.64 19.2C1208.23 19.2 1208.78 19.06 1209.28 18.78C1209.8 18.5 1210.22 18.08 1210.54 17.52C1210.86 16.96 1211.02 16.28 1211.02 15.48C1211.02 14.68 1210.87 14.0067 1210.56 13.46C1210.26 12.9 1209.85 12.48 1209.34 12.2C1208.84 11.92 1208.29 11.78 1207.7 11.78C1207.12 11.78 1206.57 11.92 1206.06 12.2C1205.57 12.48 1205.18 12.9 1204.88 13.46C1204.59 14.0067 1204.44 14.68 1204.44 15.48C1204.44 16.6667 1204.74 17.5867 1205.34 18.24C1205.96 18.88 1206.72 19.2 1207.64 19.2ZM1209.8 6.84L1205.38 9.02V7.34L1209.8 4.9V6.84ZM1221.18 9.8C1222.04 9.8 1222.82 9.98 1223.5 10.34C1224.19 10.7 1224.73 11.2333 1225.12 11.94C1225.5 12.6467 1225.7 13.5 1225.7 14.5V21H1223.44V14.84C1223.44 13.8533 1223.19 13.1 1222.7 12.58C1222.2 12.0467 1221.53 11.78 1220.68 11.78C1219.82 11.78 1219.14 12.0467 1218.64 12.58C1218.14 13.1 1217.9 13.8533 1217.9 14.84V21H1215.62V9.98H1217.9V11.24C1218.27 10.7867 1218.74 10.4333 1219.32 10.18C1219.9 9.92667 1220.52 9.8 1221.18 9.8ZM1236.06 7.1V15.96C1236.06 17.0133 1236.33 17.8067 1236.88 18.34C1237.44 18.8733 1238.21 19.14 1239.2 19.14C1240.2 19.14 1240.97 18.8733 1241.52 18.34C1242.08 17.8067 1242.36 17.0133 1242.36 15.96V7.1H1244.64V15.92C1244.64 17.0533 1244.39 18.0133 1243.9 18.8C1243.41 19.5867 1242.75 20.1733 1241.92 20.56C1241.09 20.9467 1240.18 21.14 1239.18 21.14C1238.18 21.14 1237.27 20.9467 1236.44 20.56C1235.63 20.1733 1234.98 19.5867 1234.5 18.8C1234.02 18.0133 1233.78 17.0533 1233.78 15.92V7.1H1236.06ZM1259.59 7.1L1254.37 21H1251.73L1246.49 7.1H1248.93L1253.05 18.66L1257.19 7.1H1259.59Z" fill="#2F4159"/>
<path d="M590.504 221.265C590.504 219.905 590.817 218.685 591.444 217.605C592.084 216.525 592.944 215.685 594.024 215.085C595.117 214.472 596.31 214.165 597.604 214.165C599.084 214.165 600.397 214.532 601.544 215.265C602.704 215.985 603.544 217.012 604.064 218.345H601.324C600.964 217.612 600.464 217.065 599.824 216.705C599.184 216.345 598.444 216.165 597.604 216.165C596.684 216.165 595.864 216.372 595.144 216.785C594.424 217.198 593.857 217.792 593.444 218.565C593.044 219.338 592.844 220.238 592.844 221.265C592.844 222.292 593.044 223.192 593.444 223.965C593.857 224.738 594.424 225.338 595.144 225.765C595.864 226.178 596.684 226.385 597.604 226.385C598.444 226.385 599.184 226.205 599.824 225.845C600.464 225.485 600.964 224.938 601.324 224.205H604.064C603.544 225.538 602.704 226.565 601.544 227.285C600.397 228.005 599.084 228.365 597.604 228.365C596.297 228.365 595.104 228.065 594.024 227.465C592.944 226.852 592.084 226.005 591.444 224.925C590.817 223.845 590.504 222.625 590.504 221.265ZM605.972 222.685C605.972 221.578 606.199 220.598 606.652 219.745C607.119 218.892 607.746 218.232 608.532 217.765C609.332 217.285 610.212 217.045 611.172 217.045C612.039 217.045 612.792 217.218 613.432 217.565C614.086 217.898 614.606 218.318 614.992 218.825V217.225H617.292V228.245H614.992V226.605C614.606 227.125 614.079 227.558 613.412 227.905C612.746 228.252 611.986 228.425 611.132 228.425C610.186 228.425 609.319 228.185 608.532 227.705C607.746 227.212 607.119 226.532 606.652 225.665C606.199 224.785 605.972 223.792 605.972 222.685ZM614.992 222.725C614.992 221.965 614.832 221.305 614.512 220.745C614.206 220.185 613.799 219.758 613.292 219.465C612.786 219.172 612.239 219.025 611.652 219.025C611.066 219.025 610.519 219.172 610.012 219.465C609.506 219.745 609.092 220.165 608.772 220.725C608.466 221.272 608.312 221.925 608.312 222.685C608.312 223.445 608.466 224.112 608.772 224.685C609.092 225.258 609.506 225.698 610.012 226.005C610.532 226.298 611.079 226.445 611.652 226.445C612.239 226.445 612.786 226.298 613.292 226.005C613.799 225.712 614.206 225.285 614.512 224.725C614.832 224.152 614.992 223.485 614.992 222.725ZM622.567 218.845C622.954 218.338 623.48 217.912 624.147 217.565C624.814 217.218 625.567 217.045 626.407 217.045C627.367 217.045 628.24 217.285 629.027 217.765C629.827 218.232 630.454 218.892 630.907 219.745C631.36 220.598 631.587 221.578 631.587 222.685C631.587 223.792 631.36 224.785 630.907 225.665C630.454 226.532 629.827 227.212 629.027 227.705C628.24 228.185 627.367 228.425 626.407 228.425C625.567 228.425 624.82 228.258 624.167 227.925C623.514 227.578 622.98 227.152 622.567 226.645V233.485H620.287V217.225H622.567V218.845ZM629.267 222.685C629.267 221.925 629.107 221.272 628.787 220.725C628.48 220.165 628.067 219.745 627.547 219.465C627.04 219.172 626.494 219.025 625.907 219.025C625.334 219.025 624.787 219.172 624.267 219.465C623.76 219.758 623.347 220.185 623.027 220.745C622.72 221.305 622.567 221.965 622.567 222.725C622.567 223.485 622.72 224.152 623.027 224.725C623.347 225.285 623.76 225.712 624.267 226.005C624.787 226.298 625.334 226.445 625.907 226.445C626.494 226.445 627.04 226.298 627.547 226.005C628.067 225.698 628.48 225.258 628.787 224.685C629.107 224.112 629.267 223.445 629.267 222.685ZM633.082 222.685C633.082 221.578 633.308 220.598 633.762 219.745C634.228 218.892 634.855 218.232 635.642 217.765C636.442 217.285 637.322 217.045 638.282 217.045C639.148 217.045 639.902 217.218 640.542 217.565C641.195 217.898 641.715 218.318 642.102 218.825V217.225H644.402V228.245H642.102V226.605C641.715 227.125 641.188 227.558 640.522 227.905C639.855 228.252 639.095 228.425 638.242 228.425C637.295 228.425 636.428 228.185 635.642 227.705C634.855 227.212 634.228 226.532 633.762 225.665C633.308 224.785 633.082 223.792 633.082 222.685ZM642.102 222.725C642.102 221.965 641.942 221.305 641.622 220.745C641.315 220.185 640.908 219.758 640.402 219.465C639.895 219.172 639.348 219.025 638.762 219.025C638.175 219.025 637.628 219.172 637.122 219.465C636.615 219.745 636.202 220.165 635.882 220.725C635.575 221.272 635.422 221.925 635.422 222.685C635.422 223.445 635.575 224.112 635.882 224.685C636.202 225.258 636.615 225.698 637.122 226.005C637.642 226.298 638.188 226.445 638.762 226.445C639.348 226.445 639.895 226.298 640.402 226.005C640.908 225.712 641.315 225.285 641.622 224.725C641.942 224.152 642.102 223.485 642.102 222.725ZM651.832 222.685C651.832 221.578 652.058 220.598 652.512 219.745C652.978 218.892 653.605 218.232 654.392 217.765C655.192 217.285 656.078 217.045 657.052 217.045C657.772 217.045 658.478 217.205 659.172 217.525C659.878 217.832 660.438 218.245 660.852 218.765V213.445H663.152V228.245H660.852V226.585C660.478 227.118 659.958 227.558 659.292 227.905C658.638 228.252 657.885 228.425 657.032 228.425C656.072 228.425 655.192 228.185 654.392 227.705C653.605 227.212 652.978 226.532 652.512 225.665C652.058 224.785 651.832 223.792 651.832 222.685ZM660.852 222.725C660.852 221.965 660.692 221.305 660.372 220.745C660.065 220.185 659.658 219.758 659.152 219.465C658.645 219.172 658.098 219.025 657.512 219.025C656.925 219.025 656.378 219.172 655.872 219.465C655.365 219.745 654.952 220.165 654.632 220.725C654.325 221.272 654.172 221.925 654.172 222.685C654.172 223.445 654.325 224.112 654.632 224.685C654.952 225.258 655.365 225.698 655.872 226.005C656.392 226.298 656.938 226.445 657.512 226.445C658.098 226.445 658.645 226.298 659.152 226.005C659.658 225.712 660.065 225.285 660.372 224.725C660.692 224.152 660.852 223.485 660.852 222.725ZM676.246 222.465C676.246 222.878 676.22 223.252 676.166 223.585H667.746C667.813 224.465 668.14 225.172 668.726 225.705C669.313 226.238 670.033 226.505 670.886 226.505C672.113 226.505 672.98 225.992 673.486 224.965H675.946C675.613 225.978 675.006 226.812 674.126 227.465C673.26 228.105 672.18 228.425 670.886 228.425C669.833 228.425 668.886 228.192 668.046 227.725C667.22 227.245 666.566 226.578 666.086 225.725C665.62 224.858 665.386 223.858 665.386 222.725C665.386 221.592 665.613 220.598 666.066 219.745C666.533 218.878 667.18 218.212 668.006 217.745C668.846 217.278 669.806 217.045 670.886 217.045C671.926 217.045 672.853 217.272 673.666 217.725C674.48 218.178 675.113 218.818 675.566 219.645C676.02 220.458 676.246 221.398 676.246 222.465ZM673.866 221.745C673.853 220.905 673.553 220.232 672.966 219.725C672.38 219.218 671.653 218.965 670.786 218.965C670 218.965 669.326 219.218 668.766 219.725C668.206 220.218 667.873 220.892 667.766 221.745H673.866ZM682.926 222.685C682.926 221.578 683.152 220.598 683.606 219.745C684.072 218.892 684.699 218.232 685.486 217.765C686.286 217.285 687.172 217.045 688.146 217.045C688.866 217.045 689.572 217.205 690.266 217.525C690.972 217.832 691.532 218.245 691.946 218.765V213.445H694.246V228.245H691.946V226.585C691.572 227.118 691.052 227.558 690.386 227.905C689.732 228.252 688.979 228.425 688.126 228.425C687.166 228.425 686.286 228.185 685.486 227.705C684.699 227.212 684.072 226.532 683.606 225.665C683.152 224.785 682.926 223.792 682.926 222.685ZM691.946 222.725C691.946 221.965 691.786 221.305 691.466 220.745C691.159 220.185 690.752 219.758 690.246 219.465C689.739 219.172 689.192 219.025 688.606 219.025C688.019 219.025 687.472 219.172 686.966 219.465C686.459 219.745 686.046 220.165 685.726 220.725C685.419 221.272 685.266 221.925 685.266 222.685C685.266 223.445 685.419 224.112 685.726 224.685C686.046 225.258 686.459 225.698 686.966 226.005C687.486 226.298 688.032 226.445 688.606 226.445C689.192 226.445 689.739 226.298 690.246 226.005C690.752 225.712 691.159 225.285 691.466 224.725C691.786 224.152 691.946 223.485 691.946 222.725ZM707.34 222.465C707.34 222.878 707.314 223.252 707.26 223.585H698.84C698.907 224.465 699.234 225.172 699.82 225.705C700.407 226.238 701.127 226.505 701.98 226.505C703.207 226.505 704.074 225.992 704.58 224.965H707.04C706.707 225.978 706.1 226.812 705.22 227.465C704.354 228.105 703.274 228.425 701.98 228.425C700.927 228.425 699.98 228.192 699.14 227.725C698.314 227.245 697.66 226.578 697.18 225.725C696.714 224.858 696.48 223.858 696.48 222.725C696.48 221.592 696.707 220.598 697.16 219.745C697.627 218.878 698.274 218.212 699.1 217.745C699.94 217.278 700.9 217.045 701.98 217.045C703.02 217.045 703.947 217.272 704.76 217.725C705.574 218.178 706.207 218.818 706.66 219.645C707.114 220.458 707.34 221.398 707.34 222.465ZM704.96 221.745C704.947 220.905 704.647 220.232 704.06 219.725C703.474 219.218 702.747 218.965 701.88 218.965C701.094 218.965 700.42 219.218 699.86 219.725C699.3 220.218 698.967 220.892 698.86 221.745H704.96ZM713.584 228.425C712.717 228.425 711.937 228.272 711.244 227.965C710.564 227.645 710.024 227.218 709.624 226.685C709.224 226.138 709.011 225.532 708.984 224.865H711.344C711.384 225.332 711.604 225.725 712.004 226.045C712.417 226.352 712.931 226.505 713.544 226.505C714.184 226.505 714.677 226.385 715.024 226.145C715.384 225.892 715.564 225.572 715.564 225.185C715.564 224.772 715.364 224.465 714.964 224.265C714.577 224.065 713.957 223.845 713.104 223.605C712.277 223.378 711.604 223.158 711.084 222.945C710.564 222.732 710.111 222.405 709.724 221.965C709.351 221.525 709.164 220.945 709.164 220.225C709.164 219.638 709.337 219.105 709.684 218.625C710.031 218.132 710.524 217.745 711.164 217.465C711.817 217.185 712.564 217.045 713.404 217.045C714.657 217.045 715.664 217.365 716.424 218.005C717.197 218.632 717.611 219.492 717.664 220.585H715.384C715.344 220.092 715.144 219.698 714.784 219.405C714.424 219.112 713.937 218.965 713.324 218.965C712.724 218.965 712.264 219.078 711.944 219.305C711.624 219.532 711.464 219.832 711.464 220.205C711.464 220.498 711.571 220.745 711.784 220.945C711.997 221.145 712.257 221.305 712.564 221.425C712.871 221.532 713.324 221.672 713.924 221.845C714.724 222.058 715.377 222.278 715.884 222.505C716.404 222.718 716.851 223.038 717.224 223.465C717.597 223.892 717.791 224.458 717.804 225.165C717.804 225.792 717.631 226.352 717.284 226.845C716.937 227.338 716.444 227.725 715.804 228.005C715.177 228.285 714.437 228.425 713.584 228.425ZM724.708 217.045C725.561 217.045 726.314 217.218 726.968 217.565C727.634 217.898 728.154 218.318 728.528 218.825V217.225H730.828V228.425C730.828 229.438 730.614 230.338 730.188 231.125C729.761 231.925 729.141 232.552 728.328 233.005C727.528 233.458 726.568 233.685 725.448 233.685C723.954 233.685 722.714 233.332 721.728 232.625C720.741 231.932 720.181 230.985 720.048 229.785H722.308C722.481 230.358 722.848 230.818 723.408 231.165C723.981 231.525 724.661 231.705 725.448 231.705C726.368 231.705 727.108 231.425 727.668 230.865C728.241 230.305 728.528 229.492 728.528 228.425V226.585C728.141 227.105 727.614 227.545 726.948 227.905C726.294 228.252 725.548 228.425 724.708 228.425C723.748 228.425 722.868 228.185 722.068 227.705C721.281 227.212 720.654 226.532 720.188 225.665C719.734 224.785 719.508 223.792 719.508 222.685C719.508 221.578 719.734 220.598 720.188 219.745C720.654 218.892 721.281 218.232 722.068 217.765C722.868 217.285 723.748 217.045 724.708 217.045ZM728.528 222.725C728.528 221.965 728.368 221.305 728.048 220.745C727.741 220.185 727.334 219.758 726.828 219.465C726.321 219.172 725.774 219.025 725.188 219.025C724.601 219.025 724.054 219.172 723.548 219.465C723.041 219.745 722.628 220.165 722.308 220.725C722.001 221.272 721.848 221.925 721.848 222.685C721.848 223.445 722.001 224.112 722.308 224.685C722.628 225.258 723.041 225.698 723.548 226.005C724.068 226.298 724.614 226.445 725.188 226.445C725.774 226.445 726.321 226.298 726.828 226.005C727.334 225.712 727.741 225.285 728.048 224.725C728.368 224.152 728.528 223.485 728.528 222.725ZM733.062 222.685C733.062 221.578 733.289 220.598 733.742 219.745C734.209 218.892 734.836 218.232 735.622 217.765C736.422 217.285 737.302 217.045 738.262 217.045C739.129 217.045 739.882 217.218 740.522 217.565C741.176 217.898 741.696 218.318 742.082 218.825V217.225H744.382V228.245H742.082V226.605C741.696 227.125 741.169 227.558 740.502 227.905C739.836 228.252 739.076 228.425 738.222 228.425C737.276 228.425 736.409 228.185 735.622 227.705C734.836 227.212 734.209 226.532 733.742 225.665C733.289 224.785 733.062 223.792 733.062 222.685ZM742.082 222.725C742.082 221.965 741.922 221.305 741.602 220.745C741.296 220.185 740.889 219.758 740.382 219.465C739.876 219.172 739.329 219.025 738.742 219.025C738.156 219.025 737.609 219.172 737.102 219.465C736.596 219.745 736.182 220.165 735.862 220.725C735.556 221.272 735.402 221.925 735.402 222.685C735.402 223.445 735.556 224.112 735.862 224.685C736.182 225.258 736.596 225.698 737.102 226.005C737.622 226.298 738.169 226.445 738.742 226.445C739.329 226.445 739.876 226.298 740.382 226.005C740.889 225.712 741.296 225.285 741.602 224.725C741.922 224.152 742.082 223.485 742.082 222.725ZM751.377 228.425C750.51 228.425 749.73 228.272 749.037 227.965C748.357 227.645 747.817 227.218 747.417 226.685C747.017 226.138 746.804 225.532 746.777 224.865H749.137C749.177 225.332 749.397 225.725 749.797 226.045C750.21 226.352 750.724 226.505 751.337 226.505C751.977 226.505 752.47 226.385 752.817 226.145C753.177 225.892 753.357 225.572 753.357 225.185C753.357 224.772 753.157 224.465 752.757 224.265C752.37 224.065 751.75 223.845 750.897 223.605C750.07 223.378 749.397 223.158 748.877 222.945C748.357 222.732 747.904 222.405 747.517 221.965C747.144 221.525 746.957 220.945 746.957 220.225C746.957 219.638 747.13 219.105 747.477 218.625C747.824 218.132 748.317 217.745 748.957 217.465C749.61 217.185 750.357 217.045 751.197 217.045C752.45 217.045 753.457 217.365 754.217 218.005C754.99 218.632 755.404 219.492 755.457 220.585H753.177C753.137 220.092 752.937 219.698 752.577 219.405C752.217 219.112 751.73 218.965 751.117 218.965C750.517 218.965 750.057 219.078 749.737 219.305C749.417 219.532 749.257 219.832 749.257 220.205C749.257 220.498 749.364 220.745 749.577 220.945C749.79 221.145 750.05 221.305 750.357 221.425C750.664 221.532 751.117 221.672 751.717 221.845C752.517 222.058 753.17 222.278 753.677 222.505C754.197 222.718 754.644 223.038 755.017 223.465C755.39 223.892 755.584 224.458 755.597 225.165C755.597 225.792 755.424 226.352 755.077 226.845C754.73 227.338 754.237 227.725 753.597 228.005C752.97 228.285 752.23 228.425 751.377 228.425ZM760.721 219.085V225.185C760.721 225.598 760.814 225.898 761.001 226.085C761.201 226.258 761.534 226.345 762.001 226.345H763.401V228.245H761.601C760.574 228.245 759.787 228.005 759.241 227.525C758.694 227.045 758.421 226.265 758.421 225.185V219.085H757.121V217.225H758.421V214.485H760.721V217.225H763.401V219.085H760.721ZM775.602 222.465C775.602 222.878 775.575 223.252 775.522 223.585H767.102C767.169 224.465 767.495 225.172 768.082 225.705C768.669 226.238 769.389 226.505 770.242 226.505C771.469 226.505 772.335 225.992 772.842 224.965H775.302C774.969 225.978 774.362 226.812 773.482 227.465C772.615 228.105 771.535 228.425 770.242 228.425C769.189 228.425 768.242 228.192 767.402 227.725C766.575 227.245 765.922 226.578 765.442 225.725C764.975 224.858 764.742 223.858 764.742 222.725C764.742 221.592 764.969 220.598 765.422 219.745C765.889 218.878 766.535 218.212 767.362 217.745C768.202 217.278 769.162 217.045 770.242 217.045C771.282 217.045 772.209 217.272 773.022 217.725C773.835 218.178 774.469 218.818 774.922 219.645C775.375 220.458 775.602 221.398 775.602 222.465ZM773.222 221.745C773.209 220.905 772.909 220.232 772.322 219.725C771.735 219.218 771.009 218.965 770.142 218.965C769.355 218.965 768.682 219.218 768.122 219.725C767.562 220.218 767.229 220.892 767.122 221.745H773.222Z" fill="#2F4159"/>
<path d="M11.22 467.525C11.22 468.232 11.0533 468.898 10.72 469.525C10.3867 470.152 9.85333 470.665 9.12 471.065C8.38667 471.452 7.44667 471.645 6.3 471.645H3.78V477.285H1.5V463.385H6.3C7.36667 463.385 8.26667 463.572 9 463.945C9.74667 464.305 10.3 464.798 10.66 465.425C11.0333 466.052 11.22 466.752 11.22 467.525ZM6.3 469.785C7.16667 469.785 7.81333 469.592 8.24 469.205C8.66667 468.805 8.88 468.245 8.88 467.525C8.88 466.005 8.02 465.245 6.3 465.245H3.78V469.785H6.3ZM23.4945 471.505C23.4945 471.918 23.4679 472.292 23.4145 472.625H14.9945C15.0612 473.505 15.3879 474.212 15.9745 474.745C16.5612 475.278 17.2812 475.545 18.1345 475.545C19.3612 475.545 20.2279 475.032 20.7345 474.005H23.1945C22.8612 475.018 22.2545 475.852 21.3745 476.505C20.5079 477.145 19.4279 477.465 18.1345 477.465C17.0812 477.465 16.1345 477.232 15.2945 476.765C14.4679 476.285 13.8145 475.618 13.3345 474.765C12.8679 473.898 12.6345 472.898 12.6345 471.765C12.6345 470.632 12.8612 469.638 13.3145 468.785C13.7812 467.918 14.4279 467.252 15.2545 466.785C16.0945 466.318 17.0545 466.085 18.1345 466.085C19.1745 466.085 20.1012 466.312 20.9145 466.765C21.7279 467.218 22.3612 467.858 22.8145 468.685C23.2679 469.498 23.4945 470.438 23.4945 471.505ZM21.1145 470.785C21.1012 469.945 20.8012 469.272 20.2145 468.765C19.6279 468.258 18.9012 468.005 18.0345 468.005C17.2479 468.005 16.5745 468.258 16.0145 468.765C15.4545 469.258 15.1212 469.932 15.0145 470.785H21.1145ZM28.0183 462.485V477.285H25.7383V462.485H28.0183ZM33.2917 466.265V477.285H31.0117V466.265H33.2917ZM34.2117 463.305L29.7917 465.485V463.805L34.2117 461.365V463.305ZM35.5252 471.765C35.5252 470.632 35.7518 469.638 36.2052 468.785C36.6718 467.918 37.3118 467.252 38.1252 466.785C38.9385 466.318 39.8718 466.085 40.9252 466.085C42.2585 466.085 43.3585 466.405 44.2252 467.045C45.1052 467.672 45.6985 468.572 46.0052 469.745H43.5452C43.3452 469.198 43.0252 468.772 42.5852 468.465C42.1452 468.158 41.5918 468.005 40.9252 468.005C39.9918 468.005 39.2452 468.338 38.6852 469.005C38.1385 469.658 37.8652 470.578 37.8652 471.765C37.8652 472.952 38.1385 473.878 38.6852 474.545C39.2452 475.212 39.9918 475.545 40.9252 475.545C42.2452 475.545 43.1185 474.965 43.5452 473.805H46.0052C45.6852 474.925 45.0852 475.818 44.2052 476.485C43.3252 477.138 42.2318 477.465 40.9252 477.465C39.8718 477.465 38.9385 477.232 38.1252 476.765C37.3118 476.285 36.6718 475.618 36.2052 474.765C35.7518 473.898 35.5252 472.898 35.5252 471.765ZM58.2573 466.265V477.285H55.9773V475.985C55.6173 476.438 55.144 476.798 54.5573 477.065C53.984 477.318 53.3707 477.445 52.7173 477.445C51.8507 477.445 51.0707 477.265 50.3773 476.905C49.6973 476.545 49.1573 476.012 48.7573 475.305C48.3707 474.598 48.1773 473.745 48.1773 472.745V466.265H50.4373V472.405C50.4373 473.392 50.684 474.152 51.1773 474.685C51.6707 475.205 52.344 475.465 53.1973 475.465C54.0507 475.465 54.724 475.205 55.2173 474.685C55.724 474.152 55.9773 473.392 55.9773 472.405V466.265H58.2573ZM63.5456 462.485V477.285H61.2656V462.485H63.5456ZM65.7791 471.725C65.7791 470.618 66.0057 469.638 66.4591 468.785C66.9257 467.932 67.5524 467.272 68.3391 466.805C69.1391 466.325 70.0191 466.085 70.9791 466.085C71.8457 466.085 72.5991 466.258 73.2391 466.605C73.8924 466.938 74.4124 467.358 74.7991 467.865V466.265H77.0991V477.285H74.7991V475.645C74.4124 476.165 73.8857 476.598 73.2191 476.945C72.5524 477.292 71.7924 477.465 70.9391 477.465C69.9924 477.465 69.1257 477.225 68.3391 476.745C67.5524 476.252 66.9257 475.572 66.4591 474.705C66.0057 473.825 65.7791 472.832 65.7791 471.725ZM74.7991 471.765C74.7991 471.005 74.6391 470.345 74.3191 469.785C74.0124 469.225 73.6057 468.798 73.0991 468.505C72.5924 468.212 72.0457 468.065 71.4591 468.065C70.8724 468.065 70.3257 468.212 69.8191 468.505C69.3124 468.785 68.8991 469.205 68.5791 469.765C68.2724 470.312 68.1191 470.965 68.1191 471.725C68.1191 472.485 68.2724 473.152 68.5791 473.725C68.8991 474.298 69.3124 474.738 69.8191 475.045C70.3391 475.338 70.8857 475.485 71.4591 475.485C72.0457 475.485 72.5924 475.338 73.0991 475.045C73.6057 474.752 74.0124 474.325 74.3191 473.765C74.6391 473.192 74.7991 472.525 74.7991 471.765ZM84.5291 471.725C84.5291 470.618 84.7557 469.638 85.2091 468.785C85.6757 467.932 86.3024 467.272 87.0891 466.805C87.8891 466.325 88.7757 466.085 89.7491 466.085C90.4691 466.085 91.1757 466.245 91.8691 466.565C92.5757 466.872 93.1357 467.285 93.5491 467.805V462.485H95.8491V477.285H93.5491V475.625C93.1757 476.158 92.6557 476.598 91.9891 476.945C91.3357 477.292 90.5824 477.465 89.7291 477.465C88.7691 477.465 87.8891 477.225 87.0891 476.745C86.3024 476.252 85.6757 475.572 85.2091 474.705C84.7557 473.825 84.5291 472.832 84.5291 471.725ZM93.5491 471.765C93.5491 471.005 93.3891 470.345 93.0691 469.785C92.7624 469.225 92.3557 468.798 91.8491 468.505C91.3424 468.212 90.7957 468.065 90.2091 468.065C89.6224 468.065 89.0757 468.212 88.5691 468.505C88.0624 468.785 87.6491 469.205 87.3291 469.765C87.0224 470.312 86.8691 470.965 86.8691 471.725C86.8691 472.485 87.0224 473.152 87.3291 473.725C87.6491 474.298 88.0624 474.738 88.5691 475.045C89.0891 475.338 89.6357 475.485 90.2091 475.485C90.7957 475.485 91.3424 475.338 91.8491 475.045C92.3557 474.752 92.7624 474.325 93.0691 473.765C93.3891 473.192 93.5491 472.525 93.5491 471.765ZM108.944 471.505C108.944 471.918 108.917 472.292 108.864 472.625H100.444C100.51 473.505 100.837 474.212 101.424 474.745C102.01 475.278 102.73 475.545 103.584 475.545C104.81 475.545 105.677 475.032 106.184 474.005H108.644C108.31 475.018 107.704 475.852 106.824 476.505C105.957 477.145 104.877 477.465 103.584 477.465C102.53 477.465 101.584 477.232 100.744 476.765C99.9171 476.285 99.2638 475.618 98.7838 474.765C98.3171 473.898 98.0838 472.898 98.0838 471.765C98.0838 470.632 98.3104 469.638 98.7638 468.785C99.2304 467.918 99.8771 467.252 100.704 466.785C101.544 466.318 102.504 466.085 103.584 466.085C104.624 466.085 105.55 466.312 106.364 466.765C107.177 467.218 107.81 467.858 108.264 468.685C108.717 469.498 108.944 470.438 108.944 471.505ZM106.564 470.785C106.55 469.945 106.25 469.272 105.664 468.765C105.077 468.258 104.35 468.005 103.484 468.005C102.697 468.005 102.024 468.258 101.464 468.765C100.904 469.258 100.57 469.932 100.464 470.785H106.564ZM115.623 471.765C115.623 470.632 115.849 469.638 116.303 468.785C116.769 467.918 117.409 467.252 118.223 466.785C119.036 466.318 119.969 466.085 121.023 466.085C122.356 466.085 123.456 466.405 124.323 467.045C125.203 467.672 125.796 468.572 126.103 469.745H123.643C123.443 469.198 123.123 468.772 122.683 468.465C122.243 468.158 121.689 468.005 121.023 468.005C120.089 468.005 119.343 468.338 118.783 469.005C118.236 469.658 117.963 470.578 117.963 471.765C117.963 472.952 118.236 473.878 118.783 474.545C119.343 475.212 120.089 475.545 121.023 475.545C122.343 475.545 123.216 474.965 123.643 473.805H126.103C125.783 474.925 125.183 475.818 124.303 476.485C123.423 477.138 122.329 477.465 121.023 477.465C119.969 477.465 119.036 477.232 118.223 476.765C117.409 476.285 116.769 475.618 116.303 474.765C115.849 473.898 115.623 472.898 115.623 471.765ZM133.155 477.465C132.115 477.465 131.175 477.232 130.335 476.765C129.495 476.285 128.835 475.618 128.355 474.765C127.875 473.898 127.635 472.898 127.635 471.765C127.635 470.645 127.882 469.652 128.375 468.785C128.868 467.918 129.542 467.252 130.395 466.785C131.248 466.318 132.202 466.085 133.255 466.085C134.308 466.085 135.262 466.318 136.115 466.785C136.968 467.252 137.642 467.918 138.135 468.785C138.628 469.652 138.875 470.645 138.875 471.765C138.875 472.885 138.622 473.878 138.115 474.745C137.608 475.612 136.915 476.285 136.035 476.765C135.168 477.232 134.208 477.465 133.155 477.465ZM133.155 475.485C133.742 475.485 134.288 475.345 134.795 475.065C135.315 474.785 135.735 474.365 136.055 473.805C136.375 473.245 136.535 472.565 136.535 471.765C136.535 470.965 136.382 470.292 136.075 469.745C135.768 469.185 135.362 468.765 134.855 468.485C134.348 468.205 133.802 468.065 133.215 468.065C132.628 468.065 132.082 468.205 131.575 468.485C131.082 468.765 130.688 469.185 130.395 469.745C130.102 470.292 129.955 470.965 129.955 471.765C129.955 472.952 130.255 473.872 130.855 474.525C131.468 475.165 132.235 475.485 133.155 475.485ZM143.409 462.485V477.285H141.129V462.485H143.409ZM151.182 477.465C150.142 477.465 149.202 477.232 148.362 476.765C147.522 476.285 146.862 475.618 146.382 474.765C145.902 473.898 145.662 472.898 145.662 471.765C145.662 470.645 145.909 469.652 146.402 468.785C146.896 467.918 147.569 467.252 148.422 466.785C149.276 466.318 150.229 466.085 151.282 466.085C152.336 466.085 153.289 466.318 154.142 466.785C154.996 467.252 155.669 467.918 156.162 468.785C156.656 469.652 156.902 470.645 156.902 471.765C156.902 472.885 156.649 473.878 156.142 474.745C155.636 475.612 154.942 476.285 154.062 476.765C153.196 477.232 152.236 477.465 151.182 477.465ZM151.182 475.485C151.769 475.485 152.316 475.345 152.822 475.065C153.342 474.785 153.762 474.365 154.082 473.805C154.402 473.245 154.562 472.565 154.562 471.765C154.562 470.965 154.409 470.292 154.102 469.745C153.796 469.185 153.389 468.765 152.882 468.485C152.376 468.205 151.829 468.065 151.242 468.065C150.656 468.065 150.109 468.205 149.602 468.485C149.109 468.765 148.716 469.185 148.422 469.745C148.129 470.292 147.982 470.965 147.982 471.765C147.982 472.952 148.282 473.872 148.882 474.525C149.496 475.165 150.262 475.485 151.182 475.485ZM161.436 467.865C161.77 467.305 162.21 466.872 162.756 466.565C163.316 466.245 163.976 466.085 164.736 466.085V468.445H164.156C163.263 468.445 162.583 468.672 162.116 469.125C161.663 469.578 161.436 470.365 161.436 471.485V477.285H159.156V466.265H161.436V467.865Z" fill="#2F4159"/>
<path d="M107.92 873H105.64L98.78 862.62V873H96.5V859.08H98.78L105.64 869.44V859.08H107.92V873ZM120.894 861.98V873H118.614V871.7C118.254 872.153 117.781 872.513 117.194 872.78C116.621 873.033 116.007 873.16 115.354 873.16C114.487 873.16 113.707 872.98 113.014 872.62C112.334 872.26 111.794 871.727 111.394 871.02C111.007 870.313 110.814 869.46 110.814 868.46V861.98H113.074V868.12C113.074 869.107 113.321 869.867 113.814 870.4C114.307 870.92 114.981 871.18 115.834 871.18C116.687 871.18 117.361 870.92 117.854 870.4C118.361 869.867 118.614 869.107 118.614 868.12V861.98H120.894ZM117.974 859.02L113.554 861.2V859.52L117.974 857.08V859.02ZM123.142 867.48C123.142 866.347 123.369 865.353 123.822 864.5C124.289 863.633 124.929 862.967 125.742 862.5C126.556 862.033 127.489 861.8 128.542 861.8C129.876 861.8 130.976 862.12 131.842 862.76C132.722 863.387 133.316 864.287 133.622 865.46H131.162C130.962 864.913 130.642 864.487 130.202 864.18C129.762 863.873 129.209 863.72 128.542 863.72C127.609 863.72 126.862 864.053 126.302 864.72C125.756 865.373 125.482 866.293 125.482 867.48C125.482 868.667 125.756 869.593 126.302 870.26C126.862 870.927 127.609 871.26 128.542 871.26C129.862 871.26 130.736 870.68 131.162 869.52H133.622C133.302 870.64 132.702 871.533 131.822 872.2C130.942 872.853 129.849 873.18 128.542 873.18C127.489 873.18 126.556 872.947 125.742 872.48C124.929 872 124.289 871.333 123.822 870.48C123.369 869.613 123.142 868.613 123.142 867.48ZM138.175 858.2V873H135.895V858.2H138.175ZM151.268 867.22C151.268 867.633 151.241 868.007 151.188 868.34H142.768C142.835 869.22 143.161 869.927 143.748 870.46C144.335 870.993 145.055 871.26 145.908 871.26C147.135 871.26 148.001 870.747 148.508 869.72H150.968C150.635 870.733 150.028 871.567 149.148 872.22C148.281 872.86 147.201 873.18 145.908 873.18C144.855 873.18 143.908 872.947 143.068 872.48C142.241 872 141.588 871.333 141.108 870.48C140.641 869.613 140.408 868.613 140.408 867.48C140.408 866.347 140.635 865.353 141.088 864.5C141.555 863.633 142.201 862.967 143.028 862.5C143.868 862.033 144.828 861.8 145.908 861.8C146.948 861.8 147.875 862.027 148.688 862.48C149.501 862.933 150.135 863.573 150.588 864.4C151.041 865.213 151.268 866.153 151.268 867.22ZM148.888 866.5C148.875 865.66 148.575 864.987 147.988 864.48C147.401 863.973 146.675 863.72 145.808 863.72C145.021 863.72 144.348 863.973 143.788 864.48C143.228 864.973 142.895 865.647 142.788 866.5H148.888ZM158.292 873.18C157.252 873.18 156.312 872.947 155.472 872.48C154.632 872 153.972 871.333 153.492 870.48C153.012 869.613 152.772 868.613 152.772 867.48C152.772 866.36 153.018 865.367 153.512 864.5C154.005 863.633 154.678 862.967 155.532 862.5C156.385 862.033 157.338 861.8 158.392 861.8C159.445 861.8 160.398 862.033 161.252 862.5C162.105 862.967 162.778 863.633 163.272 864.5C163.765 865.367 164.012 866.36 164.012 867.48C164.012 868.6 163.758 869.593 163.252 870.46C162.745 871.327 162.052 872 161.172 872.48C160.305 872.947 159.345 873.18 158.292 873.18ZM158.292 871.2C158.878 871.2 159.425 871.06 159.932 870.78C160.452 870.5 160.872 870.08 161.192 869.52C161.512 868.96 161.672 868.28 161.672 867.48C161.672 866.68 161.518 866.007 161.212 865.46C160.905 864.9 160.498 864.48 159.992 864.2C159.485 863.92 158.938 863.78 158.352 863.78C157.765 863.78 157.218 863.92 156.712 864.2C156.218 864.48 155.825 864.9 155.532 865.46C155.238 866.007 155.092 866.68 155.092 867.48C155.092 868.667 155.392 869.587 155.992 870.24C156.605 870.88 157.372 871.2 158.292 871.2ZM170.701 867.44C170.701 866.333 170.928 865.353 171.381 864.5C171.848 863.647 172.474 862.987 173.261 862.52C174.061 862.04 174.948 861.8 175.921 861.8C176.641 861.8 177.348 861.96 178.041 862.28C178.748 862.587 179.308 863 179.721 863.52V858.2H182.021V873H179.721V871.34C179.348 871.873 178.828 872.313 178.161 872.66C177.508 873.007 176.754 873.18 175.901 873.18C174.941 873.18 174.061 872.94 173.261 872.46C172.474 871.967 171.848 871.287 171.381 870.42C170.928 869.54 170.701 868.547 170.701 867.44ZM179.721 867.48C179.721 866.72 179.561 866.06 179.241 865.5C178.934 864.94 178.528 864.513 178.021 864.22C177.514 863.927 176.968 863.78 176.381 863.78C175.794 863.78 175.248 863.927 174.741 864.22C174.234 864.5 173.821 864.92 173.501 865.48C173.194 866.027 173.041 866.68 173.041 867.44C173.041 868.2 173.194 868.867 173.501 869.44C173.821 870.013 174.234 870.453 174.741 870.76C175.261 871.053 175.808 871.2 176.381 871.2C176.968 871.2 177.514 871.053 178.021 870.76C178.528 870.467 178.934 870.04 179.241 869.48C179.561 868.907 179.721 868.24 179.721 867.48ZM195.116 867.22C195.116 867.633 195.089 868.007 195.036 868.34H186.616C186.682 869.22 187.009 869.927 187.596 870.46C188.182 870.993 188.902 871.26 189.756 871.26C190.982 871.26 191.849 870.747 192.356 869.72H194.816C194.482 870.733 193.876 871.567 192.996 872.22C192.129 872.86 191.049 873.18 189.756 873.18C188.702 873.18 187.756 872.947 186.916 872.48C186.089 872 185.436 871.333 184.956 870.48C184.489 869.613 184.256 868.613 184.256 867.48C184.256 866.347 184.482 865.353 184.936 864.5C185.402 863.633 186.049 862.967 186.876 862.5C187.716 862.033 188.676 861.8 189.756 861.8C190.796 861.8 191.722 862.027 192.536 862.48C193.349 862.933 193.982 863.573 194.436 864.4C194.889 865.213 195.116 866.153 195.116 867.22ZM192.736 866.5C192.722 865.66 192.422 864.987 191.836 864.48C191.249 863.973 190.522 863.72 189.656 863.72C188.869 863.72 188.196 863.973 187.636 864.48C187.076 864.973 186.742 865.647 186.636 866.5H192.736ZM212.275 863.24C212.275 863.947 212.108 864.613 211.775 865.24C211.441 865.867 210.908 866.38 210.175 866.78C209.441 867.167 208.501 867.36 207.355 867.36H204.835V873H202.555V859.1H207.355C208.421 859.1 209.321 859.287 210.055 859.66C210.801 860.02 211.355 860.513 211.715 861.14C212.088 861.767 212.275 862.467 212.275 863.24ZM207.355 865.5C208.221 865.5 208.868 865.307 209.295 864.92C209.721 864.52 209.935 863.96 209.935 863.24C209.935 861.72 209.075 860.96 207.355 860.96H204.835V865.5H207.355ZM226.429 859.1L221.209 873H218.569L213.329 859.1H215.769L219.889 870.66L224.029 859.1H226.429ZM227.576 866.02C227.576 864.66 227.889 863.44 228.516 862.36C229.156 861.28 230.016 860.44 231.096 859.84C232.189 859.227 233.383 858.92 234.676 858.92C236.156 858.92 237.469 859.287 238.616 860.02C239.776 860.74 240.616 861.767 241.136 863.1H238.396C238.036 862.367 237.536 861.82 236.896 861.46C236.256 861.1 235.516 860.92 234.676 860.92C233.756 860.92 232.936 861.127 232.216 861.54C231.496 861.953 230.929 862.547 230.516 863.32C230.116 864.093 229.916 864.993 229.916 866.02C229.916 867.047 230.116 867.947 230.516 868.72C230.929 869.493 231.496 870.093 232.216 870.52C232.936 870.933 233.756 871.14 234.676 871.14C235.516 871.14 236.256 870.96 236.896 870.6C237.536 870.24 238.036 869.693 238.396 868.96H241.136C240.616 870.293 239.776 871.32 238.616 872.04C237.469 872.76 236.156 873.12 234.676 873.12C233.369 873.12 232.176 872.82 231.096 872.22C230.016 871.607 229.156 870.76 228.516 869.68C227.889 868.6 227.576 867.38 227.576 866.02Z" fill="#2F4159"/>
<path d="M576.183 221.947H430.469H368.719V434.674H489.681V482.93" stroke="#2F4159" stroke-width="0.75" stroke-miterlimit="10"/>
<path d="M576.182 223.41C576.99 223.41 577.645 222.755 577.645 221.947C577.645 221.139 576.99 220.484 576.182 220.484C575.375 220.484 574.72 221.139 574.72 221.947C574.72 222.755 575.375 223.41 576.182 223.41Z" fill="#2F4159" stroke="#2F4159" stroke-miterlimit="10"/>
<path d="M489.681 484.392C490.489 484.392 491.144 483.737 491.144 482.93C491.144 482.122 490.489 481.467 489.681 481.467C488.873 481.467 488.218 482.122 488.218 482.93C488.218 483.737 488.873 484.392 489.681 484.392Z" fill="#2F4159" stroke="#2F4159" stroke-miterlimit="10"/>
<path d="M446.071 608.552C446.879 608.552 447.534 607.897 447.534 607.09C447.534 606.282 446.879 605.627 446.071 605.627C445.264 605.627 444.609 606.282 444.609 607.09C444.609 607.897 445.264 608.552 446.071 608.552Z" fill="#2F4159" stroke="#2F4159" stroke-miterlimit="10"/>
<path d="M169.458 840.81C170.266 840.81 170.921 840.155 170.921 839.348C170.921 838.54 170.266 837.885 169.458 837.885C168.65 837.885 167.995 838.54 167.995 839.348C167.995 840.155 168.65 840.81 169.458 840.81Z" fill="#2F4159" stroke="#2F4159" stroke-miterlimit="10"/>
<path d="M526.536 753.147C527.344 753.147 527.999 752.492 527.999 751.684C527.999 750.877 527.344 750.222 526.536 750.222C525.728 750.222 525.073 750.877 525.073 751.684C525.073 752.492 525.728 753.147 526.536 753.147Z" fill="white" stroke="white" stroke-miterlimit="10"/>
<path d="M83.1571 490.932C83.965 490.932 84.6199 490.277 84.6199 489.47C84.6199 488.662 83.965 488.007 83.1571 488.007C82.3493 488.007 81.6944 488.662 81.6944 489.47C81.6944 490.277 82.3493 490.932 83.1571 490.932Z" fill="#2F4159" stroke="#2F4159" stroke-miterlimit="10"/>
<path d="M446.072 607.089V548.279H83.1572V489.469" stroke="#2F4159" stroke-width="0.75" stroke-miterlimit="10"/>
<path d="M168.999 751.14V839.348H170.075V752.215H366.324L363.011 751.14H168.999Z" fill="#2F4159"/>
<path d="M526.536 751.14H363.012L366.324 752.215H526.536V751.14Z" fill="white"/>
</svg>
