<svg width="328" height="244" viewBox="0 0 328 244" fill="none" xmlns="http://www.w3.org/2000/svg">
<g clip-path="url(#clip0_2739_6348)">
<mask id="mask0_2739_6348" style="mask-type:luminance" maskUnits="userSpaceOnUse" x="66" y="43" width="262" height="203">
<path d="M328 43.7793H66.7227V245.158H328V43.7793Z" fill="white"/>
</mask>
<g mask="url(#mask0_2739_6348)">
<path d="M73.145 181.767L252.926 240.333L348.269 90.5126L265.866 78.5977L73.145 181.767Z" fill="#3D3D3A"/>
<path d="M76.6344 153.247L257.44 206.537L351.758 76.4646L266.543 67.6855L76.6344 153.247Z" fill="#A36E51"/>
<path d="M76.6344 153.248V154.44L257.44 208.24V206.538L76.6344 153.248Z" fill="#E3B38B"/>
<path d="M351.758 76.4668V78.1329L257.44 208.241V206.539L351.758 76.4668Z" fill="#B2A38B"/>
<g opacity="0.7">
<path d="M83.6982 129.16L264.844 172.064L348.269 69.4023L265.695 61.6543L82.8472 129.16" fill="#DBDDDC"/>
</g>
<g opacity="0.58">
<path d="M105.662 106.004L274.55 137.968L349.12 59.6963L266.291 53.3984L105.662 106.004Z" fill="#C2DDE7"/>
</g>
</g>
<path d="M213.784 76.814V16.5684H231.794" stroke="#2F4159" stroke-width="0.75" stroke-miterlimit="10"/>
<path d="M213.784 77.1482C213.968 77.1482 214.117 76.9988 214.117 76.8144C214.117 76.63 213.968 76.4805 213.784 76.4805C213.599 76.4805 213.45 76.63 213.45 76.8144C213.45 76.9988 213.599 77.1482 213.784 77.1482Z" fill="#2F4159" stroke="#2F4159" stroke-miterlimit="10"/>
<path d="M231.794 16.9041C231.978 16.9041 232.127 16.7546 232.127 16.5702C232.127 16.3858 231.978 16.2363 231.794 16.2363C231.609 16.2363 231.46 16.3858 231.46 16.5702C231.46 16.7546 231.609 16.9041 231.794 16.9041Z" fill="#2F4159" stroke="#2F4159" stroke-miterlimit="10"/>
<path d="M234.444 7.812C234.444 6.996 234.632 6.264 235.008 5.616C235.392 4.968 235.908 4.464 236.556 4.104C237.212 3.736 237.928 3.552 238.704 3.552C239.592 3.552 240.38 3.772 241.068 4.212C241.764 4.644 242.268 5.26 242.58 6.06H240.936C240.72 5.62 240.42 5.292 240.036 5.076C239.652 4.86 239.208 4.752 238.704 4.752C238.152 4.752 237.66 4.876 237.228 5.124C236.796 5.372 236.456 5.728 236.208 6.192C235.968 6.656 235.848 7.196 235.848 7.812C235.848 8.428 235.968 8.968 236.208 9.432C236.456 9.896 236.796 10.256 237.228 10.512C237.66 10.76 238.152 10.884 238.704 10.884C239.208 10.884 239.652 10.776 240.036 10.56C240.42 10.344 240.72 10.016 240.936 9.576H242.58C242.268 10.376 241.764 10.992 241.068 11.424C240.38 11.856 239.592 12.072 238.704 12.072C237.92 12.072 237.204 11.892 236.556 11.532C235.908 11.164 235.392 10.656 235.008 10.008C234.632 9.36 234.444 8.628 234.444 7.812ZM243.725 8.664C243.725 8 243.861 7.412 244.133 6.9C244.413 6.388 244.789 5.992 245.261 5.712C245.741 5.424 246.269 5.28 246.845 5.28C247.365 5.28 247.817 5.384 248.201 5.592C248.593 5.792 248.905 6.044 249.137 6.348V5.388H250.517V12H249.137V11.016C248.905 11.328 248.589 11.588 248.189 11.796C247.789 12.004 247.333 12.108 246.821 12.108C246.253 12.108 245.733 11.964 245.261 11.676C244.789 11.38 244.413 10.972 244.133 10.452C243.861 9.924 243.725 9.328 243.725 8.664ZM249.137 8.688C249.137 8.232 249.041 7.836 248.849 7.5C248.665 7.164 248.421 6.908 248.117 6.732C247.813 6.556 247.485 6.468 247.133 6.468C246.781 6.468 246.453 6.556 246.149 6.732C245.845 6.9 245.597 7.152 245.405 7.488C245.221 7.816 245.129 8.208 245.129 8.664C245.129 9.12 245.221 9.52 245.405 9.864C245.597 10.208 245.845 10.472 246.149 10.656C246.461 10.832 246.789 10.92 247.133 10.92C247.485 10.92 247.813 10.832 248.117 10.656C248.421 10.48 248.665 10.224 248.849 9.888C249.041 9.544 249.137 9.144 249.137 8.688ZM253.682 6.36C253.914 6.056 254.23 5.8 254.63 5.592C255.03 5.384 255.482 5.28 255.986 5.28C256.562 5.28 257.086 5.424 257.558 5.712C258.038 5.992 258.414 6.388 258.686 6.9C258.958 7.412 259.094 8 259.094 8.664C259.094 9.328 258.958 9.924 258.686 10.452C258.414 10.972 258.038 11.38 257.558 11.676C257.086 11.964 256.562 12.108 255.986 12.108C255.482 12.108 255.034 12.008 254.642 11.808C254.25 11.6 253.93 11.344 253.682 11.04V15.144H252.314V5.388H253.682V6.36ZM257.702 8.664C257.702 8.208 257.606 7.816 257.414 7.488C257.23 7.152 256.982 6.9 256.67 6.732C256.366 6.556 256.038 6.468 255.686 6.468C255.342 6.468 255.014 6.556 254.702 6.732C254.398 6.908 254.15 7.164 253.958 7.5C253.774 7.836 253.682 8.232 253.682 8.688C253.682 9.144 253.774 9.544 253.958 9.888C254.15 10.224 254.398 10.48 254.702 10.656C255.014 10.832 255.342 10.92 255.686 10.92C256.038 10.92 256.366 10.832 256.67 10.656C256.982 10.472 257.23 10.208 257.414 9.864C257.606 9.52 257.702 9.12 257.702 8.664ZM259.991 8.664C259.991 8 260.127 7.412 260.399 6.9C260.679 6.388 261.055 5.992 261.527 5.712C262.007 5.424 262.535 5.28 263.111 5.28C263.631 5.28 264.083 5.384 264.467 5.592C264.859 5.792 265.171 6.044 265.403 6.348V5.388H266.783V12H265.403V11.016C265.171 11.328 264.855 11.588 264.455 11.796C264.055 12.004 263.599 12.108 263.087 12.108C262.519 12.108 261.999 11.964 261.527 11.676C261.055 11.38 260.679 10.972 260.399 10.452C260.127 9.924 259.991 9.328 259.991 8.664ZM265.403 8.688C265.403 8.232 265.307 7.836 265.115 7.5C264.931 7.164 264.687 6.908 264.383 6.732C264.079 6.556 263.751 6.468 263.399 6.468C263.047 6.468 262.719 6.556 262.415 6.732C262.111 6.9 261.863 7.152 261.671 7.488C261.487 7.816 261.395 8.208 261.395 8.664C261.395 9.12 261.487 9.52 261.671 9.864C261.863 10.208 262.111 10.472 262.415 10.656C262.727 10.832 263.055 10.92 263.399 10.92C263.751 10.92 264.079 10.832 264.383 10.656C264.687 10.48 264.931 10.224 265.115 9.888C265.307 9.544 265.403 9.144 265.403 8.688ZM271.241 8.664C271.241 8 271.377 7.412 271.649 6.9C271.929 6.388 272.305 5.992 272.777 5.712C273.257 5.424 273.789 5.28 274.373 5.28C274.805 5.28 275.229 5.376 275.645 5.568C276.069 5.752 276.405 6 276.653 6.312V3.12H278.033V12H276.653V11.004C276.429 11.324 276.117 11.588 275.717 11.796C275.325 12.004 274.873 12.108 274.361 12.108C273.785 12.108 273.257 11.964 272.777 11.676C272.305 11.38 271.929 10.972 271.649 10.452C271.377 9.924 271.241 9.328 271.241 8.664ZM276.653 8.688C276.653 8.232 276.557 7.836 276.365 7.5C276.181 7.164 275.937 6.908 275.633 6.732C275.329 6.556 275.001 6.468 274.649 6.468C274.297 6.468 273.969 6.556 273.665 6.732C273.361 6.9 273.113 7.152 272.921 7.488C272.737 7.816 272.645 8.208 272.645 8.664C272.645 9.12 272.737 9.52 272.921 9.864C273.113 10.208 273.361 10.472 273.665 10.656C273.977 10.832 274.305 10.92 274.649 10.92C275.001 10.92 275.329 10.832 275.633 10.656C275.937 10.48 276.181 10.224 276.365 9.888C276.557 9.544 276.653 9.144 276.653 8.688ZM285.89 8.532C285.89 8.78 285.874 9.004 285.842 9.204H280.79C280.83 9.732 281.026 10.156 281.378 10.476C281.73 10.796 282.162 10.956 282.674 10.956C283.41 10.956 283.93 10.648 284.234 10.032H285.71C285.51 10.64 285.146 11.14 284.618 11.532C284.098 11.916 283.45 12.108 282.674 12.108C282.042 12.108 281.474 11.968 280.97 11.688C280.474 11.4 280.082 11 279.794 10.488C279.514 9.968 279.374 9.368 279.374 8.688C279.374 8.008 279.51 7.412 279.782 6.9C280.062 6.38 280.45 5.98 280.946 5.7C281.45 5.42 282.026 5.28 282.674 5.28C283.298 5.28 283.854 5.416 284.342 5.688C284.83 5.96 285.21 6.344 285.482 6.84C285.754 7.328 285.89 7.892 285.89 8.532ZM284.462 8.1C284.454 7.596 284.274 7.192 283.922 6.888C283.57 6.584 283.134 6.432 282.614 6.432C282.142 6.432 281.738 6.584 281.402 6.888C281.066 7.184 280.866 7.588 280.802 8.1H284.462ZM236.268 22.36C236.5 22.056 236.816 21.8 237.216 21.592C237.616 21.384 238.068 21.28 238.572 21.28C239.148 21.28 239.672 21.424 240.144 21.712C240.624 21.992 241 22.388 241.272 22.9C241.544 23.412 241.68 24 241.68 24.664C241.68 25.328 241.544 25.924 241.272 26.452C241 26.972 240.624 27.38 240.144 27.676C239.672 27.964 239.148 28.108 238.572 28.108C238.068 28.108 237.62 28.008 237.228 27.808C236.836 27.6 236.516 27.344 236.268 27.04V31.144H234.9V21.388H236.268V22.36ZM240.288 24.664C240.288 24.208 240.192 23.816 240 23.488C239.816 23.152 239.568 22.9 239.256 22.732C238.952 22.556 238.624 22.468 238.272 22.468C237.928 22.468 237.6 22.556 237.288 22.732C236.984 22.908 236.736 23.164 236.544 23.5C236.36 23.836 236.268 24.232 236.268 24.688C236.268 25.144 236.36 25.544 236.544 25.888C236.736 26.224 236.984 26.48 237.288 26.656C237.6 26.832 237.928 26.92 238.272 26.92C238.624 26.92 238.952 26.832 239.256 26.656C239.568 26.472 239.816 26.208 240 25.864C240.192 25.52 240.288 25.12 240.288 24.664ZM244.401 22.348C244.601 22.012 244.865 21.752 245.193 21.568C245.529 21.376 245.925 21.28 246.381 21.28V22.696H246.033C245.497 22.696 245.089 22.832 244.809 23.104C244.537 23.376 244.401 23.848 244.401 24.52V28H243.033V21.388H244.401V22.348ZM250.506 28.108C249.882 28.108 249.318 27.968 248.814 27.688C248.31 27.4 247.914 27 247.626 26.488C247.338 25.968 247.194 25.368 247.194 24.688C247.194 24.016 247.342 23.42 247.638 22.9C247.934 22.38 248.338 21.98 248.85 21.7C249.362 21.42 249.934 21.28 250.566 21.28C251.198 21.28 251.77 21.42 252.282 21.7C252.794 21.98 253.198 22.38 253.494 22.9C253.79 23.42 253.938 24.016 253.938 24.688C253.938 25.36 253.786 25.956 253.482 26.476C253.178 26.996 252.762 27.4 252.234 27.688C251.714 27.968 251.138 28.108 250.506 28.108ZM250.506 26.92C250.858 26.92 251.186 26.836 251.49 26.668C251.802 26.5 252.054 26.248 252.246 25.912C252.438 25.576 252.534 25.168 252.534 24.688C252.534 24.208 252.442 23.804 252.258 23.476C252.074 23.14 251.83 22.888 251.526 22.72C251.222 22.552 250.894 22.468 250.542 22.468C250.19 22.468 249.862 22.552 249.558 22.72C249.262 22.888 249.026 23.14 248.85 23.476C248.674 23.804 248.586 24.208 248.586 24.688C248.586 25.4 248.766 25.952 249.126 26.344C249.494 26.728 249.954 26.92 250.506 26.92ZM256.887 22.504V26.164C256.887 26.412 256.943 26.592 257.055 26.704C257.175 26.808 257.375 26.86 257.655 26.86H258.495V28H257.415C256.799 28 256.327 27.856 255.999 27.568C255.671 27.28 255.507 26.812 255.507 26.164V22.504H254.727V21.388H255.507V19.744H256.887V21.388H258.495V22.504H256.887ZM265.815 24.532C265.815 24.78 265.799 25.004 265.767 25.204H260.715C260.755 25.732 260.951 26.156 261.303 26.476C261.655 26.796 262.087 26.956 262.599 26.956C263.335 26.956 263.855 26.648 264.159 26.032H265.635C265.435 26.64 265.071 27.14 264.543 27.532C264.023 27.916 263.375 28.108 262.599 28.108C261.967 28.108 261.399 27.968 260.895 27.688C260.399 27.4 260.007 27 259.719 26.488C259.439 25.968 259.299 25.368 259.299 24.688C259.299 24.008 259.435 23.412 259.707 22.9C259.987 22.38 260.375 21.98 260.871 21.7C261.375 21.42 261.951 21.28 262.599 21.28C263.223 21.28 263.779 21.416 264.267 21.688C264.755 21.96 265.135 22.344 265.407 22.84C265.679 23.328 265.815 23.892 265.815 24.532ZM264.387 24.1C264.379 23.596 264.199 23.192 263.847 22.888C263.495 22.584 263.059 22.432 262.539 22.432C262.067 22.432 261.663 22.584 261.327 22.888C260.991 23.184 260.791 23.588 260.727 24.1H264.387ZM266.706 24.688C266.706 24.008 266.842 23.412 267.114 22.9C267.394 22.38 267.778 21.98 268.266 21.7C268.754 21.42 269.314 21.28 269.946 21.28C270.746 21.28 271.406 21.472 271.926 21.856C272.454 22.232 272.81 22.772 272.994 23.476H271.518C271.398 23.148 271.206 22.892 270.942 22.708C270.678 22.524 270.346 22.432 269.946 22.432C269.386 22.432 268.938 22.632 268.602 23.032C268.274 23.424 268.11 23.976 268.11 24.688C268.11 25.4 268.274 25.956 268.602 26.356C268.938 26.756 269.386 26.956 269.946 26.956C270.738 26.956 271.262 26.608 271.518 25.912H272.994C272.802 26.584 272.442 27.12 271.914 27.52C271.386 27.912 270.73 28.108 269.946 28.108C269.314 28.108 268.754 27.968 268.266 27.688C267.778 27.4 267.394 27 267.114 26.488C266.842 25.968 266.706 25.368 266.706 24.688ZM273.901 24.688C273.901 24.008 274.037 23.412 274.309 22.9C274.589 22.38 274.973 21.98 275.461 21.7C275.949 21.42 276.509 21.28 277.141 21.28C277.941 21.28 278.601 21.472 279.121 21.856C279.649 22.232 280.005 22.772 280.189 23.476H278.713C278.593 23.148 278.401 22.892 278.137 22.708C277.873 22.524 277.541 22.432 277.141 22.432C276.581 22.432 276.133 22.632 275.797 23.032C275.469 23.424 275.305 23.976 275.305 24.688C275.305 25.4 275.469 25.956 275.797 26.356C276.133 26.756 276.581 26.956 277.141 26.956C277.933 26.956 278.457 26.608 278.713 25.912H280.189C279.997 26.584 279.637 27.12 279.109 27.52C278.581 27.912 277.925 28.108 277.141 28.108C276.509 28.108 275.949 27.968 275.461 27.688C274.973 27.4 274.589 27 274.309 26.488C274.037 25.968 273.901 25.368 273.901 24.688ZM282.248 20.512C282 20.512 281.792 20.428 281.624 20.26C281.456 20.092 281.372 19.884 281.372 19.636C281.372 19.388 281.456 19.18 281.624 19.012C281.792 18.844 282 18.76 282.248 18.76C282.488 18.76 282.692 18.844 282.86 19.012C283.028 19.18 283.112 19.388 283.112 19.636C283.112 19.884 283.028 20.092 282.86 20.26C282.692 20.428 282.488 20.512 282.248 20.512ZM282.92 21.388V28H281.552V21.388H282.92ZM287.584 28.108C286.96 28.108 286.396 27.968 285.892 27.688C285.388 27.4 284.992 27 284.704 26.488C284.416 25.968 284.272 25.368 284.272 24.688C284.272 24.016 284.42 23.42 284.716 22.9C285.012 22.38 285.416 21.98 285.928 21.7C286.44 21.42 287.012 21.28 287.644 21.28C288.276 21.28 288.848 21.42 289.36 21.7C289.872 21.98 290.276 22.38 290.572 22.9C290.868 23.42 291.016 24.016 291.016 24.688C291.016 25.36 290.864 25.956 290.56 26.476C290.256 26.996 289.84 27.4 289.312 27.688C288.792 27.968 288.216 28.108 287.584 28.108ZM287.584 26.92C287.936 26.92 288.264 26.836 288.568 26.668C288.88 26.5 289.132 26.248 289.324 25.912C289.516 25.576 289.612 25.168 289.612 24.688C289.612 24.208 289.52 23.804 289.336 23.476C289.152 23.14 288.908 22.888 288.604 22.72C288.3 22.552 287.972 22.468 287.62 22.468C287.268 22.468 286.94 22.552 286.636 22.72C286.34 22.888 286.104 23.14 285.928 23.476C285.752 23.804 285.664 24.208 285.664 24.688C285.664 25.4 285.844 25.952 286.204 26.344C286.572 26.728 287.032 26.92 287.584 26.92ZM288.88 19.504L286.228 20.812V19.804L288.88 18.34V19.504ZM295.705 21.28C296.225 21.28 296.689 21.388 297.097 21.604C297.513 21.82 297.837 22.14 298.069 22.564C298.301 22.988 298.417 23.5 298.417 24.1V28H297.061V24.304C297.061 23.712 296.913 23.26 296.617 22.948C296.321 22.628 295.917 22.468 295.405 22.468C294.893 22.468 294.485 22.628 294.181 22.948C293.885 23.26 293.737 23.712 293.737 24.304V28H292.369V21.388H293.737V22.144C293.961 21.872 294.245 21.66 294.589 21.508C294.941 21.356 295.313 21.28 295.705 21.28ZM304.635 19.66V24.976C304.635 25.608 304.799 26.084 305.127 26.404C305.463 26.724 305.927 26.884 306.519 26.884C307.119 26.884 307.583 26.724 307.911 26.404C308.247 26.084 308.415 25.608 308.415 24.976V19.66H309.783V24.952C309.783 25.632 309.635 26.208 309.339 26.68C309.043 27.152 308.647 27.504 308.151 27.736C307.655 27.968 307.107 28.084 306.507 28.084C305.907 28.084 305.359 27.968 304.863 27.736C304.375 27.504 303.987 27.152 303.699 26.68C303.411 26.208 303.267 25.632 303.267 24.952V19.66H304.635ZM318.752 19.66L315.62 28H314.036L310.892 19.66H312.356L314.828 26.596L317.312 19.66H318.752Z" fill="#2F4159"/>
<path d="M135.444 55.812C135.444 54.996 135.632 54.264 136.008 53.616C136.392 52.968 136.908 52.464 137.556 52.104C138.212 51.736 138.928 51.552 139.704 51.552C140.592 51.552 141.38 51.772 142.068 52.212C142.764 52.644 143.268 53.26 143.58 54.06H141.936C141.72 53.62 141.42 53.292 141.036 53.076C140.652 52.86 140.208 52.752 139.704 52.752C139.152 52.752 138.66 52.876 138.228 53.124C137.796 53.372 137.456 53.728 137.208 54.192C136.968 54.656 136.848 55.196 136.848 55.812C136.848 56.428 136.968 56.968 137.208 57.432C137.456 57.896 137.796 58.256 138.228 58.512C138.66 58.76 139.152 58.884 139.704 58.884C140.208 58.884 140.652 58.776 141.036 58.56C141.42 58.344 141.72 58.016 141.936 57.576H143.58C143.268 58.376 142.764 58.992 142.068 59.424C141.38 59.856 140.592 60.072 139.704 60.072C138.92 60.072 138.204 59.892 137.556 59.532C136.908 59.164 136.392 58.656 136.008 58.008C135.632 57.36 135.444 56.628 135.444 55.812ZM144.725 56.664C144.725 56 144.861 55.412 145.133 54.9C145.413 54.388 145.789 53.992 146.261 53.712C146.741 53.424 147.269 53.28 147.845 53.28C148.365 53.28 148.817 53.384 149.201 53.592C149.593 53.792 149.905 54.044 150.137 54.348V53.388H151.517V60H150.137V59.016C149.905 59.328 149.589 59.588 149.189 59.796C148.789 60.004 148.333 60.108 147.821 60.108C147.253 60.108 146.733 59.964 146.261 59.676C145.789 59.38 145.413 58.972 145.133 58.452C144.861 57.924 144.725 57.328 144.725 56.664ZM150.137 56.688C150.137 56.232 150.041 55.836 149.849 55.5C149.665 55.164 149.421 54.908 149.117 54.732C148.813 54.556 148.485 54.468 148.133 54.468C147.781 54.468 147.453 54.556 147.149 54.732C146.845 54.9 146.597 55.152 146.405 55.488C146.221 55.816 146.129 56.208 146.129 56.664C146.129 57.12 146.221 57.52 146.405 57.864C146.597 58.208 146.845 58.472 147.149 58.656C147.461 58.832 147.789 58.92 148.133 58.92C148.485 58.92 148.813 58.832 149.117 58.656C149.421 58.48 149.665 58.224 149.849 57.888C150.041 57.544 150.137 57.144 150.137 56.688ZM154.682 54.36C154.914 54.056 155.23 53.8 155.63 53.592C156.03 53.384 156.482 53.28 156.986 53.28C157.562 53.28 158.086 53.424 158.558 53.712C159.038 53.992 159.414 54.388 159.686 54.9C159.958 55.412 160.094 56 160.094 56.664C160.094 57.328 159.958 57.924 159.686 58.452C159.414 58.972 159.038 59.38 158.558 59.676C158.086 59.964 157.562 60.108 156.986 60.108C156.482 60.108 156.034 60.008 155.642 59.808C155.25 59.6 154.93 59.344 154.682 59.04V63.144H153.314V53.388H154.682V54.36ZM158.702 56.664C158.702 56.208 158.606 55.816 158.414 55.488C158.23 55.152 157.982 54.9 157.67 54.732C157.366 54.556 157.038 54.468 156.686 54.468C156.342 54.468 156.014 54.556 155.702 54.732C155.398 54.908 155.15 55.164 154.958 55.5C154.774 55.836 154.682 56.232 154.682 56.688C154.682 57.144 154.774 57.544 154.958 57.888C155.15 58.224 155.398 58.48 155.702 58.656C156.014 58.832 156.342 58.92 156.686 58.92C157.038 58.92 157.366 58.832 157.67 58.656C157.982 58.472 158.23 58.208 158.414 57.864C158.606 57.52 158.702 57.12 158.702 56.664ZM160.991 56.664C160.991 56 161.127 55.412 161.399 54.9C161.679 54.388 162.055 53.992 162.527 53.712C163.007 53.424 163.535 53.28 164.111 53.28C164.631 53.28 165.083 53.384 165.467 53.592C165.859 53.792 166.171 54.044 166.403 54.348V53.388H167.783V60H166.403V59.016C166.171 59.328 165.855 59.588 165.455 59.796C165.055 60.004 164.599 60.108 164.087 60.108C163.519 60.108 162.999 59.964 162.527 59.676C162.055 59.38 161.679 58.972 161.399 58.452C161.127 57.924 160.991 57.328 160.991 56.664ZM166.403 56.688C166.403 56.232 166.307 55.836 166.115 55.5C165.931 55.164 165.687 54.908 165.383 54.732C165.079 54.556 164.751 54.468 164.399 54.468C164.047 54.468 163.719 54.556 163.415 54.732C163.111 54.9 162.863 55.152 162.671 55.488C162.487 55.816 162.395 56.208 162.395 56.664C162.395 57.12 162.487 57.52 162.671 57.864C162.863 58.208 163.111 58.472 163.415 58.656C163.727 58.832 164.055 58.92 164.399 58.92C164.751 58.92 165.079 58.832 165.383 58.656C165.687 58.48 165.931 58.224 166.115 57.888C166.307 57.544 166.403 57.144 166.403 56.688ZM172.241 56.664C172.241 56 172.377 55.412 172.649 54.9C172.929 54.388 173.305 53.992 173.777 53.712C174.257 53.424 174.789 53.28 175.373 53.28C175.805 53.28 176.229 53.376 176.645 53.568C177.069 53.752 177.405 54 177.653 54.312V51.12H179.033V60H177.653V59.004C177.429 59.324 177.117 59.588 176.717 59.796C176.325 60.004 175.873 60.108 175.361 60.108C174.785 60.108 174.257 59.964 173.777 59.676C173.305 59.38 172.929 58.972 172.649 58.452C172.377 57.924 172.241 57.328 172.241 56.664ZM177.653 56.688C177.653 56.232 177.557 55.836 177.365 55.5C177.181 55.164 176.937 54.908 176.633 54.732C176.329 54.556 176.001 54.468 175.649 54.468C175.297 54.468 174.969 54.556 174.665 54.732C174.361 54.9 174.113 55.152 173.921 55.488C173.737 55.816 173.645 56.208 173.645 56.664C173.645 57.12 173.737 57.52 173.921 57.864C174.113 58.208 174.361 58.472 174.665 58.656C174.977 58.832 175.305 58.92 175.649 58.92C176.001 58.92 176.329 58.832 176.633 58.656C176.937 58.48 177.181 58.224 177.365 57.888C177.557 57.544 177.653 57.144 177.653 56.688ZM186.89 56.532C186.89 56.78 186.874 57.004 186.842 57.204H181.79C181.83 57.732 182.026 58.156 182.378 58.476C182.73 58.796 183.162 58.956 183.674 58.956C184.41 58.956 184.93 58.648 185.234 58.032H186.71C186.51 58.64 186.146 59.14 185.618 59.532C185.098 59.916 184.45 60.108 183.674 60.108C183.042 60.108 182.474 59.968 181.97 59.688C181.474 59.4 181.082 59 180.794 58.488C180.514 57.968 180.374 57.368 180.374 56.688C180.374 56.008 180.51 55.412 180.782 54.9C181.062 54.38 181.45 53.98 181.946 53.7C182.45 53.42 183.026 53.28 183.674 53.28C184.298 53.28 184.854 53.416 185.342 53.688C185.83 53.96 186.21 54.344 186.482 54.84C186.754 55.328 186.89 55.892 186.89 56.532ZM185.462 56.1C185.454 55.596 185.274 55.192 184.922 54.888C184.57 54.584 184.134 54.432 183.614 54.432C183.142 54.432 182.738 54.584 182.402 54.888C182.066 55.184 181.866 55.588 181.802 56.1H185.462ZM135.444 72.664C135.444 72 135.58 71.412 135.852 70.9C136.132 70.388 136.508 69.992 136.98 69.712C137.46 69.424 137.992 69.28 138.576 69.28C139.008 69.28 139.432 69.376 139.848 69.568C140.272 69.752 140.608 70 140.856 70.312V67.12H142.236V76H140.856V75.004C140.632 75.324 140.32 75.588 139.92 75.796C139.528 76.004 139.076 76.108 138.564 76.108C137.988 76.108 137.46 75.964 136.98 75.676C136.508 75.38 136.132 74.972 135.852 74.452C135.58 73.924 135.444 73.328 135.444 72.664ZM140.856 72.688C140.856 72.232 140.76 71.836 140.568 71.5C140.384 71.164 140.14 70.908 139.836 70.732C139.532 70.556 139.204 70.468 138.852 70.468C138.5 70.468 138.172 70.556 137.868 70.732C137.564 70.9 137.316 71.152 137.124 71.488C136.94 71.816 136.848 72.208 136.848 72.664C136.848 73.12 136.94 73.52 137.124 73.864C137.316 74.208 137.564 74.472 137.868 74.656C138.18 74.832 138.508 74.92 138.852 74.92C139.204 74.92 139.532 74.832 139.836 74.656C140.14 74.48 140.384 74.224 140.568 73.888C140.76 73.544 140.856 73.144 140.856 72.688ZM150.093 72.532C150.093 72.78 150.077 73.004 150.045 73.204H144.993C145.033 73.732 145.229 74.156 145.581 74.476C145.933 74.796 146.365 74.956 146.877 74.956C147.613 74.956 148.133 74.648 148.437 74.032H149.913C149.713 74.64 149.349 75.14 148.821 75.532C148.301 75.916 147.653 76.108 146.877 76.108C146.245 76.108 145.677 75.968 145.173 75.688C144.677 75.4 144.285 75 143.997 74.488C143.717 73.968 143.577 73.368 143.577 72.688C143.577 72.008 143.713 71.412 143.985 70.9C144.265 70.38 144.653 69.98 145.149 69.7C145.653 69.42 146.229 69.28 146.877 69.28C147.501 69.28 148.057 69.416 148.545 69.688C149.033 69.96 149.413 70.344 149.685 70.84C149.957 71.328 150.093 71.892 150.093 72.532ZM148.665 72.1C148.657 71.596 148.477 71.192 148.125 70.888C147.773 70.584 147.337 70.432 146.817 70.432C146.345 70.432 145.941 70.584 145.605 70.888C145.269 71.184 145.069 71.588 145.005 72.1H148.665ZM153.839 76.108C153.319 76.108 152.851 76.016 152.435 75.832C152.027 75.64 151.703 75.384 151.463 75.064C151.223 74.736 151.095 74.372 151.079 73.972H152.495C152.519 74.252 152.651 74.488 152.891 74.68C153.139 74.864 153.447 74.956 153.815 74.956C154.199 74.956 154.495 74.884 154.703 74.74C154.919 74.588 155.027 74.396 155.027 74.164C155.027 73.916 154.907 73.732 154.667 73.612C154.435 73.492 154.063 73.36 153.551 73.216C153.055 73.08 152.651 72.948 152.339 72.82C152.027 72.692 151.755 72.496 151.523 72.232C151.299 71.968 151.187 71.62 151.187 71.188C151.187 70.836 151.291 70.516 151.499 70.228C151.707 69.932 152.003 69.7 152.387 69.532C152.779 69.364 153.227 69.28 153.731 69.28C154.483 69.28 155.087 69.472 155.543 69.856C156.007 70.232 156.255 70.748 156.287 71.404H154.919C154.895 71.108 154.775 70.872 154.559 70.696C154.343 70.52 154.051 70.432 153.683 70.432C153.323 70.432 153.047 70.5 152.855 70.636C152.663 70.772 152.567 70.952 152.567 71.176C152.567 71.352 152.631 71.5 152.759 71.62C152.887 71.74 153.043 71.836 153.227 71.908C153.411 71.972 153.683 72.056 154.043 72.16C154.523 72.288 154.915 72.42 155.219 72.556C155.531 72.684 155.799 72.876 156.023 73.132C156.247 73.388 156.363 73.728 156.371 74.152C156.371 74.528 156.267 74.864 156.059 75.16C155.851 75.456 155.555 75.688 155.171 75.856C154.795 76.024 154.351 76.108 153.839 76.108ZM160.513 69.28C161.025 69.28 161.477 69.384 161.869 69.592C162.269 69.792 162.581 70.044 162.805 70.348V69.388H164.185V76.108C164.185 76.716 164.057 77.256 163.801 77.728C163.545 78.208 163.173 78.584 162.685 78.856C162.205 79.128 161.629 79.264 160.957 79.264C160.061 79.264 159.317 79.052 158.725 78.628C158.133 78.212 157.797 77.644 157.717 76.924H159.073C159.177 77.268 159.397 77.544 159.733 77.752C160.077 77.968 160.485 78.076 160.957 78.076C161.509 78.076 161.953 77.908 162.289 77.572C162.633 77.236 162.805 76.748 162.805 76.108V75.004C162.573 75.316 162.257 75.58 161.857 75.796C161.465 76.004 161.017 76.108 160.513 76.108C159.937 76.108 159.409 75.964 158.929 75.676C158.457 75.38 158.081 74.972 157.801 74.452C157.529 73.924 157.393 73.328 157.393 72.664C157.393 72 157.529 71.412 157.801 70.9C158.081 70.388 158.457 69.992 158.929 69.712C159.409 69.424 159.937 69.28 160.513 69.28ZM162.805 72.688C162.805 72.232 162.709 71.836 162.517 71.5C162.333 71.164 162.089 70.908 161.785 70.732C161.481 70.556 161.153 70.468 160.801 70.468C160.449 70.468 160.121 70.556 159.817 70.732C159.513 70.9 159.265 71.152 159.073 71.488C158.889 71.816 158.797 72.208 158.797 72.664C158.797 73.12 158.889 73.52 159.073 73.864C159.265 74.208 159.513 74.472 159.817 74.656C160.129 74.832 160.457 74.92 160.801 74.92C161.153 74.92 161.481 74.832 161.785 74.656C162.089 74.48 162.333 74.224 162.517 73.888C162.709 73.544 162.805 73.144 162.805 72.688ZM165.526 72.664C165.526 72 165.662 71.412 165.934 70.9C166.214 70.388 166.59 69.992 167.062 69.712C167.542 69.424 168.07 69.28 168.646 69.28C169.166 69.28 169.618 69.384 170.002 69.592C170.394 69.792 170.706 70.044 170.938 70.348V69.388H172.318V76H170.938V75.016C170.706 75.328 170.39 75.588 169.99 75.796C169.59 76.004 169.134 76.108 168.622 76.108C168.054 76.108 167.534 75.964 167.062 75.676C166.59 75.38 166.214 74.972 165.934 74.452C165.662 73.924 165.526 73.328 165.526 72.664ZM170.938 72.688C170.938 72.232 170.842 71.836 170.65 71.5C170.466 71.164 170.222 70.908 169.918 70.732C169.614 70.556 169.286 70.468 168.934 70.468C168.582 70.468 168.254 70.556 167.95 70.732C167.646 70.9 167.398 71.152 167.206 71.488C167.022 71.816 166.93 72.208 166.93 72.664C166.93 73.12 167.022 73.52 167.206 73.864C167.398 74.208 167.646 74.472 167.95 74.656C168.262 74.832 168.59 74.92 168.934 74.92C169.286 74.92 169.614 74.832 169.918 74.656C170.222 74.48 170.466 74.224 170.65 73.888C170.842 73.544 170.938 73.144 170.938 72.688ZM176.515 76.108C175.995 76.108 175.527 76.016 175.111 75.832C174.703 75.64 174.379 75.384 174.139 75.064C173.899 74.736 173.771 74.372 173.755 73.972H175.171C175.195 74.252 175.327 74.488 175.567 74.68C175.815 74.864 176.123 74.956 176.491 74.956C176.875 74.956 177.171 74.884 177.379 74.74C177.595 74.588 177.703 74.396 177.703 74.164C177.703 73.916 177.583 73.732 177.343 73.612C177.111 73.492 176.739 73.36 176.227 73.216C175.731 73.08 175.327 72.948 175.015 72.82C174.703 72.692 174.431 72.496 174.199 72.232C173.975 71.968 173.863 71.62 173.863 71.188C173.863 70.836 173.967 70.516 174.175 70.228C174.383 69.932 174.679 69.7 175.063 69.532C175.455 69.364 175.903 69.28 176.407 69.28C177.159 69.28 177.763 69.472 178.219 69.856C178.683 70.232 178.931 70.748 178.963 71.404H177.595C177.571 71.108 177.451 70.872 177.235 70.696C177.019 70.52 176.727 70.432 176.359 70.432C175.999 70.432 175.723 70.5 175.531 70.636C175.339 70.772 175.243 70.952 175.243 71.176C175.243 71.352 175.307 71.5 175.435 71.62C175.563 71.74 175.719 71.836 175.903 71.908C176.087 71.972 176.359 72.056 176.719 72.16C177.199 72.288 177.591 72.42 177.895 72.556C178.207 72.684 178.475 72.876 178.699 73.132C178.923 73.388 179.039 73.728 179.047 74.152C179.047 74.528 178.943 74.864 178.735 75.16C178.527 75.456 178.231 75.688 177.847 75.856C177.471 76.024 177.027 76.108 176.515 76.108ZM182.121 70.504V74.164C182.121 74.412 182.177 74.592 182.289 74.704C182.409 74.808 182.609 74.86 182.889 74.86H183.729V76H182.649C182.033 76 181.561 75.856 181.233 75.568C180.905 75.28 180.741 74.812 180.741 74.164V70.504H179.961V69.388H180.741V67.744H182.121V69.388H183.729V70.504H182.121ZM191.05 72.532C191.05 72.78 191.034 73.004 191.002 73.204H185.95C185.99 73.732 186.186 74.156 186.538 74.476C186.89 74.796 187.322 74.956 187.834 74.956C188.57 74.956 189.09 74.648 189.394 74.032H190.87C190.67 74.64 190.306 75.14 189.778 75.532C189.258 75.916 188.61 76.108 187.834 76.108C187.202 76.108 186.634 75.968 186.13 75.688C185.634 75.4 185.242 75 184.954 74.488C184.674 73.968 184.534 73.368 184.534 72.688C184.534 72.008 184.67 71.412 184.942 70.9C185.222 70.38 185.61 69.98 186.106 69.7C186.61 69.42 187.186 69.28 187.834 69.28C188.458 69.28 189.014 69.416 189.502 69.688C189.99 69.96 190.37 70.344 190.642 70.84C190.914 71.328 191.05 71.892 191.05 72.532ZM189.622 72.1C189.614 71.596 189.434 71.192 189.082 70.888C188.73 70.584 188.294 70.432 187.774 70.432C187.302 70.432 186.898 70.584 186.562 70.888C186.226 71.184 186.026 71.588 185.962 72.1H189.622Z" fill="#2F4159"/>
<path d="M6.732 98.144C6.732 98.568 6.632 98.968 6.432 99.344C6.232 99.72 5.912 100.028 5.472 100.268C5.032 100.5 4.468 100.616 3.78 100.616H2.268V104H0.9V95.66H3.78C4.42 95.66 4.96 95.772 5.4 95.996C5.848 96.212 6.18 96.508 6.396 96.884C6.62 97.26 6.732 97.68 6.732 98.144ZM3.78 99.5C4.3 99.5 4.688 99.384 4.944 99.152C5.2 98.912 5.328 98.576 5.328 98.144C5.328 97.232 4.812 96.776 3.78 96.776H2.268V99.5H3.78ZM14.0967 100.532C14.0967 100.78 14.0807 101.004 14.0487 101.204H8.99672C9.03672 101.732 9.23272 102.156 9.58472 102.476C9.93672 102.796 10.3687 102.956 10.8807 102.956C11.6167 102.956 12.1367 102.648 12.4407 102.032H13.9167C13.7167 102.64 13.3527 103.14 12.8247 103.532C12.3047 103.916 11.6567 104.108 10.8807 104.108C10.2487 104.108 9.68072 103.968 9.17672 103.688C8.68072 103.4 8.28872 103 8.00072 102.488C7.72072 101.968 7.58072 101.368 7.58072 100.688C7.58072 100.008 7.71672 99.412 7.98872 98.9C8.26872 98.38 8.65672 97.98 9.15272 97.7C9.65672 97.42 10.2327 97.28 10.8807 97.28C11.5047 97.28 12.0607 97.416 12.5487 97.688C13.0367 97.96 13.4167 98.344 13.6887 98.84C13.9607 99.328 14.0967 99.892 14.0967 100.532ZM12.6687 100.1C12.6607 99.596 12.4807 99.192 12.1287 98.888C11.7767 98.584 11.3407 98.432 10.8207 98.432C10.3487 98.432 9.94472 98.584 9.60872 98.888C9.27272 99.184 9.07272 99.588 9.00872 100.1H12.6687ZM16.811 95.12V104H15.443V95.12H16.811ZM19.975 97.388V104H18.607V97.388H19.975ZM20.527 95.612L17.875 96.92V95.912L20.527 94.448V95.612ZM21.3151 100.688C21.3151 100.008 21.4511 99.412 21.7231 98.9C22.0031 98.38 22.3871 97.98 22.8751 97.7C23.3631 97.42 23.9231 97.28 24.5551 97.28C25.3551 97.28 26.0151 97.472 26.5351 97.856C27.0631 98.232 27.4191 98.772 27.6031 99.476H26.1271C26.0071 99.148 25.8151 98.892 25.5511 98.708C25.2871 98.524 24.9551 98.432 24.5551 98.432C23.9951 98.432 23.5471 98.632 23.2111 99.032C22.8831 99.424 22.7191 99.976 22.7191 100.688C22.7191 101.4 22.8831 101.956 23.2111 102.356C23.5471 102.756 23.9951 102.956 24.5551 102.956C25.3471 102.956 25.8711 102.608 26.1271 101.912H27.6031C27.4111 102.584 27.0511 103.12 26.5231 103.52C25.9951 103.912 25.3391 104.108 24.5551 104.108C23.9231 104.108 23.3631 103.968 22.8751 103.688C22.3871 103.4 22.0031 103 21.7231 102.488C21.4511 101.968 21.3151 101.368 21.3151 100.688ZM34.9544 97.388V104H33.5864V103.22C33.3704 103.492 33.0864 103.708 32.7344 103.868C32.3904 104.02 32.0224 104.096 31.6304 104.096C31.1104 104.096 30.6424 103.988 30.2264 103.772C29.8184 103.556 29.4944 103.236 29.2544 102.812C29.0224 102.388 28.9064 101.876 28.9064 101.276V97.388H30.2624V101.072C30.2624 101.664 30.4104 102.12 30.7064 102.44C31.0024 102.752 31.4064 102.908 31.9184 102.908C32.4304 102.908 32.8344 102.752 33.1304 102.44C33.4344 102.12 33.5864 101.664 33.5864 101.072V97.388H34.9544ZM38.1274 95.12V104H36.7594V95.12H38.1274ZM39.4674 100.664C39.4674 100 39.6034 99.412 39.8754 98.9C40.1554 98.388 40.5314 97.992 41.0034 97.712C41.4834 97.424 42.0114 97.28 42.5874 97.28C43.1074 97.28 43.5594 97.384 43.9434 97.592C44.3354 97.792 44.6474 98.044 44.8794 98.348V97.388H46.2594V104H44.8794V103.016C44.6474 103.328 44.3314 103.588 43.9314 103.796C43.5314 104.004 43.0754 104.108 42.5634 104.108C41.9954 104.108 41.4754 103.964 41.0034 103.676C40.5314 103.38 40.1554 102.972 39.8754 102.452C39.6034 101.924 39.4674 101.328 39.4674 100.664ZM44.8794 100.688C44.8794 100.232 44.7834 99.836 44.5914 99.5C44.4074 99.164 44.1634 98.908 43.8594 98.732C43.5554 98.556 43.2274 98.468 42.8754 98.468C42.5234 98.468 42.1954 98.556 41.8914 98.732C41.5874 98.9 41.3394 99.152 41.1474 99.488C40.9634 99.816 40.8714 100.208 40.8714 100.664C40.8714 101.12 40.9634 101.52 41.1474 101.864C41.3394 102.208 41.5874 102.472 41.8914 102.656C42.2034 102.832 42.5314 102.92 42.8754 102.92C43.2274 102.92 43.5554 102.832 43.8594 102.656C44.1634 102.48 44.4074 102.224 44.5914 101.888C44.7834 101.544 44.8794 101.144 44.8794 100.688ZM0.444 116.664C0.444 116 0.58 115.412 0.852 114.9C1.132 114.388 1.508 113.992 1.98 113.712C2.46 113.424 2.992 113.28 3.576 113.28C4.008 113.28 4.432 113.376 4.848 113.568C5.272 113.752 5.608 114 5.856 114.312V111.12H7.236V120H5.856V119.004C5.632 119.324 5.32 119.588 4.92 119.796C4.528 120.004 4.076 120.108 3.564 120.108C2.988 120.108 2.46 119.964 1.98 119.676C1.508 119.38 1.132 118.972 0.852 118.452C0.58 117.924 0.444 117.328 0.444 116.664ZM5.856 116.688C5.856 116.232 5.76 115.836 5.568 115.5C5.384 115.164 5.14 114.908 4.836 114.732C4.532 114.556 4.204 114.468 3.852 114.468C3.5 114.468 3.172 114.556 2.868 114.732C2.564 114.9 2.316 115.152 2.124 115.488C1.94 115.816 1.848 116.208 1.848 116.664C1.848 117.12 1.94 117.52 2.124 117.864C2.316 118.208 2.564 118.472 2.868 118.656C3.18 118.832 3.508 118.92 3.852 118.92C4.204 118.92 4.532 118.832 4.836 118.656C5.14 118.48 5.384 118.224 5.568 117.888C5.76 117.544 5.856 117.144 5.856 116.688ZM15.0928 116.532C15.0928 116.78 15.0768 117.004 15.0448 117.204H9.99281C10.0328 117.732 10.2288 118.156 10.5808 118.476C10.9328 118.796 11.3648 118.956 11.8768 118.956C12.6128 118.956 13.1328 118.648 13.4368 118.032H14.9128C14.7128 118.64 14.3488 119.14 13.8208 119.532C13.3008 119.916 12.6528 120.108 11.8768 120.108C11.2448 120.108 10.6768 119.968 10.1728 119.688C9.67681 119.4 9.28481 119 8.99681 118.488C8.71681 117.968 8.57681 117.368 8.57681 116.688C8.57681 116.008 8.71281 115.412 8.98481 114.9C9.26481 114.38 9.65281 113.98 10.1488 113.7C10.6528 113.42 11.2288 113.28 11.8768 113.28C12.5008 113.28 13.0568 113.416 13.5448 113.688C14.0328 113.96 14.4128 114.344 14.6848 114.84C14.9568 115.328 15.0928 115.892 15.0928 116.532ZM13.6648 116.1C13.6568 115.596 13.4768 115.192 13.1248 114.888C12.7728 114.584 12.3368 114.432 11.8168 114.432C11.3448 114.432 10.9408 114.584 10.6048 114.888C10.2688 115.184 10.0688 115.588 10.0048 116.1H13.6648ZM19.1003 116.688C19.1003 116.008 19.2363 115.412 19.5083 114.9C19.7883 114.38 20.1723 113.98 20.6603 113.7C21.1483 113.42 21.7083 113.28 22.3403 113.28C23.1403 113.28 23.8003 113.472 24.3203 113.856C24.8483 114.232 25.2043 114.772 25.3883 115.476H23.9123C23.7923 115.148 23.6003 114.892 23.3363 114.708C23.0723 114.524 22.7403 114.432 22.3403 114.432C21.7803 114.432 21.3323 114.632 20.9963 115.032C20.6683 115.424 20.5043 115.976 20.5043 116.688C20.5043 117.4 20.6683 117.956 20.9963 118.356C21.3323 118.756 21.7803 118.956 22.3403 118.956C23.1323 118.956 23.6563 118.608 23.9123 117.912H25.3883C25.1963 118.584 24.8363 119.12 24.3083 119.52C23.7803 119.912 23.1243 120.108 22.3403 120.108C21.7083 120.108 21.1483 119.968 20.6603 119.688C20.1723 119.4 19.7883 119 19.5083 118.488C19.2363 117.968 19.1003 117.368 19.1003 116.688ZM29.6196 120.108C28.9956 120.108 28.4316 119.968 27.9276 119.688C27.4236 119.4 27.0276 119 26.7396 118.488C26.4516 117.968 26.3076 117.368 26.3076 116.688C26.3076 116.016 26.4556 115.42 26.7516 114.9C27.0476 114.38 27.4516 113.98 27.9636 113.7C28.4756 113.42 29.0476 113.28 29.6796 113.28C30.3116 113.28 30.8836 113.42 31.3956 113.7C31.9076 113.98 32.3116 114.38 32.6076 114.9C32.9036 115.42 33.0516 116.016 33.0516 116.688C33.0516 117.36 32.8996 117.956 32.5956 118.476C32.2916 118.996 31.8756 119.4 31.3476 119.688C30.8276 119.968 30.2516 120.108 29.6196 120.108ZM29.6196 118.92C29.9716 118.92 30.2996 118.836 30.6036 118.668C30.9156 118.5 31.1676 118.248 31.3596 117.912C31.5516 117.576 31.6476 117.168 31.6476 116.688C31.6476 116.208 31.5556 115.804 31.3716 115.476C31.1876 115.14 30.9436 114.888 30.6396 114.72C30.3356 114.552 30.0076 114.468 29.6556 114.468C29.3036 114.468 28.9756 114.552 28.6716 114.72C28.3756 114.888 28.1396 115.14 27.9636 115.476C27.7876 115.804 27.6996 116.208 27.6996 116.688C27.6996 117.4 27.8796 117.952 28.2396 118.344C28.6076 118.728 29.0676 118.92 29.6196 118.92ZM35.7719 111.12V120H34.4039V111.12H35.7719ZM40.436 120.108C39.812 120.108 39.248 119.968 38.744 119.688C38.24 119.4 37.844 119 37.556 118.488C37.268 117.968 37.124 117.368 37.124 116.688C37.124 116.016 37.272 115.42 37.568 114.9C37.864 114.38 38.268 113.98 38.78 113.7C39.292 113.42 39.864 113.28 40.496 113.28C41.128 113.28 41.7 113.42 42.212 113.7C42.724 113.98 43.128 114.38 43.424 114.9C43.72 115.42 43.868 116.016 43.868 116.688C43.868 117.36 43.716 117.956 43.412 118.476C43.108 118.996 42.692 119.4 42.164 119.688C41.644 119.968 41.068 120.108 40.436 120.108ZM40.436 118.92C40.788 118.92 41.116 118.836 41.42 118.668C41.732 118.5 41.984 118.248 42.176 117.912C42.368 117.576 42.464 117.168 42.464 116.688C42.464 116.208 42.372 115.804 42.188 115.476C42.004 115.14 41.76 114.888 41.456 114.72C41.152 114.552 40.824 114.468 40.472 114.468C40.12 114.468 39.792 114.552 39.488 114.72C39.192 114.888 38.956 115.14 38.78 115.476C38.604 115.804 38.516 116.208 38.516 116.688C38.516 117.4 38.696 117.952 39.056 118.344C39.424 118.728 39.884 118.92 40.436 118.92ZM46.5883 114.348C46.7883 114.012 47.0523 113.752 47.3803 113.568C47.7163 113.376 48.1123 113.28 48.5683 113.28V114.696H48.2203C47.6843 114.696 47.2763 114.832 46.9963 115.104C46.7243 115.376 46.5883 115.848 46.5883 116.52V120H45.2203V113.388H46.5883V114.348Z" fill="#2F4159"/>
<path d="M7.752 219.953H6.384L2.268 213.725V219.953H0.9V211.601H2.268L6.384 217.817V211.601H7.752V219.953ZM15.5364 213.341V219.953H14.1684V219.173C13.9524 219.445 13.6684 219.661 13.3164 219.821C12.9724 219.973 12.6044 220.049 12.2124 220.049C11.6924 220.049 11.2244 219.941 10.8084 219.725C10.4004 219.509 10.0764 219.189 9.83644 218.765C9.60444 218.341 9.48844 217.829 9.48844 217.229V213.341H10.8444V217.025C10.8444 217.617 10.9924 218.073 11.2884 218.393C11.5844 218.705 11.9884 218.861 12.5004 218.861C13.0124 218.861 13.4164 218.705 13.7124 218.393C14.0164 218.073 14.1684 217.617 14.1684 217.025V213.341H15.5364ZM13.7844 211.565L11.1324 212.873V211.865L13.7844 210.401V211.565ZM16.8854 216.641C16.8854 215.961 17.0214 215.365 17.2934 214.853C17.5734 214.333 17.9574 213.933 18.4454 213.653C18.9334 213.373 19.4934 213.233 20.1254 213.233C20.9254 213.233 21.5854 213.425 22.1054 213.809C22.6334 214.185 22.9894 214.725 23.1734 215.429H21.6974C21.5774 215.101 21.3854 214.845 21.1214 214.661C20.8574 214.477 20.5254 214.385 20.1254 214.385C19.5654 214.385 19.1174 214.585 18.7814 214.985C18.4534 215.377 18.2894 215.929 18.2894 216.641C18.2894 217.353 18.4534 217.909 18.7814 218.309C19.1174 218.709 19.5654 218.909 20.1254 218.909C20.9174 218.909 21.4414 218.561 21.6974 217.865H23.1734C22.9814 218.537 22.6214 219.073 22.0934 219.473C21.5654 219.865 20.9094 220.061 20.1254 220.061C19.4934 220.061 18.9334 219.921 18.4454 219.641C17.9574 219.353 17.5734 218.953 17.2934 218.441C17.0214 217.921 16.8854 217.321 16.8854 216.641ZM25.9047 211.073V219.953H24.5367V211.073H25.9047ZM33.7608 216.485C33.7608 216.733 33.7448 216.957 33.7128 217.157H28.6608C28.7008 217.685 28.8968 218.109 29.2488 218.429C29.6008 218.749 30.0328 218.909 30.5448 218.909C31.2808 218.909 31.8008 218.601 32.1048 217.985H33.5808C33.3808 218.593 33.0168 219.093 32.4888 219.485C31.9688 219.869 31.3208 220.061 30.5448 220.061C29.9128 220.061 29.3448 219.921 28.8408 219.641C28.3448 219.353 27.9528 218.953 27.6648 218.441C27.3848 217.921 27.2448 217.321 27.2448 216.641C27.2448 215.961 27.3808 215.365 27.6528 214.853C27.9328 214.333 28.3208 213.933 28.8168 213.653C29.3208 213.373 29.8968 213.233 30.5448 213.233C31.1688 213.233 31.7248 213.369 32.2128 213.641C32.7008 213.913 33.0808 214.297 33.3528 214.793C33.6248 215.281 33.7608 215.845 33.7608 216.485ZM32.3328 216.053C32.3248 215.549 32.1448 215.145 31.7928 214.841C31.4408 214.537 31.0048 214.385 30.4848 214.385C30.0128 214.385 29.6088 214.537 29.2728 214.841C28.9368 215.137 28.7368 215.541 28.6728 216.053H32.3328ZM37.975 220.061C37.351 220.061 36.787 219.921 36.283 219.641C35.779 219.353 35.383 218.953 35.095 218.441C34.807 217.921 34.663 217.321 34.663 216.641C34.663 215.969 34.811 215.373 35.107 214.853C35.403 214.333 35.807 213.933 36.319 213.653C36.831 213.373 37.403 213.233 38.035 213.233C38.667 213.233 39.239 213.373 39.751 213.653C40.263 213.933 40.667 214.333 40.963 214.853C41.259 215.373 41.407 215.969 41.407 216.641C41.407 217.313 41.255 217.909 40.951 218.429C40.647 218.949 40.231 219.353 39.703 219.641C39.183 219.921 38.607 220.061 37.975 220.061ZM37.975 218.873C38.327 218.873 38.655 218.789 38.959 218.621C39.271 218.453 39.523 218.201 39.715 217.865C39.907 217.529 40.003 217.121 40.003 216.641C40.003 216.161 39.911 215.757 39.727 215.429C39.543 215.093 39.299 214.841 38.995 214.673C38.691 214.505 38.363 214.421 38.011 214.421C37.659 214.421 37.331 214.505 37.027 214.673C36.731 214.841 36.495 215.093 36.319 215.429C36.143 215.757 36.055 216.161 36.055 216.641C36.055 217.353 36.235 217.905 36.595 218.297C36.963 218.681 37.423 218.873 37.975 218.873ZM45.4206 216.617C45.4206 215.953 45.5566 215.365 45.8286 214.853C46.1086 214.341 46.4846 213.945 46.9566 213.665C47.4366 213.377 47.9686 213.233 48.5526 213.233C48.9846 213.233 49.4086 213.329 49.8246 213.521C50.2486 213.705 50.5846 213.953 50.8326 214.265V211.073H52.2126V219.953H50.8326V218.957C50.6086 219.277 50.2966 219.541 49.8966 219.749C49.5046 219.957 49.0526 220.061 48.5406 220.061C47.9646 220.061 47.4366 219.917 46.9566 219.629C46.4846 219.333 46.1086 218.925 45.8286 218.405C45.5566 217.877 45.4206 217.281 45.4206 216.617ZM50.8326 216.641C50.8326 216.185 50.7366 215.789 50.5446 215.453C50.3606 215.117 50.1166 214.861 49.8126 214.685C49.5086 214.509 49.1806 214.421 48.8286 214.421C48.4766 214.421 48.1486 214.509 47.8446 214.685C47.5406 214.853 47.2926 215.105 47.1006 215.441C46.9166 215.769 46.8246 216.161 46.8246 216.617C46.8246 217.073 46.9166 217.473 47.1006 217.817C47.2926 218.161 47.5406 218.425 47.8446 218.609C48.1566 218.785 48.4846 218.873 48.8286 218.873C49.1806 218.873 49.5086 218.785 49.8126 218.609C50.1166 218.433 50.3606 218.177 50.5446 217.841C50.7366 217.497 50.8326 217.097 50.8326 216.641ZM60.0694 216.485C60.0694 216.733 60.0534 216.957 60.0214 217.157H54.9694C55.0094 217.685 55.2054 218.109 55.5574 218.429C55.9094 218.749 56.3414 218.909 56.8534 218.909C57.5894 218.909 58.1094 218.601 58.4134 217.985H59.8894C59.6894 218.593 59.3254 219.093 58.7974 219.485C58.2774 219.869 57.6294 220.061 56.8534 220.061C56.2214 220.061 55.6534 219.921 55.1494 219.641C54.6534 219.353 54.2614 218.953 53.9734 218.441C53.6934 217.921 53.5534 217.321 53.5534 216.641C53.5534 215.961 53.6894 215.365 53.9614 214.853C54.2414 214.333 54.6294 213.933 55.1254 213.653C55.6294 213.373 56.2054 213.233 56.8534 213.233C57.4774 213.233 58.0334 213.369 58.5214 213.641C59.0094 213.913 59.3894 214.297 59.6614 214.793C59.9334 215.281 60.0694 215.845 60.0694 216.485ZM58.6414 216.053C58.6334 215.549 58.4534 215.145 58.1014 214.841C57.7494 214.537 57.3134 214.385 56.7934 214.385C56.3214 214.385 55.9174 214.537 55.5814 214.841C55.2454 215.137 55.0454 215.541 54.9814 216.053H58.6414ZM70.3648 214.097C70.3648 214.521 70.2648 214.921 70.0648 215.297C69.8648 215.673 69.5448 215.981 69.1048 216.221C68.6648 216.453 68.1008 216.569 67.4128 216.569H65.9008V219.953H64.5328V211.613H67.4128C68.0528 211.613 68.5928 211.725 69.0328 211.949C69.4808 212.165 69.8128 212.461 70.0288 212.837C70.2528 213.213 70.3648 213.633 70.3648 214.097ZM67.4128 215.453C67.9328 215.453 68.3208 215.337 68.5768 215.105C68.8328 214.865 68.9608 214.529 68.9608 214.097C68.9608 213.185 68.4448 212.729 67.4128 212.729H65.9008V215.453H67.4128ZM78.8575 211.613L75.7255 219.953H74.1415L70.9975 211.613H72.4615L74.9335 218.549L77.4175 211.613H78.8575ZM79.5456 215.765C79.5456 214.949 79.7336 214.217 80.1096 213.569C80.4936 212.921 81.0096 212.417 81.6576 212.057C82.3136 211.689 83.0296 211.505 83.8056 211.505C84.6936 211.505 85.4816 211.725 86.1696 212.165C86.8656 212.597 87.3696 213.213 87.6816 214.013H86.0376C85.8216 213.573 85.5216 213.245 85.1376 213.029C84.7536 212.813 84.3096 212.705 83.8056 212.705C83.2536 212.705 82.7616 212.829 82.3296 213.077C81.8976 213.325 81.5576 213.681 81.3096 214.145C81.0696 214.609 80.9496 215.149 80.9496 215.765C80.9496 216.381 81.0696 216.921 81.3096 217.385C81.5576 217.849 81.8976 218.209 82.3296 218.465C82.7616 218.713 83.2536 218.837 83.8056 218.837C84.3096 218.837 84.7536 218.729 85.1376 218.513C85.5216 218.297 85.8216 217.969 86.0376 217.529H87.6816C87.3696 218.329 86.8656 218.945 86.1696 219.377C85.4816 219.809 84.6936 220.025 83.8056 220.025C83.0216 220.025 82.3056 219.845 81.6576 219.485C81.0096 219.117 80.4936 218.609 80.1096 217.961C79.7336 217.313 79.5456 216.581 79.5456 215.765Z" fill="#2F4159"/>
<path d="M131.518 64.1387H98.2581H84.1631V112.695H111.774V123.71" stroke="#2F4159" stroke-width="0.75" stroke-miterlimit="10"/>
<path d="M131.518 64.4724C131.703 64.4724 131.852 64.323 131.852 64.1386C131.852 63.9542 131.703 63.8047 131.518 63.8047C131.334 63.8047 131.184 63.9542 131.184 64.1386C131.184 64.323 131.334 64.4724 131.518 64.4724Z" fill="#2F4159" stroke="#2F4159" stroke-miterlimit="10"/>
<path d="M111.774 124.043C111.958 124.043 112.108 123.893 112.108 123.709C112.108 123.524 111.958 123.375 111.774 123.375C111.589 123.375 111.44 123.524 111.44 123.709C111.44 123.893 111.589 124.043 111.774 124.043Z" fill="#2F4159" stroke="#2F4159" stroke-miterlimit="10"/>
<path d="M101.819 152.383C102.004 152.383 102.153 152.233 102.153 152.049C102.153 151.864 102.004 151.715 101.819 151.715C101.635 151.715 101.486 151.864 101.486 152.049C101.486 152.233 101.635 152.383 101.819 152.383Z" fill="#2F4159" stroke="#2F4159" stroke-miterlimit="10"/>
<path d="M38.6801 205.398C38.8645 205.398 39.0139 205.249 39.0139 205.064C39.0139 204.88 38.8645 204.73 38.6801 204.73C38.4957 204.73 38.3462 204.88 38.3462 205.064C38.3462 205.249 38.4957 205.398 38.6801 205.398Z" fill="#2F4159" stroke="#2F4159" stroke-miterlimit="10"/>
<path d="M120.186 185.388C120.37 185.388 120.52 185.239 120.52 185.055C120.52 184.87 120.37 184.721 120.186 184.721C120.002 184.721 119.852 184.87 119.852 185.055C119.852 185.239 120.002 185.388 120.186 185.388Z" fill="white" stroke="white" stroke-miterlimit="10"/>
<path d="M18.9813 125.535C19.1657 125.535 19.3152 125.385 19.3152 125.201C19.3152 125.017 19.1657 124.867 18.9813 124.867C18.7969 124.867 18.6475 125.017 18.6475 125.201C18.6475 125.385 18.7969 125.535 18.9813 125.535Z" fill="#2F4159" stroke="#2F4159" stroke-miterlimit="10"/>
<path d="M101.82 152.051V138.627H18.9814V125.203" stroke="#2F4159" stroke-width="0.75" stroke-miterlimit="10"/>
<path d="M38.5754 184.932V205.066H38.8209V185.177H83.6165L82.8604 184.932H38.5754Z" fill="#2F4159"/>
<path d="M120.186 184.932H82.8604L83.6165 185.177H120.186V184.932Z" fill="white"/>
</g>
<defs>
<clipPath id="clip0_2739_6348">
<rect width="328" height="244" fill="white"/>
</clipPath>
</defs>
</svg>
