<svg width="1426" height="957" viewBox="0 0 1426 957" fill="none" xmlns="http://www.w3.org/2000/svg">
<mask id="mask0_2858_8371" style="mask-type:luminance" maskUnits="userSpaceOnUse" x="117" y="113" width="1309" height="845">
<path d="M1425.1 113.389H117.92V957H1425.1V113.389Z" fill="white"/>
</mask>
<g mask="url(#mask0_2858_8371)">
<path d="M310.993 460.702L342.834 451.048L341.106 440.435L321.854 434.812L307.126 442.176L310.993 460.702Z" fill="#3D3D3A"/>
<path d="M1228.41 877.371L1463.19 321.23V334.449L1228.41 900.614V877.371Z" fill="#4D4D4C"/>
<path d="M192.695 603.463L1228.41 877.372L1463.19 321.231L1011.82 255.891L192.695 603.463Z" fill="#3D3D3A"/>
<path d="M1396.82 254.656C1396.82 254.656 1395.34 272.99 1383.25 279.737L1432.08 279.792L1433.83 277.214V274.54L1467.62 274.087L1282.83 638.335L1078.01 620.604L1151.99 485.796L1396.82 254.67V254.656Z" fill="#686A6C"/>
<path d="M278.59 398.036C278.59 398.036 974.065 254.972 1051.71 223.79L1396.81 254.657L1155.33 553.948L278.577 398.036H278.59Z" fill="#707275"/>
<path d="M1433.83 272.291L1192.89 624.869L1158.94 621.935L1416.16 271.839L1433.83 272.291Z" fill="#707275"/>
<path d="M1192.89 630.531V624.868L1158.94 621.933V627.597L1078.01 620.589L1095.74 594.302C1147.71 590.627 1155.35 553.946 1155.35 553.946L278.59 398.034L279.208 429.834L248.944 433.509V446.961L311.007 460.714C312.844 442.984 327.215 442.367 327.215 442.367C346.591 442.01 345.563 463.457 345.563 463.457V489.744L1070.08 647.027C1090.25 691.963 1263.29 687.836 1263.29 687.836L1282.86 638.306L1192.93 630.517L1192.89 630.531Z" fill="#58585C"/>
<path d="M1433.83 272.291V277.2L1192.89 630.532V624.869L1433.83 272.291Z" fill="#5E5E63"/>
<path d="M1147.09 455.353L1144.8 469.573L332.028 332.626L321.072 330.774L321.853 317.939L1147.09 455.353Z" fill="#A29593"/>
<path d="M1426.35 246.867L1424.59 257.028C1261.36 478.047 1144.79 469.573 1144.79 469.573L1147.09 455.353L321.853 317.939C321.853 317.939 626.176 344.857 1048.03 216.438L1426.35 246.853V246.867Z" fill="#825C50"/>
<path d="M1426.35 246.868V254.657C1425.76 255.466 1425.18 256.248 1424.59 257.029C1261.36 478.049 1144.79 469.574 1144.79 469.574L1147.09 455.354C1258.16 466.064 1403.42 281.095 1426.35 246.868Z" fill="#B2A38B"/>
<path d="M1138.84 385.391C1142.13 385.391 1144.8 384.618 1144.8 383.663C1144.8 382.709 1142.13 381.936 1138.84 381.936C1135.54 381.936 1132.87 382.709 1132.87 383.663C1132.87 384.618 1135.54 385.391 1138.84 385.391Z" fill="#997468"/>
<path d="M977.424 385.391C980.718 385.391 983.389 384.618 983.389 383.663C983.389 382.709 980.718 381.936 977.424 381.936C974.13 381.936 971.459 382.709 971.459 383.663C971.459 384.618 974.13 385.391 977.424 385.391Z" fill="#997468"/>
<path d="M752.73 326.372C755.388 326.372 757.543 325.745 757.543 324.973C757.543 324.2 755.388 323.574 752.73 323.574C750.071 323.574 747.917 324.2 747.917 324.973C747.917 325.745 750.071 326.372 752.73 326.372Z" fill="#997468"/>
<path d="M927.141 340.66C929.799 340.66 931.954 340.033 931.954 339.261C931.954 338.489 929.799 337.862 927.141 337.862C924.483 337.862 922.328 338.489 922.328 339.261C922.328 340.033 924.483 340.66 927.141 340.66Z" fill="#997468"/>
<path d="M869.287 317.583C871.264 317.583 872.866 317.117 872.866 316.541C872.866 315.966 871.264 315.499 869.287 315.499C867.31 315.499 865.708 315.966 865.708 316.541C865.708 317.117 867.31 317.583 869.287 317.583Z" fill="#997468"/>
<path d="M588.961 340.303C590.937 340.303 592.54 339.836 592.54 339.261C592.54 338.685 590.937 338.219 588.961 338.219C586.984 338.219 585.382 338.685 585.382 339.261C585.382 339.836 586.984 340.303 588.961 340.303Z" fill="#997468"/>
<path d="M1321.27 279.778C1323.93 279.778 1326.08 279.152 1326.08 278.379C1326.08 277.607 1323.93 276.98 1321.27 276.98C1318.61 276.98 1316.46 277.607 1316.46 278.379C1316.46 279.152 1318.61 279.778 1321.27 279.778Z" fill="#997468"/>
<path d="M832.757 368.661C835.415 368.661 837.57 368.034 837.57 367.262C837.57 366.489 835.415 365.863 832.757 365.863C830.099 365.863 827.944 366.489 827.944 367.262C827.944 368.034 830.099 368.661 832.757 368.661Z" fill="#997468"/>
<path d="M1225.96 395.155C1228.62 395.155 1230.78 394.529 1230.78 393.756C1230.78 392.984 1228.62 392.357 1225.96 392.357C1223.31 392.357 1221.15 392.984 1221.15 393.756C1221.15 394.529 1223.31 395.155 1225.96 395.155Z" fill="#997468"/>
<g opacity="0.7">
<path d="M1225.96 374.188L875.156 324.672L602.316 286.153C602.316 286.153 472.102 263.528 465.972 230.521L694.081 263.829L694.122 263.857L1198.46 337.521C1198.46 337.521 1197.22 363.204 1225.96 374.202V374.188Z" fill="#E8E8E7"/>
</g>
<g opacity="0.7">
<path d="M1419.18 210.337C1288.95 384.597 1225.97 374.189 1225.97 374.189C1197.22 363.191 1198.46 337.508 1198.46 337.508L694.123 263.844L694.082 263.816L1045.6 185.257L1419.18 210.323V210.337Z" fill="#DBDDDC"/>
</g>
<g opacity="0.7">
<path d="M1257.15 321.231L550.991 218.907C550.991 218.907 490.463 205.455 485.554 175.479L685.922 205.14L686.018 205.167L1189.9 279.777C1189.9 279.777 1207.7 308.368 1243.52 318.461C1247.81 319.695 1252.35 320.641 1257.16 321.231H1257.15Z" fill="#E6E7E8"/>
<path d="M1434.6 151.784L1257.15 321.23L1243.5 318.46C1207.69 308.368 1189.89 279.777 1189.89 279.777L686.005 205.167L685.909 205.14L1056.61 127.472L1434.59 151.784H1434.6Z" fill="white"/>
</g>
<path d="M1467.62 274.073L1463.19 287.964L1263.26 687.837L1282.82 638.321L1467.62 274.073Z" fill="#5E5E63"/>
<path d="M1228.41 877.372L192.695 603.463V626.706L1228.41 900.614V877.372Z" fill="#4D4D4C"/>
</g>
<path d="M946.626 218.234V13.6562H1022.07" stroke="#2F4159" stroke-width="0.75" stroke-miterlimit="10"/>
<path d="M657.825 122.74C658.598 122.74 659.224 122.114 659.224 121.341C659.224 120.569 658.598 119.942 657.825 119.942C657.053 119.942 656.427 120.569 656.427 121.341C656.427 122.114 657.053 122.74 657.825 122.74Z" fill="#2F4159" stroke="#2F4159" stroke-miterlimit="10"/>
<path d="M572.162 254.575C572.935 254.575 573.561 253.948 573.561 253.176C573.561 252.404 572.935 251.777 572.162 251.777C571.39 251.777 570.764 252.404 570.764 253.176C570.764 253.948 571.39 254.575 572.162 254.575Z" fill="#2F4159" stroke="#2F4159" stroke-miterlimit="10"/>
<path d="M563.757 339.538C564.529 339.538 565.155 338.911 565.155 338.139C565.155 337.366 564.529 336.74 563.757 336.74C562.984 336.74 562.358 337.366 562.358 338.139C562.358 338.911 562.984 339.538 563.757 339.538Z" fill="#2F4159" stroke="#2F4159" stroke-miterlimit="10"/>
<path d="M555.872 408.936C556.645 408.936 557.271 408.31 557.271 407.537C557.271 406.765 556.645 406.139 555.872 406.139C555.1 406.139 554.474 406.765 554.474 407.537C554.474 408.31 555.1 408.936 555.872 408.936Z" fill="#2F4159" stroke="#2F4159" stroke-miterlimit="10"/>
<path d="M148.334 303.884C149.106 303.884 149.732 303.258 149.732 302.486C149.732 301.713 149.106 301.087 148.334 301.087C147.561 301.087 146.935 301.713 146.935 302.486C146.935 303.258 147.561 303.884 148.334 303.884Z" fill="#2F4159" stroke="#2F4159" stroke-miterlimit="10"/>
<path d="M73.0798 696.12C73.8523 696.12 74.4785 695.493 74.4785 694.721C74.4785 693.949 73.8523 693.322 73.0798 693.322C72.3074 693.322 71.6812 693.949 71.6812 694.721C71.6812 695.493 72.3074 696.12 73.0798 696.12Z" fill="#2F4159" stroke="#2F4159" stroke-miterlimit="10"/>
<path d="M528.694 944.44C529.466 944.44 530.092 943.814 530.092 943.041C530.092 942.269 529.466 941.643 528.694 941.643C527.921 941.643 527.295 942.269 527.295 943.041C527.295 943.814 527.921 944.44 528.694 944.44Z" fill="#2F4159" stroke="#2F4159" stroke-miterlimit="10"/>
<path d="M1022.07 15.0562C1022.85 15.0562 1023.47 14.43 1023.47 13.6575C1023.47 12.885 1022.85 12.2588 1022.07 12.2588C1021.3 12.2588 1020.67 12.885 1020.67 13.6575C1020.67 14.43 1021.3 15.0562 1022.07 15.0562Z" fill="#2F4159" stroke="#2F4159" stroke-miterlimit="10"/>
<path d="M946.626 219.634C947.398 219.634 948.024 219.008 948.024 218.236C948.024 217.463 947.398 216.837 946.626 216.837C945.853 216.837 945.227 217.463 945.227 218.236C945.227 219.008 945.853 219.634 946.626 219.634Z" fill="#2F4159" stroke="#2F4159" stroke-miterlimit="10"/>
<path d="M1032.78 14.02C1032.78 12.66 1033.1 11.44 1033.72 10.36C1034.36 9.28 1035.22 8.44 1036.3 7.84C1037.4 7.22667 1038.59 6.92 1039.88 6.92C1041.36 6.92 1042.68 7.28667 1043.82 8.02C1044.98 8.74 1045.82 9.76667 1046.34 11.1H1043.6C1043.24 10.3667 1042.74 9.82 1042.1 9.46C1041.46 9.1 1040.72 8.92 1039.88 8.92C1038.96 8.92 1038.14 9.12667 1037.42 9.54C1036.7 9.95333 1036.14 10.5467 1035.72 11.32C1035.32 12.0933 1035.12 12.9933 1035.12 14.02C1035.12 15.0467 1035.32 15.9467 1035.72 16.72C1036.14 17.4933 1036.7 18.0933 1037.42 18.52C1038.14 18.9333 1038.96 19.14 1039.88 19.14C1040.72 19.14 1041.46 18.96 1042.1 18.6C1042.74 18.24 1043.24 17.6933 1043.6 16.96H1046.34C1045.82 18.2933 1044.98 19.32 1043.82 20.04C1042.68 20.76 1041.36 21.12 1039.88 21.12C1038.58 21.12 1037.38 20.82 1036.3 20.22C1035.22 19.6067 1034.36 18.76 1033.72 17.68C1033.1 16.6 1032.78 15.38 1032.78 14.02ZM1048.25 15.44C1048.25 14.3333 1048.48 13.3533 1048.93 12.5C1049.4 11.6467 1050.02 10.9867 1050.81 10.52C1051.61 10.04 1052.49 9.8 1053.45 9.8C1054.32 9.8 1055.07 9.97333 1055.71 10.32C1056.36 10.6533 1056.88 11.0733 1057.27 11.58V9.98H1059.57V21H1057.27V19.36C1056.88 19.88 1056.36 20.3133 1055.69 20.66C1055.02 21.0067 1054.26 21.18 1053.41 21.18C1052.46 21.18 1051.6 20.94 1050.81 20.46C1050.02 19.9667 1049.4 19.2867 1048.93 18.42C1048.48 17.54 1048.25 16.5467 1048.25 15.44ZM1057.27 15.48C1057.27 14.72 1057.11 14.06 1056.79 13.5C1056.48 12.94 1056.08 12.5133 1055.57 12.22C1055.06 11.9267 1054.52 11.78 1053.93 11.78C1053.34 11.78 1052.8 11.9267 1052.29 12.22C1051.78 12.5 1051.37 12.92 1051.05 13.48C1050.74 14.0267 1050.59 14.68 1050.59 15.44C1050.59 16.2 1050.74 16.8667 1051.05 17.44C1051.37 18.0133 1051.78 18.4533 1052.29 18.76C1052.81 19.0533 1053.36 19.2 1053.93 19.2C1054.52 19.2 1055.06 19.0533 1055.57 18.76C1056.08 18.4667 1056.48 18.04 1056.79 17.48C1057.11 16.9067 1057.27 16.24 1057.27 15.48ZM1064.85 11.6C1065.23 11.0933 1065.76 10.6667 1066.43 10.32C1067.09 9.97333 1067.85 9.8 1068.69 9.8C1069.65 9.8 1070.52 10.04 1071.31 10.52C1072.11 10.9867 1072.73 11.6467 1073.19 12.5C1073.64 13.3533 1073.87 14.3333 1073.87 15.44C1073.87 16.5467 1073.64 17.54 1073.19 18.42C1072.73 19.2867 1072.11 19.9667 1071.31 20.46C1070.52 20.94 1069.65 21.18 1068.69 21.18C1067.85 21.18 1067.1 21.0133 1066.45 20.68C1065.79 20.3333 1065.26 19.9067 1064.85 19.4V26.24H1062.57V9.98H1064.85V11.6ZM1071.55 15.44C1071.55 14.68 1071.39 14.0267 1071.07 13.48C1070.76 12.92 1070.35 12.5 1069.83 12.22C1069.32 11.9267 1068.77 11.78 1068.19 11.78C1067.61 11.78 1067.07 11.9267 1066.55 12.22C1066.04 12.5133 1065.63 12.94 1065.31 13.5C1065 14.06 1064.85 14.72 1064.85 15.48C1064.85 16.24 1065 16.9067 1065.31 17.48C1065.63 18.04 1066.04 18.4667 1066.55 18.76C1067.07 19.0533 1067.61 19.2 1068.19 19.2C1068.77 19.2 1069.32 19.0533 1069.83 18.76C1070.35 18.4533 1070.76 18.0133 1071.07 17.44C1071.39 16.8667 1071.55 16.2 1071.55 15.44ZM1075.36 15.44C1075.36 14.3333 1075.59 13.3533 1076.04 12.5C1076.51 11.6467 1077.13 10.9867 1077.92 10.52C1078.72 10.04 1079.6 9.8 1080.56 9.8C1081.43 9.8 1082.18 9.97333 1082.82 10.32C1083.47 10.6533 1083.99 11.0733 1084.38 11.58V9.98H1086.68V21H1084.38V19.36C1083.99 19.88 1083.47 20.3133 1082.8 20.66C1082.13 21.0067 1081.37 21.18 1080.52 21.18C1079.57 21.18 1078.71 20.94 1077.92 20.46C1077.13 19.9667 1076.51 19.2867 1076.04 18.42C1075.59 17.54 1075.36 16.5467 1075.36 15.44ZM1084.38 15.48C1084.38 14.72 1084.22 14.06 1083.9 13.5C1083.59 12.94 1083.19 12.5133 1082.68 12.22C1082.17 11.9267 1081.63 11.78 1081.04 11.78C1080.45 11.78 1079.91 11.9267 1079.4 12.22C1078.89 12.5 1078.48 12.92 1078.16 13.48C1077.85 14.0267 1077.7 14.68 1077.7 15.44C1077.7 16.2 1077.85 16.8667 1078.16 17.44C1078.48 18.0133 1078.89 18.4533 1079.4 18.76C1079.92 19.0533 1080.47 19.2 1081.04 19.2C1081.63 19.2 1082.17 19.0533 1082.68 18.76C1083.19 18.4667 1083.59 18.04 1083.9 17.48C1084.22 16.9067 1084.38 16.24 1084.38 15.48ZM1094.11 15.44C1094.11 14.3333 1094.34 13.3533 1094.79 12.5C1095.26 11.6467 1095.88 10.9867 1096.67 10.52C1097.47 10.04 1098.36 9.8 1099.33 9.8C1100.05 9.8 1100.76 9.96 1101.45 10.28C1102.16 10.5867 1102.72 11 1103.13 11.52V6.2H1105.43V21H1103.13V19.34C1102.76 19.8733 1102.24 20.3133 1101.57 20.66C1100.92 21.0067 1100.16 21.18 1099.31 21.18C1098.35 21.18 1097.47 20.94 1096.67 20.46C1095.88 19.9667 1095.26 19.2867 1094.79 18.42C1094.34 17.54 1094.11 16.5467 1094.11 15.44ZM1103.13 15.48C1103.13 14.72 1102.97 14.06 1102.65 13.5C1102.34 12.94 1101.94 12.5133 1101.43 12.22C1100.92 11.9267 1100.38 11.78 1099.79 11.78C1099.2 11.78 1098.66 11.9267 1098.15 12.22C1097.64 12.5 1097.23 12.92 1096.91 13.48C1096.6 14.0267 1096.45 14.68 1096.45 15.44C1096.45 16.2 1096.6 16.8667 1096.91 17.44C1097.23 18.0133 1097.64 18.4533 1098.15 18.76C1098.67 19.0533 1099.22 19.2 1099.79 19.2C1100.38 19.2 1100.92 19.0533 1101.43 18.76C1101.94 18.4667 1102.34 18.04 1102.65 17.48C1102.97 16.9067 1103.13 16.24 1103.13 15.48ZM1118.52 15.22C1118.52 15.6333 1118.5 16.0067 1118.44 16.34H1110.02C1110.09 17.22 1110.42 17.9267 1111 18.46C1111.59 18.9933 1112.31 19.26 1113.16 19.26C1114.39 19.26 1115.26 18.7467 1115.76 17.72H1118.22C1117.89 18.7333 1117.28 19.5667 1116.4 20.22C1115.54 20.86 1114.46 21.18 1113.16 21.18C1112.11 21.18 1111.16 20.9467 1110.32 20.48C1109.5 20 1108.84 19.3333 1108.36 18.48C1107.9 17.6133 1107.66 16.6133 1107.66 15.48C1107.66 14.3467 1107.89 13.3533 1108.34 12.5C1108.81 11.6333 1109.46 10.9667 1110.28 10.5C1111.12 10.0333 1112.08 9.8 1113.16 9.8C1114.2 9.8 1115.13 10.0267 1115.94 10.48C1116.76 10.9333 1117.39 11.5733 1117.84 12.4C1118.3 13.2133 1118.52 14.1533 1118.52 15.22ZM1116.14 14.5C1116.13 13.66 1115.83 12.9867 1115.24 12.48C1114.66 11.9733 1113.93 11.72 1113.06 11.72C1112.28 11.72 1111.6 11.9733 1111.04 12.48C1110.48 12.9733 1110.15 13.6467 1110.04 14.5H1116.14ZM1128.24 11.6C1128.63 11.0933 1129.16 10.6667 1129.82 10.32C1130.49 9.97333 1131.24 9.8 1132.08 9.8C1133.04 9.8 1133.92 10.04 1134.7 10.52C1135.5 10.9867 1136.13 11.6467 1136.58 12.5C1137.04 13.3533 1137.26 14.3333 1137.26 15.44C1137.26 16.5467 1137.04 17.54 1136.58 18.42C1136.13 19.2867 1135.5 19.9667 1134.7 20.46C1133.92 20.94 1133.04 21.18 1132.08 21.18C1131.24 21.18 1130.5 21.0133 1129.84 20.68C1129.19 20.3333 1128.66 19.9067 1128.24 19.4V26.24H1125.96V9.98H1128.24V11.6ZM1134.94 15.44C1134.94 14.68 1134.78 14.0267 1134.46 13.48C1134.16 12.92 1133.74 12.5 1133.22 12.22C1132.72 11.9267 1132.17 11.78 1131.58 11.78C1131.01 11.78 1130.46 11.9267 1129.94 12.22C1129.44 12.5133 1129.02 12.94 1128.7 13.5C1128.4 14.06 1128.24 14.72 1128.24 15.48C1128.24 16.24 1128.4 16.9067 1128.7 17.48C1129.02 18.04 1129.44 18.4667 1129.94 18.76C1130.46 19.0533 1131.01 19.2 1131.58 19.2C1132.17 19.2 1132.72 19.0533 1133.22 18.76C1133.74 18.4533 1134.16 18.0133 1134.46 17.44C1134.78 16.8667 1134.94 16.2 1134.94 15.44ZM1141.8 11.58C1142.13 11.02 1142.57 10.5867 1143.12 10.28C1143.68 9.96 1144.34 9.8 1145.1 9.8V12.16H1144.52C1143.63 12.16 1142.95 12.3867 1142.48 12.84C1142.03 13.2933 1141.8 14.08 1141.8 15.2V21H1139.52V9.98H1141.8V11.58ZM1151.97 21.18C1150.93 21.18 1149.99 20.9467 1149.15 20.48C1148.31 20 1147.65 19.3333 1147.17 18.48C1146.69 17.6133 1146.45 16.6133 1146.45 15.48C1146.45 14.36 1146.7 13.3667 1147.19 12.5C1147.69 11.6333 1148.36 10.9667 1149.21 10.5C1150.07 10.0333 1151.02 9.8 1152.07 9.8C1153.13 9.8 1154.08 10.0333 1154.93 10.5C1155.79 10.9667 1156.46 11.6333 1156.95 12.5C1157.45 13.3667 1157.69 14.36 1157.69 15.48C1157.69 16.6 1157.44 17.5933 1156.93 18.46C1156.43 19.3267 1155.73 20 1154.85 20.48C1153.99 20.9467 1153.03 21.18 1151.97 21.18ZM1151.97 19.2C1152.56 19.2 1153.11 19.06 1153.61 18.78C1154.13 18.5 1154.55 18.08 1154.87 17.52C1155.19 16.96 1155.35 16.28 1155.35 15.48C1155.35 14.68 1155.2 14.0067 1154.89 13.46C1154.59 12.9 1154.18 12.48 1153.67 12.2C1153.17 11.92 1152.62 11.78 1152.03 11.78C1151.45 11.78 1150.9 11.92 1150.39 12.2C1149.9 12.48 1149.51 12.9 1149.21 13.46C1148.92 14.0067 1148.77 14.68 1148.77 15.48C1148.77 16.6667 1149.07 17.5867 1149.67 18.24C1150.29 18.88 1151.05 19.2 1151.97 19.2ZM1162.61 11.84V17.94C1162.61 18.3533 1162.7 18.6533 1162.89 18.84C1163.09 19.0133 1163.42 19.1 1163.89 19.1H1165.29V21H1163.49C1162.46 21 1161.67 20.76 1161.13 20.28C1160.58 19.8 1160.31 19.02 1160.31 17.94V11.84H1159.01V9.98H1160.31V7.24H1162.61V9.98H1165.29V11.84H1162.61ZM1177.49 15.22C1177.49 15.6333 1177.46 16.0067 1177.41 16.34H1168.99C1169.06 17.22 1169.38 17.9267 1169.97 18.46C1170.56 18.9933 1171.28 19.26 1172.13 19.26C1173.36 19.26 1174.22 18.7467 1174.73 17.72H1177.19C1176.86 18.7333 1176.25 19.5667 1175.37 20.22C1174.5 20.86 1173.42 21.18 1172.13 21.18C1171.08 21.18 1170.13 20.9467 1169.29 20.48C1168.46 20 1167.81 19.3333 1167.33 18.48C1166.86 17.6133 1166.63 16.6133 1166.63 15.48C1166.63 14.3467 1166.86 13.3533 1167.31 12.5C1167.78 11.6333 1168.42 10.9667 1169.25 10.5C1170.09 10.0333 1171.05 9.8 1172.13 9.8C1173.17 9.8 1174.1 10.0267 1174.91 10.48C1175.72 10.9333 1176.36 11.5733 1176.81 12.4C1177.26 13.2133 1177.49 14.1533 1177.49 15.22ZM1175.11 14.5C1175.1 13.66 1174.8 12.9867 1174.21 12.48C1173.62 11.9733 1172.9 11.72 1172.03 11.72C1171.24 11.72 1170.57 11.9733 1170.01 12.48C1169.45 12.9733 1169.12 13.6467 1169.01 14.5H1175.11ZM1178.97 15.48C1178.97 14.3467 1179.2 13.3533 1179.65 12.5C1180.12 11.6333 1180.76 10.9667 1181.57 10.5C1182.39 10.0333 1183.32 9.8 1184.37 9.8C1185.71 9.8 1186.81 10.12 1187.67 10.76C1188.55 11.3867 1189.15 12.2867 1189.45 13.46H1186.99C1186.79 12.9133 1186.47 12.4867 1186.03 12.18C1185.59 11.8733 1185.04 11.72 1184.37 11.72C1183.44 11.72 1182.69 12.0533 1182.13 12.72C1181.59 13.3733 1181.31 14.2933 1181.31 15.48C1181.31 16.6667 1181.59 17.5933 1182.13 18.26C1182.69 18.9267 1183.44 19.26 1184.37 19.26C1185.69 19.26 1186.57 18.68 1186.99 17.52H1189.45C1189.13 18.64 1188.53 19.5333 1187.65 20.2C1186.77 20.8533 1185.68 21.18 1184.37 21.18C1183.32 21.18 1182.39 20.9467 1181.57 20.48C1180.76 20 1180.12 19.3333 1179.65 18.48C1179.2 17.6133 1178.97 16.6133 1178.97 15.48ZM1190.97 15.48C1190.97 14.3467 1191.19 13.3533 1191.65 12.5C1192.11 11.6333 1192.75 10.9667 1193.57 10.5C1194.38 10.0333 1195.31 9.8 1196.37 9.8C1197.7 9.8 1198.8 10.12 1199.67 10.76C1200.55 11.3867 1201.14 12.2867 1201.45 13.46H1198.99C1198.79 12.9133 1198.47 12.4867 1198.03 12.18C1197.59 11.8733 1197.03 11.72 1196.37 11.72C1195.43 11.72 1194.69 12.0533 1194.13 12.72C1193.58 13.3733 1193.31 14.2933 1193.31 15.48C1193.31 16.6667 1193.58 17.5933 1194.13 18.26C1194.69 18.9267 1195.43 19.26 1196.37 19.26C1197.69 19.26 1198.56 18.68 1198.99 17.52H1201.45C1201.13 18.64 1200.53 19.5333 1199.65 20.2C1198.77 20.8533 1197.67 21.18 1196.37 21.18C1195.31 21.18 1194.38 20.9467 1193.57 20.48C1192.75 20 1192.11 19.3333 1191.65 18.48C1191.19 17.6133 1190.97 16.6133 1190.97 15.48ZM1204.88 8.52C1204.46 8.52 1204.12 8.38 1203.84 8.1C1203.56 7.82 1203.42 7.47333 1203.42 7.06C1203.42 6.64667 1203.56 6.3 1203.84 6.02C1204.12 5.74 1204.46 5.6 1204.88 5.6C1205.28 5.6 1205.62 5.74 1205.9 6.02C1206.18 6.3 1206.32 6.64667 1206.32 7.06C1206.32 7.47333 1206.18 7.82 1205.9 8.1C1205.62 8.38 1205.28 8.52 1204.88 8.52ZM1206 9.98V21H1203.72V9.98H1206ZM1213.77 21.18C1212.73 21.18 1211.79 20.9467 1210.95 20.48C1210.11 20 1209.45 19.3333 1208.97 18.48C1208.49 17.6133 1208.25 16.6133 1208.25 15.48C1208.25 14.36 1208.5 13.3667 1208.99 12.5C1209.48 11.6333 1210.16 10.9667 1211.01 10.5C1211.86 10.0333 1212.82 9.8 1213.87 9.8C1214.92 9.8 1215.88 10.0333 1216.73 10.5C1217.58 10.9667 1218.26 11.6333 1218.75 12.5C1219.24 13.3667 1219.49 14.36 1219.49 15.48C1219.49 16.6 1219.24 17.5933 1218.73 18.46C1218.22 19.3267 1217.53 20 1216.65 20.48C1215.78 20.9467 1214.82 21.18 1213.77 21.18ZM1213.77 19.2C1214.36 19.2 1214.9 19.06 1215.41 18.78C1215.93 18.5 1216.35 18.08 1216.67 17.52C1216.99 16.96 1217.15 16.28 1217.15 15.48C1217.15 14.68 1217 14.0067 1216.69 13.46C1216.38 12.9 1215.98 12.48 1215.47 12.2C1214.96 11.92 1214.42 11.78 1213.83 11.78C1213.24 11.78 1212.7 11.92 1212.19 12.2C1211.7 12.48 1211.3 12.9 1211.01 13.46C1210.72 14.0067 1210.57 14.68 1210.57 15.48C1210.57 16.6667 1210.87 17.5867 1211.47 18.24C1212.08 18.88 1212.85 19.2 1213.77 19.2ZM1215.93 6.84L1211.51 9.02V7.34L1215.93 4.9V6.84ZM1227.31 9.8C1228.17 9.8 1228.95 9.98 1229.63 10.34C1230.32 10.7 1230.86 11.2333 1231.25 11.94C1231.63 12.6467 1231.83 13.5 1231.83 14.5V21H1229.57V14.84C1229.57 13.8533 1229.32 13.1 1228.83 12.58C1228.33 12.0467 1227.66 11.78 1226.81 11.78C1225.95 11.78 1225.27 12.0467 1224.77 12.58C1224.27 13.1 1224.03 13.8533 1224.03 14.84V21H1221.75V9.98H1224.03V11.24C1224.4 10.7867 1224.87 10.4333 1225.45 10.18C1226.03 9.92667 1226.65 9.8 1227.31 9.8ZM1242.19 7.1V15.96C1242.19 17.0133 1242.46 17.8067 1243.01 18.34C1243.57 18.8733 1244.34 19.14 1245.33 19.14C1246.33 19.14 1247.1 18.8733 1247.65 18.34C1248.21 17.8067 1248.49 17.0133 1248.49 15.96V7.1H1250.77V15.92C1250.77 17.0533 1250.52 18.0133 1250.03 18.8C1249.54 19.5867 1248.88 20.1733 1248.05 20.56C1247.22 20.9467 1246.31 21.14 1245.31 21.14C1244.31 21.14 1243.4 20.9467 1242.57 20.56C1241.76 20.1733 1241.11 19.5867 1240.63 18.8C1240.15 18.0133 1239.91 17.0533 1239.91 15.92V7.1H1242.19ZM1265.72 7.1L1260.5 21H1257.86L1252.62 7.1H1255.06L1259.18 18.66L1263.32 7.1H1265.72Z" fill="#2F4159"/>
<path d="M669.261 121.432C669.261 120.072 669.574 118.852 670.201 117.772C670.841 116.692 671.701 115.852 672.781 115.252C673.874 114.639 675.067 114.332 676.361 114.332C677.841 114.332 679.154 114.699 680.301 115.432C681.461 116.152 682.301 117.179 682.821 118.512H680.081C679.721 117.779 679.221 117.232 678.581 116.872C677.941 116.512 677.201 116.332 676.361 116.332C675.441 116.332 674.621 116.539 673.901 116.952C673.181 117.365 672.614 117.959 672.201 118.732C671.801 119.505 671.601 120.405 671.601 121.432C671.601 122.459 671.801 123.359 672.201 124.132C672.614 124.905 673.181 125.505 673.901 125.932C674.621 126.345 675.441 126.552 676.361 126.552C677.201 126.552 677.941 126.372 678.581 126.012C679.221 125.652 679.721 125.105 680.081 124.372H682.821C682.301 125.705 681.461 126.732 680.301 127.452C679.154 128.172 677.841 128.532 676.361 128.532C675.054 128.532 673.861 128.232 672.781 127.632C671.701 127.019 670.841 126.172 670.201 125.092C669.574 124.012 669.261 122.792 669.261 121.432ZM684.729 122.852C684.729 121.745 684.956 120.765 685.409 119.912C685.876 119.059 686.503 118.399 687.289 117.932C688.089 117.452 688.969 117.212 689.929 117.212C690.796 117.212 691.549 117.385 692.189 117.732C692.843 118.065 693.363 118.485 693.749 118.992V117.392H696.049V128.412H693.749V126.772C693.363 127.292 692.836 127.725 692.169 128.072C691.503 128.419 690.743 128.592 689.889 128.592C688.943 128.592 688.076 128.352 687.289 127.872C686.503 127.379 685.876 126.699 685.409 125.832C684.956 124.952 684.729 123.959 684.729 122.852ZM693.749 122.892C693.749 122.132 693.589 121.472 693.269 120.912C692.963 120.352 692.556 119.925 692.049 119.632C691.543 119.339 690.996 119.192 690.409 119.192C689.823 119.192 689.276 119.339 688.769 119.632C688.263 119.912 687.849 120.332 687.529 120.892C687.223 121.439 687.069 122.092 687.069 122.852C687.069 123.612 687.223 124.279 687.529 124.852C687.849 125.425 688.263 125.865 688.769 126.172C689.289 126.465 689.836 126.612 690.409 126.612C690.996 126.612 691.543 126.465 692.049 126.172C692.556 125.879 692.963 125.452 693.269 124.892C693.589 124.319 693.749 123.652 693.749 122.892ZM701.324 119.012C701.711 118.505 702.237 118.079 702.904 117.732C703.571 117.385 704.324 117.212 705.164 117.212C706.124 117.212 706.997 117.452 707.784 117.932C708.584 118.399 709.211 119.059 709.664 119.912C710.117 120.765 710.344 121.745 710.344 122.852C710.344 123.959 710.117 124.952 709.664 125.832C709.211 126.699 708.584 127.379 707.784 127.872C706.997 128.352 706.124 128.592 705.164 128.592C704.324 128.592 703.577 128.425 702.924 128.092C702.271 127.745 701.737 127.319 701.324 126.812V133.652H699.044V117.392H701.324V119.012ZM708.024 122.852C708.024 122.092 707.864 121.439 707.544 120.892C707.237 120.332 706.824 119.912 706.304 119.632C705.797 119.339 705.251 119.192 704.664 119.192C704.091 119.192 703.544 119.339 703.024 119.632C702.517 119.925 702.104 120.352 701.784 120.912C701.477 121.472 701.324 122.132 701.324 122.892C701.324 123.652 701.477 124.319 701.784 124.892C702.104 125.452 702.517 125.879 703.024 126.172C703.544 126.465 704.091 126.612 704.664 126.612C705.251 126.612 705.797 126.465 706.304 126.172C706.824 125.865 707.237 125.425 707.544 124.852C707.864 124.279 708.024 123.612 708.024 122.852ZM711.839 122.852C711.839 121.745 712.065 120.765 712.519 119.912C712.985 119.059 713.612 118.399 714.399 117.932C715.199 117.452 716.079 117.212 717.039 117.212C717.905 117.212 718.659 117.385 719.299 117.732C719.952 118.065 720.472 118.485 720.859 118.992V117.392H723.159V128.412H720.859V126.772C720.472 127.292 719.945 127.725 719.279 128.072C718.612 128.419 717.852 128.592 716.999 128.592C716.052 128.592 715.185 128.352 714.399 127.872C713.612 127.379 712.985 126.699 712.519 125.832C712.065 124.952 711.839 123.959 711.839 122.852ZM720.859 122.892C720.859 122.132 720.699 121.472 720.379 120.912C720.072 120.352 719.665 119.925 719.159 119.632C718.652 119.339 718.105 119.192 717.519 119.192C716.932 119.192 716.385 119.339 715.879 119.632C715.372 119.912 714.959 120.332 714.639 120.892C714.332 121.439 714.179 122.092 714.179 122.852C714.179 123.612 714.332 124.279 714.639 124.852C714.959 125.425 715.372 125.865 715.879 126.172C716.399 126.465 716.945 126.612 717.519 126.612C718.105 126.612 718.652 126.465 719.159 126.172C719.665 125.879 720.072 125.452 720.379 124.892C720.699 124.319 720.859 123.652 720.859 122.892ZM730.589 122.852C730.589 121.745 730.815 120.765 731.269 119.912C731.735 119.059 732.362 118.399 733.149 117.932C733.949 117.452 734.835 117.212 735.809 117.212C736.529 117.212 737.235 117.372 737.929 117.692C738.635 117.999 739.195 118.412 739.609 118.932V113.612H741.909V128.412H739.609V126.752C739.235 127.285 738.715 127.725 738.049 128.072C737.395 128.419 736.642 128.592 735.789 128.592C734.829 128.592 733.949 128.352 733.149 127.872C732.362 127.379 731.735 126.699 731.269 125.832C730.815 124.952 730.589 123.959 730.589 122.852ZM739.609 122.892C739.609 122.132 739.449 121.472 739.129 120.912C738.822 120.352 738.415 119.925 737.909 119.632C737.402 119.339 736.855 119.192 736.269 119.192C735.682 119.192 735.135 119.339 734.629 119.632C734.122 119.912 733.709 120.332 733.389 120.892C733.082 121.439 732.929 122.092 732.929 122.852C732.929 123.612 733.082 124.279 733.389 124.852C733.709 125.425 734.122 125.865 734.629 126.172C735.149 126.465 735.695 126.612 736.269 126.612C736.855 126.612 737.402 126.465 737.909 126.172C738.415 125.879 738.822 125.452 739.129 124.892C739.449 124.319 739.609 123.652 739.609 122.892ZM755.003 122.632C755.003 123.045 754.977 123.419 754.923 123.752H746.503C746.57 124.632 746.897 125.339 747.483 125.872C748.07 126.405 748.79 126.672 749.643 126.672C750.87 126.672 751.737 126.159 752.243 125.132H754.703C754.37 126.145 753.763 126.979 752.883 127.632C752.017 128.272 750.937 128.592 749.643 128.592C748.59 128.592 747.643 128.359 746.803 127.892C745.977 127.412 745.323 126.745 744.843 125.892C744.377 125.025 744.143 124.025 744.143 122.892C744.143 121.759 744.37 120.765 744.823 119.912C745.29 119.045 745.937 118.379 746.763 117.912C747.603 117.445 748.563 117.212 749.643 117.212C750.683 117.212 751.61 117.439 752.423 117.892C753.237 118.345 753.87 118.985 754.323 119.812C754.777 120.625 755.003 121.565 755.003 122.632ZM752.623 121.912C752.61 121.072 752.31 120.399 751.723 119.892C751.137 119.385 750.41 119.132 749.543 119.132C748.757 119.132 748.083 119.385 747.523 119.892C746.963 120.385 746.63 121.059 746.523 121.912H752.623ZM761.682 122.852C761.682 121.745 761.909 120.765 762.362 119.912C762.829 119.059 763.456 118.399 764.242 117.932C765.042 117.452 765.929 117.212 766.902 117.212C767.622 117.212 768.329 117.372 769.022 117.692C769.729 117.999 770.289 118.412 770.702 118.932V113.612H773.002V128.412H770.702V126.752C770.329 127.285 769.809 127.725 769.142 128.072C768.489 128.419 767.736 128.592 766.882 128.592C765.922 128.592 765.042 128.352 764.242 127.872C763.456 127.379 762.829 126.699 762.362 125.832C761.909 124.952 761.682 123.959 761.682 122.852ZM770.702 122.892C770.702 122.132 770.542 121.472 770.222 120.912C769.916 120.352 769.509 119.925 769.002 119.632C768.496 119.339 767.949 119.192 767.362 119.192C766.776 119.192 766.229 119.339 765.722 119.632C765.216 119.912 764.802 120.332 764.482 120.892C764.176 121.439 764.022 122.092 764.022 122.852C764.022 123.612 764.176 124.279 764.482 124.852C764.802 125.425 765.216 125.865 765.722 126.172C766.242 126.465 766.789 126.612 767.362 126.612C767.949 126.612 768.496 126.465 769.002 126.172C769.509 125.879 769.916 125.452 770.222 124.892C770.542 124.319 770.702 123.652 770.702 122.892ZM786.097 122.632C786.097 123.045 786.07 123.419 786.017 123.752H777.597C777.664 124.632 777.99 125.339 778.577 125.872C779.164 126.405 779.884 126.672 780.737 126.672C781.964 126.672 782.83 126.159 783.337 125.132H785.797C785.464 126.145 784.857 126.979 783.977 127.632C783.11 128.272 782.03 128.592 780.737 128.592C779.684 128.592 778.737 128.359 777.897 127.892C777.07 127.412 776.417 126.745 775.937 125.892C775.47 125.025 775.237 124.025 775.237 122.892C775.237 121.759 775.464 120.765 775.917 119.912C776.384 119.045 777.03 118.379 777.857 117.912C778.697 117.445 779.657 117.212 780.737 117.212C781.777 117.212 782.704 117.439 783.517 117.892C784.33 118.345 784.964 118.985 785.417 119.812C785.87 120.625 786.097 121.565 786.097 122.632ZM783.717 121.912C783.704 121.072 783.404 120.399 782.817 119.892C782.23 119.385 781.504 119.132 780.637 119.132C779.85 119.132 779.177 119.385 778.617 119.892C778.057 120.385 777.724 121.059 777.617 121.912H783.717ZM792.341 128.592C791.474 128.592 790.694 128.439 790.001 128.132C789.321 127.812 788.781 127.385 788.381 126.852C787.981 126.305 787.767 125.699 787.741 125.032H790.101C790.141 125.499 790.361 125.892 790.761 126.212C791.174 126.519 791.687 126.672 792.301 126.672C792.941 126.672 793.434 126.552 793.781 126.312C794.141 126.059 794.321 125.739 794.321 125.352C794.321 124.939 794.121 124.632 793.721 124.432C793.334 124.232 792.714 124.012 791.861 123.772C791.034 123.545 790.361 123.325 789.841 123.112C789.321 122.899 788.867 122.572 788.481 122.132C788.107 121.692 787.921 121.112 787.921 120.392C787.921 119.805 788.094 119.272 788.441 118.792C788.787 118.299 789.281 117.912 789.921 117.632C790.574 117.352 791.321 117.212 792.161 117.212C793.414 117.212 794.421 117.532 795.181 118.172C795.954 118.799 796.367 119.659 796.421 120.752H794.141C794.101 120.259 793.901 119.865 793.541 119.572C793.181 119.279 792.694 119.132 792.081 119.132C791.481 119.132 791.021 119.245 790.701 119.472C790.381 119.699 790.221 119.999 790.221 120.372C790.221 120.665 790.327 120.912 790.541 121.112C790.754 121.312 791.014 121.472 791.321 121.592C791.627 121.699 792.081 121.839 792.681 122.012C793.481 122.225 794.134 122.445 794.641 122.672C795.161 122.885 795.607 123.205 795.981 123.632C796.354 124.059 796.547 124.625 796.561 125.332C796.561 125.959 796.387 126.519 796.041 127.012C795.694 127.505 795.201 127.892 794.561 128.172C793.934 128.452 793.194 128.592 792.341 128.592ZM803.464 117.212C804.318 117.212 805.071 117.385 805.724 117.732C806.391 118.065 806.911 118.485 807.284 118.992V117.392H809.584V128.592C809.584 129.605 809.371 130.505 808.944 131.292C808.518 132.092 807.898 132.719 807.084 133.172C806.284 133.625 805.324 133.852 804.204 133.852C802.711 133.852 801.471 133.499 800.484 132.792C799.498 132.099 798.938 131.152 798.804 129.952H801.064C801.238 130.525 801.604 130.985 802.164 131.332C802.738 131.692 803.418 131.872 804.204 131.872C805.124 131.872 805.864 131.592 806.424 131.032C806.998 130.472 807.284 129.659 807.284 128.592V126.752C806.898 127.272 806.371 127.712 805.704 128.072C805.051 128.419 804.304 128.592 803.464 128.592C802.504 128.592 801.624 128.352 800.824 127.872C800.038 127.379 799.411 126.699 798.944 125.832C798.491 124.952 798.264 123.959 798.264 122.852C798.264 121.745 798.491 120.765 798.944 119.912C799.411 119.059 800.038 118.399 800.824 117.932C801.624 117.452 802.504 117.212 803.464 117.212ZM807.284 122.892C807.284 122.132 807.124 121.472 806.804 120.912C806.498 120.352 806.091 119.925 805.584 119.632C805.078 119.339 804.531 119.192 803.944 119.192C803.358 119.192 802.811 119.339 802.304 119.632C801.798 119.912 801.384 120.332 801.064 120.892C800.758 121.439 800.604 122.092 800.604 122.852C800.604 123.612 800.758 124.279 801.064 124.852C801.384 125.425 801.798 125.865 802.304 126.172C802.824 126.465 803.371 126.612 803.944 126.612C804.531 126.612 805.078 126.465 805.584 126.172C806.091 125.879 806.498 125.452 806.804 124.892C807.124 124.319 807.284 123.652 807.284 122.892ZM811.819 122.852C811.819 121.745 812.046 120.765 812.499 119.912C812.966 119.059 813.592 118.399 814.379 117.932C815.179 117.452 816.059 117.212 817.019 117.212C817.886 117.212 818.639 117.385 819.279 117.732C819.932 118.065 820.452 118.485 820.839 118.992V117.392H823.139V128.412H820.839V126.772C820.452 127.292 819.926 127.725 819.259 128.072C818.592 128.419 817.832 128.592 816.979 128.592C816.032 128.592 815.166 128.352 814.379 127.872C813.592 127.379 812.966 126.699 812.499 125.832C812.046 124.952 811.819 123.959 811.819 122.852ZM820.839 122.892C820.839 122.132 820.679 121.472 820.359 120.912C820.052 120.352 819.646 119.925 819.139 119.632C818.632 119.339 818.086 119.192 817.499 119.192C816.912 119.192 816.366 119.339 815.859 119.632C815.352 119.912 814.939 120.332 814.619 120.892C814.312 121.439 814.159 122.092 814.159 122.852C814.159 123.612 814.312 124.279 814.619 124.852C814.939 125.425 815.352 125.865 815.859 126.172C816.379 126.465 816.926 126.612 817.499 126.612C818.086 126.612 818.632 126.465 819.139 126.172C819.646 125.879 820.052 125.452 820.359 124.892C820.679 124.319 820.839 123.652 820.839 122.892ZM830.134 128.592C829.267 128.592 828.487 128.439 827.794 128.132C827.114 127.812 826.574 127.385 826.174 126.852C825.774 126.305 825.56 125.699 825.534 125.032H827.894C827.934 125.499 828.154 125.892 828.554 126.212C828.967 126.519 829.48 126.672 830.094 126.672C830.734 126.672 831.227 126.552 831.574 126.312C831.934 126.059 832.114 125.739 832.114 125.352C832.114 124.939 831.914 124.632 831.514 124.432C831.127 124.232 830.507 124.012 829.654 123.772C828.827 123.545 828.154 123.325 827.634 123.112C827.114 122.899 826.66 122.572 826.274 122.132C825.9 121.692 825.714 121.112 825.714 120.392C825.714 119.805 825.887 119.272 826.234 118.792C826.58 118.299 827.074 117.912 827.714 117.632C828.367 117.352 829.114 117.212 829.954 117.212C831.207 117.212 832.214 117.532 832.974 118.172C833.747 118.799 834.16 119.659 834.214 120.752H831.934C831.894 120.259 831.694 119.865 831.334 119.572C830.974 119.279 830.487 119.132 829.874 119.132C829.274 119.132 828.814 119.245 828.494 119.472C828.174 119.699 828.014 119.999 828.014 120.372C828.014 120.665 828.12 120.912 828.334 121.112C828.547 121.312 828.807 121.472 829.114 121.592C829.42 121.699 829.874 121.839 830.474 122.012C831.274 122.225 831.927 122.445 832.434 122.672C832.954 122.885 833.4 123.205 833.774 123.632C834.147 124.059 834.34 124.625 834.354 125.332C834.354 125.959 834.18 126.519 833.834 127.012C833.487 127.505 832.994 127.892 832.354 128.172C831.727 128.452 830.987 128.592 830.134 128.592ZM839.477 119.252V125.352C839.477 125.765 839.571 126.065 839.757 126.252C839.957 126.425 840.291 126.512 840.757 126.512H842.157V128.412H840.357C839.331 128.412 838.544 128.172 837.997 127.692C837.451 127.212 837.177 126.432 837.177 125.352V119.252H835.877V117.392H837.177V114.652H839.477V117.392H842.157V119.252H839.477ZM854.359 122.632C854.359 123.045 854.332 123.419 854.279 123.752H845.859C845.925 124.632 846.252 125.339 846.839 125.872C847.425 126.405 848.145 126.672 848.999 126.672C850.225 126.672 851.092 126.159 851.599 125.132H854.059C853.725 126.145 853.119 126.979 852.239 127.632C851.372 128.272 850.292 128.592 848.999 128.592C847.945 128.592 846.999 128.359 846.159 127.892C845.332 127.412 844.679 126.745 844.199 125.892C843.732 125.025 843.499 124.025 843.499 122.892C843.499 121.759 843.725 120.765 844.179 119.912C844.645 119.045 845.292 118.379 846.119 117.912C846.959 117.445 847.919 117.212 848.999 117.212C850.039 117.212 850.965 117.439 851.779 117.892C852.592 118.345 853.225 118.985 853.679 119.812C854.132 120.625 854.359 121.565 854.359 122.632ZM851.979 121.912C851.965 121.072 851.665 120.399 851.079 119.892C850.492 119.385 849.765 119.132 848.899 119.132C848.112 119.132 847.439 119.385 846.879 119.892C846.319 120.385 845.985 121.059 845.879 121.912H851.979Z" fill="#2F4159"/>
<path d="M76.22 281.371C76.22 282.078 76.0533 282.744 75.72 283.371C75.3867 283.998 74.8533 284.511 74.12 284.911C73.3867 285.298 72.4467 285.491 71.3 285.491H68.78V291.131H66.5V277.231H71.3C72.3667 277.231 73.2667 277.418 74 277.791C74.7467 278.151 75.3 278.644 75.66 279.271C76.0333 279.898 76.22 280.598 76.22 281.371ZM71.3 283.631C72.1667 283.631 72.8133 283.438 73.24 283.051C73.6667 282.651 73.88 282.091 73.88 281.371C73.88 279.851 73.02 279.091 71.3 279.091H68.78V283.631H71.3ZM88.4945 285.351C88.4945 285.764 88.4679 286.138 88.4145 286.471H79.9945C80.0612 287.351 80.3879 288.058 80.9745 288.591C81.5612 289.124 82.2812 289.391 83.1345 289.391C84.3612 289.391 85.2279 288.878 85.7345 287.851H88.1945C87.8612 288.864 87.2545 289.698 86.3745 290.351C85.5079 290.991 84.4279 291.311 83.1345 291.311C82.0812 291.311 81.1345 291.078 80.2945 290.611C79.4679 290.131 78.8145 289.464 78.3345 288.611C77.8679 287.744 77.6345 286.744 77.6345 285.611C77.6345 284.478 77.8612 283.484 78.3145 282.631C78.7812 281.764 79.4279 281.098 80.2545 280.631C81.0945 280.164 82.0545 279.931 83.1345 279.931C84.1745 279.931 85.1012 280.158 85.9145 280.611C86.7279 281.064 87.3612 281.704 87.8145 282.531C88.2679 283.344 88.4945 284.284 88.4945 285.351ZM86.1145 284.631C86.1012 283.791 85.8012 283.118 85.2145 282.611C84.6279 282.104 83.9012 281.851 83.0345 281.851C82.2479 281.851 81.5745 282.104 81.0145 282.611C80.4545 283.104 80.1212 283.778 80.0145 284.631H86.1145ZM93.0183 276.331V291.131H90.7383V276.331H93.0183ZM98.2917 280.111V291.131H96.0117V280.111H98.2917ZM99.2117 277.151L94.7917 279.331V277.651L99.2117 275.211V277.151ZM100.525 285.611C100.525 284.478 100.752 283.484 101.205 282.631C101.672 281.764 102.312 281.098 103.125 280.631C103.938 280.164 104.872 279.931 105.925 279.931C107.258 279.931 108.358 280.251 109.225 280.891C110.105 281.518 110.698 282.418 111.005 283.591H108.545C108.345 283.044 108.025 282.618 107.585 282.311C107.145 282.004 106.592 281.851 105.925 281.851C104.992 281.851 104.245 282.184 103.685 282.851C103.138 283.504 102.865 284.424 102.865 285.611C102.865 286.798 103.138 287.724 103.685 288.391C104.245 289.058 104.992 289.391 105.925 289.391C107.245 289.391 108.118 288.811 108.545 287.651H111.005C110.685 288.771 110.085 289.664 109.205 290.331C108.325 290.984 107.232 291.311 105.925 291.311C104.872 291.311 103.938 291.078 103.125 290.611C102.312 290.131 101.672 289.464 101.205 288.611C100.752 287.744 100.525 286.744 100.525 285.611ZM123.257 280.111V291.131H120.977V289.831C120.617 290.284 120.144 290.644 119.557 290.911C118.984 291.164 118.371 291.291 117.717 291.291C116.851 291.291 116.071 291.111 115.377 290.751C114.697 290.391 114.157 289.858 113.757 289.151C113.371 288.444 113.177 287.591 113.177 286.591V280.111H115.437V286.251C115.437 287.238 115.684 287.998 116.177 288.531C116.671 289.051 117.344 289.311 118.197 289.311C119.051 289.311 119.724 289.051 120.217 288.531C120.724 287.998 120.977 287.238 120.977 286.251V280.111H123.257ZM128.546 276.331V291.131H126.266V276.331H128.546ZM130.779 285.571C130.779 284.464 131.006 283.484 131.459 282.631C131.926 281.778 132.552 281.118 133.339 280.651C134.139 280.171 135.019 279.931 135.979 279.931C136.846 279.931 137.599 280.104 138.239 280.451C138.892 280.784 139.412 281.204 139.799 281.711V280.111H142.099V291.131H139.799V289.491C139.412 290.011 138.886 290.444 138.219 290.791C137.552 291.138 136.792 291.311 135.939 291.311C134.992 291.311 134.126 291.071 133.339 290.591C132.552 290.098 131.926 289.418 131.459 288.551C131.006 287.671 130.779 286.678 130.779 285.571ZM139.799 285.611C139.799 284.851 139.639 284.191 139.319 283.631C139.012 283.071 138.606 282.644 138.099 282.351C137.592 282.058 137.046 281.911 136.459 281.911C135.872 281.911 135.326 282.058 134.819 282.351C134.312 282.631 133.899 283.051 133.579 283.611C133.272 284.158 133.119 284.811 133.119 285.571C133.119 286.331 133.272 286.998 133.579 287.571C133.899 288.144 134.312 288.584 134.819 288.891C135.339 289.184 135.886 289.331 136.459 289.331C137.046 289.331 137.592 289.184 138.099 288.891C138.606 288.598 139.012 288.171 139.319 287.611C139.639 287.038 139.799 286.371 139.799 285.611ZM149.529 285.571C149.529 284.464 149.756 283.484 150.209 282.631C150.676 281.778 151.302 281.118 152.089 280.651C152.889 280.171 153.776 279.931 154.749 279.931C155.469 279.931 156.176 280.091 156.869 280.411C157.576 280.718 158.136 281.131 158.549 281.651V276.331H160.849V291.131H158.549V289.471C158.176 290.004 157.656 290.444 156.989 290.791C156.336 291.138 155.582 291.311 154.729 291.311C153.769 291.311 152.889 291.071 152.089 290.591C151.302 290.098 150.676 289.418 150.209 288.551C149.756 287.671 149.529 286.678 149.529 285.571ZM158.549 285.611C158.549 284.851 158.389 284.191 158.069 283.631C157.762 283.071 157.356 282.644 156.849 282.351C156.342 282.058 155.796 281.911 155.209 281.911C154.622 281.911 154.076 282.058 153.569 282.351C153.062 282.631 152.649 283.051 152.329 283.611C152.022 284.158 151.869 284.811 151.869 285.571C151.869 286.331 152.022 286.998 152.329 287.571C152.649 288.144 153.062 288.584 153.569 288.891C154.089 289.184 154.636 289.331 155.209 289.331C155.796 289.331 156.342 289.184 156.849 288.891C157.356 288.598 157.762 288.171 158.069 287.611C158.389 287.038 158.549 286.371 158.549 285.611ZM173.944 285.351C173.944 285.764 173.917 286.138 173.864 286.471H165.444C165.51 287.351 165.837 288.058 166.424 288.591C167.01 289.124 167.73 289.391 168.584 289.391C169.81 289.391 170.677 288.878 171.184 287.851H173.644C173.31 288.864 172.704 289.698 171.824 290.351C170.957 290.991 169.877 291.311 168.584 291.311C167.53 291.311 166.584 291.078 165.744 290.611C164.917 290.131 164.264 289.464 163.784 288.611C163.317 287.744 163.084 286.744 163.084 285.611C163.084 284.478 163.31 283.484 163.764 282.631C164.23 281.764 164.877 281.098 165.704 280.631C166.544 280.164 167.504 279.931 168.584 279.931C169.624 279.931 170.55 280.158 171.364 280.611C172.177 281.064 172.81 281.704 173.264 282.531C173.717 283.344 173.944 284.284 173.944 285.351ZM171.564 284.631C171.55 283.791 171.25 283.118 170.664 282.611C170.077 282.104 169.35 281.851 168.484 281.851C167.697 281.851 167.024 282.104 166.464 282.611C165.904 283.104 165.57 283.778 165.464 284.631H171.564ZM180.623 285.611C180.623 284.478 180.849 283.484 181.303 282.631C181.769 281.764 182.409 281.098 183.223 280.631C184.036 280.164 184.969 279.931 186.023 279.931C187.356 279.931 188.456 280.251 189.323 280.891C190.203 281.518 190.796 282.418 191.103 283.591H188.643C188.443 283.044 188.123 282.618 187.683 282.311C187.243 282.004 186.689 281.851 186.023 281.851C185.089 281.851 184.343 282.184 183.783 282.851C183.236 283.504 182.963 284.424 182.963 285.611C182.963 286.798 183.236 287.724 183.783 288.391C184.343 289.058 185.089 289.391 186.023 289.391C187.343 289.391 188.216 288.811 188.643 287.651H191.103C190.783 288.771 190.183 289.664 189.303 290.331C188.423 290.984 187.329 291.311 186.023 291.311C184.969 291.311 184.036 291.078 183.223 290.611C182.409 290.131 181.769 289.464 181.303 288.611C180.849 287.744 180.623 286.744 180.623 285.611ZM198.155 291.311C197.115 291.311 196.175 291.078 195.335 290.611C194.495 290.131 193.835 289.464 193.355 288.611C192.875 287.744 192.635 286.744 192.635 285.611C192.635 284.491 192.882 283.498 193.375 282.631C193.868 281.764 194.542 281.098 195.395 280.631C196.248 280.164 197.202 279.931 198.255 279.931C199.308 279.931 200.262 280.164 201.115 280.631C201.968 281.098 202.642 281.764 203.135 282.631C203.628 283.498 203.875 284.491 203.875 285.611C203.875 286.731 203.622 287.724 203.115 288.591C202.608 289.458 201.915 290.131 201.035 290.611C200.168 291.078 199.208 291.311 198.155 291.311ZM198.155 289.331C198.742 289.331 199.288 289.191 199.795 288.911C200.315 288.631 200.735 288.211 201.055 287.651C201.375 287.091 201.535 286.411 201.535 285.611C201.535 284.811 201.382 284.138 201.075 283.591C200.768 283.031 200.362 282.611 199.855 282.331C199.348 282.051 198.802 281.911 198.215 281.911C197.628 281.911 197.082 282.051 196.575 282.331C196.082 282.611 195.688 283.031 195.395 283.591C195.102 284.138 194.955 284.811 194.955 285.611C194.955 286.798 195.255 287.718 195.855 288.371C196.468 289.011 197.235 289.331 198.155 289.331ZM208.409 276.331V291.131H206.129V276.331H208.409ZM216.182 291.311C215.142 291.311 214.202 291.078 213.362 290.611C212.522 290.131 211.862 289.464 211.382 288.611C210.902 287.744 210.662 286.744 210.662 285.611C210.662 284.491 210.909 283.498 211.402 282.631C211.896 281.764 212.569 281.098 213.422 280.631C214.276 280.164 215.229 279.931 216.282 279.931C217.336 279.931 218.289 280.164 219.142 280.631C219.996 281.098 220.669 281.764 221.162 282.631C221.656 283.498 221.902 284.491 221.902 285.611C221.902 286.731 221.649 287.724 221.142 288.591C220.636 289.458 219.942 290.131 219.062 290.611C218.196 291.078 217.236 291.311 216.182 291.311ZM216.182 289.331C216.769 289.331 217.316 289.191 217.822 288.911C218.342 288.631 218.762 288.211 219.082 287.651C219.402 287.091 219.562 286.411 219.562 285.611C219.562 284.811 219.409 284.138 219.102 283.591C218.796 283.031 218.389 282.611 217.882 282.331C217.376 282.051 216.829 281.911 216.242 281.911C215.656 281.911 215.109 282.051 214.602 282.331C214.109 282.611 213.716 283.031 213.422 283.591C213.129 284.138 212.982 284.811 212.982 285.611C212.982 286.798 213.282 287.718 213.882 288.371C214.496 289.011 215.262 289.331 216.182 289.331ZM226.436 281.711C226.77 281.151 227.21 280.718 227.756 280.411C228.316 280.091 228.976 279.931 229.736 279.931V282.291H229.156C228.263 282.291 227.583 282.518 227.116 282.971C226.663 283.424 226.436 284.211 226.436 285.331V291.131H224.156V280.111H226.436V281.711Z" fill="#2F4159"/>
<path d="M12.92 729.598H10.64L3.78 719.218V729.598H1.5V715.678H3.78L10.64 726.038V715.678H12.92V729.598ZM25.8941 718.578V729.598H23.6141V728.298C23.2541 728.751 22.7807 729.111 22.1941 729.378C21.6207 729.631 21.0074 729.758 20.3541 729.758C19.4874 729.758 18.7074 729.578 18.0141 729.218C17.3341 728.858 16.7941 728.324 16.3941 727.618C16.0074 726.911 15.8141 726.058 15.8141 725.058V718.578H18.0741V724.718C18.0741 725.704 18.3207 726.464 18.8141 726.998C19.3074 727.518 19.9807 727.778 20.8341 727.778C21.6874 727.778 22.3607 727.518 22.8541 726.998C23.3607 726.464 23.6141 725.704 23.6141 724.718V718.578H25.8941ZM22.9741 715.618L18.5541 717.798V716.118L22.9741 713.678V715.618ZM28.1423 724.078C28.1423 722.944 28.369 721.951 28.8223 721.098C29.289 720.231 29.929 719.564 30.7423 719.098C31.5557 718.631 32.489 718.398 33.5423 718.398C34.8757 718.398 35.9757 718.718 36.8423 719.358C37.7223 719.984 38.3157 720.884 38.6223 722.058H36.1623C35.9623 721.511 35.6423 721.084 35.2023 720.778C34.7623 720.471 34.209 720.318 33.5423 720.318C32.609 720.318 31.8623 720.651 31.3023 721.318C30.7557 721.971 30.4823 722.891 30.4823 724.078C30.4823 725.264 30.7557 726.191 31.3023 726.858C31.8623 727.524 32.609 727.858 33.5423 727.858C34.8623 727.858 35.7357 727.278 36.1623 726.118H38.6223C38.3023 727.238 37.7023 728.131 36.8223 728.798C35.9423 729.451 34.849 729.778 33.5423 729.778C32.489 729.778 31.5557 729.544 30.7423 729.078C29.929 728.598 29.289 727.931 28.8223 727.078C28.369 726.211 28.1423 725.211 28.1423 724.078ZM43.1745 714.798V729.598H40.8945V714.798H43.1745ZM56.268 723.818C56.268 724.231 56.2413 724.604 56.188 724.938H47.768C47.8346 725.818 48.1613 726.524 48.748 727.058C49.3346 727.591 50.0546 727.858 50.908 727.858C52.1346 727.858 53.0013 727.344 53.508 726.318H55.968C55.6346 727.331 55.028 728.164 54.148 728.818C53.2813 729.458 52.2013 729.778 50.908 729.778C49.8546 729.778 48.908 729.544 48.068 729.078C47.2413 728.598 46.588 727.931 46.108 727.078C45.6413 726.211 45.408 725.211 45.408 724.078C45.408 722.944 45.6346 721.951 46.088 721.098C46.5546 720.231 47.2013 719.564 48.028 719.098C48.868 718.631 49.828 718.398 50.908 718.398C51.948 718.398 52.8746 718.624 53.688 719.078C54.5013 719.531 55.1346 720.171 55.588 720.998C56.0413 721.811 56.268 722.751 56.268 723.818ZM53.888 723.098C53.8746 722.258 53.5746 721.584 52.988 721.078C52.4013 720.571 51.6746 720.318 50.808 720.318C50.0213 720.318 49.348 720.571 48.788 721.078C48.228 721.571 47.8946 722.244 47.788 723.098H53.888ZM63.2917 729.778C62.2517 729.778 61.3117 729.544 60.4717 729.078C59.6317 728.598 58.9717 727.931 58.4917 727.078C58.0117 726.211 57.7717 725.211 57.7717 724.078C57.7717 722.958 58.0184 721.964 58.5117 721.098C59.0051 720.231 59.6784 719.564 60.5317 719.098C61.3851 718.631 62.3384 718.398 63.3917 718.398C64.4451 718.398 65.3984 718.631 66.2517 719.098C67.1051 719.564 67.7784 720.231 68.2717 721.098C68.7651 721.964 69.0117 722.958 69.0117 724.078C69.0117 725.198 68.7584 726.191 68.2517 727.058C67.7451 727.924 67.0517 728.598 66.1717 729.078C65.3051 729.544 64.3451 729.778 63.2917 729.778ZM63.2917 727.798C63.8784 727.798 64.4251 727.658 64.9317 727.378C65.4517 727.098 65.8717 726.678 66.1917 726.118C66.5117 725.558 66.6717 724.878 66.6717 724.078C66.6717 723.278 66.5184 722.604 66.2117 722.058C65.9051 721.498 65.4984 721.078 64.9917 720.798C64.4851 720.518 63.9384 720.378 63.3517 720.378C62.7651 720.378 62.2184 720.518 61.7117 720.798C61.2184 721.078 60.8251 721.498 60.5317 722.058C60.2384 722.604 60.0917 723.278 60.0917 724.078C60.0917 725.264 60.3917 726.184 60.9917 726.838C61.6051 727.478 62.3717 727.798 63.2917 727.798ZM75.7009 724.038C75.7009 722.931 75.9276 721.951 76.3809 721.098C76.8476 720.244 77.4743 719.584 78.2609 719.118C79.0609 718.638 79.9476 718.398 80.9209 718.398C81.6409 718.398 82.3476 718.558 83.0409 718.878C83.7476 719.184 84.3076 719.598 84.7209 720.118V714.798H87.0209V729.598H84.7209V727.938C84.3476 728.471 83.8276 728.911 83.1609 729.258C82.5076 729.604 81.7543 729.778 80.9009 729.778C79.9409 729.778 79.0609 729.538 78.2609 729.058C77.4743 728.564 76.8476 727.884 76.3809 727.018C75.9276 726.138 75.7009 725.144 75.7009 724.038ZM84.7209 724.078C84.7209 723.318 84.5609 722.658 84.2409 722.098C83.9343 721.538 83.5276 721.111 83.0209 720.818C82.5143 720.524 81.9676 720.378 81.3809 720.378C80.7943 720.378 80.2476 720.524 79.7409 720.818C79.2343 721.098 78.8209 721.518 78.5009 722.078C78.1943 722.624 78.0409 723.278 78.0409 724.038C78.0409 724.798 78.1943 725.464 78.5009 726.038C78.8209 726.611 79.2343 727.051 79.7409 727.358C80.2609 727.651 80.8076 727.798 81.3809 727.798C81.9676 727.798 82.5143 727.651 83.0209 727.358C83.5276 727.064 83.9343 726.638 84.2409 726.078C84.5609 725.504 84.7209 724.838 84.7209 724.078ZM100.116 723.818C100.116 724.231 100.089 724.604 100.036 724.938H91.6156C91.6823 725.818 92.009 726.524 92.5956 727.058C93.1823 727.591 93.9023 727.858 94.7556 727.858C95.9823 727.858 96.849 727.344 97.3556 726.318H99.8156C99.4823 727.331 98.8756 728.164 97.9956 728.818C97.129 729.458 96.049 729.778 94.7556 729.778C93.7023 729.778 92.7556 729.544 91.9156 729.078C91.089 728.598 90.4356 727.931 89.9556 727.078C89.489 726.211 89.2556 725.211 89.2556 724.078C89.2556 722.944 89.4823 721.951 89.9356 721.098C90.4023 720.231 91.049 719.564 91.8756 719.098C92.7156 718.631 93.6756 718.398 94.7556 718.398C95.7956 718.398 96.7223 718.624 97.5356 719.078C98.349 719.531 98.9823 720.171 99.4356 720.998C99.889 721.811 100.116 722.751 100.116 723.818ZM97.7356 723.098C97.7223 722.258 97.4223 721.584 96.8356 721.078C96.249 720.571 95.5223 720.318 94.6556 720.318C93.869 720.318 93.1956 720.571 92.6356 721.078C92.0756 721.571 91.7423 722.244 91.6356 723.098H97.7356ZM112.135 729.738C111.201 729.738 110.361 729.578 109.615 729.258C108.868 728.924 108.281 728.458 107.855 727.858C107.428 727.258 107.215 726.558 107.215 725.758H109.655C109.708 726.358 109.941 726.851 110.355 727.238C110.781 727.624 111.375 727.818 112.135 727.818C112.921 727.818 113.535 727.631 113.975 727.258C114.415 726.871 114.635 726.378 114.635 725.778C114.635 725.311 114.495 724.931 114.215 724.638C113.948 724.344 113.608 724.118 113.195 723.958C112.795 723.798 112.235 723.624 111.515 723.438C110.608 723.198 109.868 722.958 109.295 722.718C108.735 722.464 108.255 722.078 107.855 721.558C107.455 721.038 107.255 720.344 107.255 719.478C107.255 718.678 107.455 717.978 107.855 717.378C108.255 716.778 108.815 716.318 109.535 715.998C110.255 715.678 111.088 715.518 112.035 715.518C113.381 715.518 114.481 715.858 115.335 716.538C116.201 717.204 116.681 718.124 116.775 719.298H114.255C114.215 718.791 113.975 718.358 113.535 717.998C113.095 717.638 112.515 717.458 111.795 717.458C111.141 717.458 110.608 717.624 110.195 717.958C109.781 718.291 109.575 718.771 109.575 719.398C109.575 719.824 109.701 720.178 109.955 720.458C110.221 720.724 110.555 720.938 110.955 721.098C111.355 721.258 111.901 721.431 112.595 721.618C113.515 721.871 114.261 722.124 114.835 722.378C115.421 722.631 115.915 723.024 116.315 723.558C116.728 724.078 116.935 724.778 116.935 725.658C116.935 726.364 116.741 727.031 116.355 727.658C115.981 728.284 115.428 728.791 114.695 729.178C113.975 729.551 113.121 729.738 112.135 729.738ZM129.345 719.838C129.345 720.544 129.178 721.211 128.845 721.838C128.512 722.464 127.978 722.978 127.245 723.378C126.512 723.764 125.572 723.958 124.425 723.958H121.905V729.598H119.625V715.698H124.425C125.492 715.698 126.392 715.884 127.125 716.258C127.872 716.618 128.425 717.111 128.785 717.738C129.158 718.364 129.345 719.064 129.345 719.838ZM124.425 722.098C125.292 722.098 125.938 721.904 126.365 721.518C126.792 721.118 127.005 720.558 127.005 719.838C127.005 718.318 126.145 717.558 124.425 717.558H121.905V722.098H124.425ZM130.76 722.618C130.76 721.258 131.073 720.038 131.7 718.958C132.34 717.878 133.2 717.038 134.28 716.438C135.373 715.824 136.566 715.518 137.86 715.518C139.34 715.518 140.653 715.884 141.8 716.618C142.96 717.338 143.8 718.364 144.32 719.698H141.58C141.22 718.964 140.72 718.418 140.08 718.058C139.44 717.698 138.7 717.518 137.86 717.518C136.94 717.518 136.12 717.724 135.4 718.138C134.68 718.551 134.113 719.144 133.7 719.918C133.3 720.691 133.1 721.591 133.1 722.618C133.1 723.644 133.3 724.544 133.7 725.318C134.113 726.091 134.68 726.691 135.4 727.118C136.12 727.531 136.94 727.738 137.86 727.738C138.7 727.738 139.44 727.558 140.08 727.198C140.72 726.838 141.22 726.291 141.58 725.558H144.32C143.8 726.891 142.96 727.918 141.8 728.638C140.653 729.358 139.34 729.718 137.86 729.718C136.553 729.718 135.36 729.418 134.28 728.818C133.2 728.204 132.34 727.358 131.7 726.278C131.073 725.198 130.76 723.978 130.76 722.618Z" fill="#2F4159"/>
<path d="M557.708 949L554.508 943.44H552.768V949H550.488V935.1H555.288C556.355 935.1 557.255 935.287 557.988 935.66C558.735 936.033 559.288 936.533 559.648 937.16C560.022 937.787 560.208 938.487 560.208 939.26C560.208 940.167 559.942 940.993 559.408 941.74C558.888 942.473 558.082 942.973 556.988 943.24L560.428 949H557.708ZM552.768 941.62H555.288C556.142 941.62 556.782 941.407 557.208 940.98C557.648 940.553 557.868 939.98 557.868 939.26C557.868 938.54 557.655 937.98 557.228 937.58C556.802 937.167 556.155 936.96 555.288 936.96H552.768V941.62ZM573.225 943.22C573.225 943.633 573.198 944.007 573.145 944.34H564.725C564.792 945.22 565.118 945.927 565.705 946.46C566.292 946.993 567.012 947.26 567.865 947.26C569.092 947.26 569.958 946.747 570.465 945.72H572.925C572.592 946.733 571.985 947.567 571.105 948.22C570.238 948.86 569.158 949.18 567.865 949.18C566.812 949.18 565.865 948.947 565.025 948.48C564.198 948 563.545 947.333 563.065 946.48C562.598 945.613 562.365 944.613 562.365 943.48C562.365 942.347 562.592 941.353 563.045 940.5C563.512 939.633 564.158 938.967 564.985 938.5C565.825 938.033 566.785 937.8 567.865 937.8C568.905 937.8 569.832 938.027 570.645 938.48C571.458 938.933 572.092 939.573 572.545 940.4C572.998 941.213 573.225 942.153 573.225 943.22ZM570.845 942.5C570.832 941.66 570.532 940.987 569.945 940.48C569.358 939.973 568.632 939.72 567.765 939.72C566.978 939.72 566.305 939.973 565.745 940.48C565.185 940.973 564.852 941.647 564.745 942.5H570.845ZM579.469 949.18C578.602 949.18 577.822 949.027 577.129 948.72C576.449 948.4 575.909 947.973 575.509 947.44C575.109 946.893 574.895 946.287 574.869 945.62H577.229C577.269 946.087 577.489 946.48 577.889 946.8C578.302 947.107 578.815 947.26 579.429 947.26C580.069 947.26 580.562 947.14 580.909 946.9C581.269 946.647 581.449 946.327 581.449 945.94C581.449 945.527 581.249 945.22 580.849 945.02C580.462 944.82 579.842 944.6 578.989 944.36C578.162 944.133 577.489 943.913 576.969 943.7C576.449 943.487 575.995 943.16 575.609 942.72C575.235 942.28 575.049 941.7 575.049 940.98C575.049 940.393 575.222 939.86 575.569 939.38C575.915 938.887 576.409 938.5 577.049 938.22C577.702 937.94 578.449 937.8 579.289 937.8C580.542 937.8 581.549 938.12 582.309 938.76C583.082 939.387 583.495 940.247 583.549 941.34H581.269C581.229 940.847 581.029 940.453 580.669 940.16C580.309 939.867 579.822 939.72 579.209 939.72C578.609 939.72 578.149 939.833 577.829 940.06C577.509 940.287 577.349 940.587 577.349 940.96C577.349 941.253 577.455 941.5 577.669 941.7C577.882 941.9 578.142 942.06 578.449 942.18C578.755 942.287 579.209 942.427 579.809 942.6C580.609 942.813 581.262 943.033 581.769 943.26C582.289 943.473 582.735 943.793 583.109 944.22C583.482 944.647 583.675 945.213 583.689 945.92C583.689 946.547 583.515 947.107 583.169 947.6C582.822 948.093 582.329 948.48 581.689 948.76C581.062 949.04 580.322 949.18 579.469 949.18ZM588.432 939.6C588.819 939.093 589.346 938.667 590.012 938.32C590.679 937.973 591.432 937.8 592.272 937.8C593.232 937.8 594.106 938.04 594.892 938.52C595.692 938.987 596.319 939.647 596.772 940.5C597.226 941.353 597.452 942.333 597.452 943.44C597.452 944.547 597.226 945.54 596.772 946.42C596.319 947.287 595.692 947.967 594.892 948.46C594.106 948.94 593.232 949.18 592.272 949.18C591.432 949.18 590.686 949.013 590.032 948.68C589.379 948.333 588.846 947.907 588.432 947.4V954.24H586.152V937.98H588.432V939.6ZM595.132 943.44C595.132 942.68 594.972 942.027 594.652 941.48C594.346 940.92 593.932 940.5 593.412 940.22C592.906 939.927 592.359 939.78 591.772 939.78C591.199 939.78 590.652 939.927 590.132 940.22C589.626 940.513 589.212 940.94 588.892 941.5C588.586 942.06 588.432 942.72 588.432 943.48C588.432 944.24 588.586 944.907 588.892 945.48C589.212 946.04 589.626 946.467 590.132 946.76C590.652 947.053 591.199 947.2 591.772 947.2C592.359 947.2 592.906 947.053 593.412 946.76C593.932 946.453 594.346 946.013 594.652 945.44C594.972 944.867 595.132 944.2 595.132 943.44ZM598.947 943.44C598.947 942.333 599.174 941.353 599.627 940.5C600.094 939.647 600.72 938.987 601.507 938.52C602.307 938.04 603.187 937.8 604.147 937.8C605.014 937.8 605.767 937.973 606.407 938.32C607.06 938.653 607.58 939.073 607.967 939.58V937.98H610.267V949H607.967V947.36C607.58 947.88 607.054 948.313 606.387 948.66C605.72 949.007 604.96 949.18 604.107 949.18C603.16 949.18 602.294 948.94 601.507 948.46C600.72 947.967 600.094 947.287 599.627 946.42C599.174 945.54 598.947 944.547 598.947 943.44ZM607.967 943.48C607.967 942.72 607.807 942.06 607.487 941.5C607.18 940.94 606.774 940.513 606.267 940.22C605.76 939.927 605.214 939.78 604.627 939.78C604.04 939.78 603.494 939.927 602.987 940.22C602.48 940.5 602.067 940.92 601.747 941.48C601.44 942.027 601.287 942.68 601.287 943.44C601.287 944.2 601.44 944.867 601.747 945.44C602.067 946.013 602.48 946.453 602.987 946.76C603.507 947.053 604.054 947.2 604.627 947.2C605.214 947.2 605.76 947.053 606.267 946.76C606.774 946.467 607.18 946.04 607.487 945.48C607.807 944.907 607.967 944.24 607.967 943.48ZM615.542 934.2V949H613.262V934.2H615.542ZM617.775 943.44C617.775 942.333 618.002 941.353 618.455 940.5C618.922 939.647 619.548 938.987 620.335 938.52C621.135 938.04 622.022 937.8 622.995 937.8C623.715 937.8 624.422 937.96 625.115 938.28C625.822 938.587 626.382 939 626.795 939.52V934.2H629.095V949H626.795V947.34C626.422 947.873 625.902 948.313 625.235 948.66C624.582 949.007 623.828 949.18 622.975 949.18C622.015 949.18 621.135 948.94 620.335 948.46C619.548 947.967 618.922 947.287 618.455 946.42C618.002 945.54 617.775 944.547 617.775 943.44ZM626.795 943.48C626.795 942.72 626.635 942.06 626.315 941.5C626.008 940.94 625.602 940.513 625.095 940.22C624.588 939.927 624.042 939.78 623.455 939.78C622.868 939.78 622.322 939.927 621.815 940.22C621.308 940.5 620.895 940.92 620.575 941.48C620.268 942.027 620.115 942.68 620.115 943.44C620.115 944.2 620.268 944.867 620.575 945.44C620.895 946.013 621.308 946.453 621.815 946.76C622.335 947.053 622.882 947.2 623.455 947.2C624.042 947.2 624.588 947.053 625.095 946.76C625.602 946.467 626.008 946.04 626.315 945.48C626.635 944.907 626.795 944.24 626.795 943.48ZM636.87 949.18C635.83 949.18 634.89 948.947 634.05 948.48C633.21 948 632.55 947.333 632.07 946.48C631.59 945.613 631.35 944.613 631.35 943.48C631.35 942.36 631.597 941.367 632.09 940.5C632.583 939.633 633.257 938.967 634.11 938.5C634.963 938.033 635.917 937.8 636.97 937.8C638.023 937.8 638.977 938.033 639.83 938.5C640.683 938.967 641.357 939.633 641.85 940.5C642.343 941.367 642.59 942.36 642.59 943.48C642.59 944.6 642.337 945.593 641.83 946.46C641.323 947.327 640.63 948 639.75 948.48C638.883 948.947 637.923 949.18 636.87 949.18ZM636.87 947.2C637.457 947.2 638.003 947.06 638.51 946.78C639.03 946.5 639.45 946.08 639.77 945.52C640.09 944.96 640.25 944.28 640.25 943.48C640.25 942.68 640.097 942.007 639.79 941.46C639.483 940.9 639.077 940.48 638.57 940.2C638.063 939.92 637.517 939.78 636.93 939.78C636.343 939.78 635.797 939.92 635.29 940.2C634.797 940.48 634.403 940.9 634.11 941.46C633.817 942.007 633.67 942.68 633.67 943.48C633.67 944.667 633.97 945.587 634.57 946.24C635.183 946.88 635.95 947.2 636.87 947.2ZM649.279 943.44C649.279 942.333 649.506 941.353 649.959 940.5C650.426 939.647 651.052 938.987 651.839 938.52C652.639 938.04 653.526 937.8 654.499 937.8C655.219 937.8 655.926 937.96 656.619 938.28C657.326 938.587 657.886 939 658.299 939.52V934.2H660.599V949H658.299V947.34C657.926 947.873 657.406 948.313 656.739 948.66C656.086 949.007 655.332 949.18 654.479 949.18C653.519 949.18 652.639 948.94 651.839 948.46C651.052 947.967 650.426 947.287 649.959 946.42C649.506 945.54 649.279 944.547 649.279 943.44ZM658.299 943.48C658.299 942.72 658.139 942.06 657.819 941.5C657.512 940.94 657.106 940.513 656.599 940.22C656.092 939.927 655.546 939.78 654.959 939.78C654.372 939.78 653.826 939.927 653.319 940.22C652.812 940.5 652.399 940.92 652.079 941.48C651.772 942.027 651.619 942.68 651.619 943.44C651.619 944.2 651.772 944.867 652.079 945.44C652.399 946.013 652.812 946.453 653.319 946.76C653.839 947.053 654.386 947.2 654.959 947.2C655.546 947.2 656.092 947.053 656.599 946.76C657.106 946.467 657.512 946.04 657.819 945.48C658.139 944.907 658.299 944.24 658.299 943.48ZM673.694 943.22C673.694 943.633 673.667 944.007 673.614 944.34H665.194C665.26 945.22 665.587 945.927 666.174 946.46C666.76 946.993 667.48 947.26 668.334 947.26C669.56 947.26 670.427 946.747 670.934 945.72H673.394C673.06 946.733 672.454 947.567 671.574 948.22C670.707 948.86 669.627 949.18 668.334 949.18C667.28 949.18 666.334 948.947 665.494 948.48C664.667 948 664.014 947.333 663.534 946.48C663.067 945.613 662.834 944.613 662.834 943.48C662.834 942.347 663.06 941.353 663.514 940.5C663.98 939.633 664.627 938.967 665.454 938.5C666.294 938.033 667.254 937.8 668.334 937.8C669.374 937.8 670.3 938.027 671.114 938.48C671.927 938.933 672.56 939.573 673.014 940.4C673.467 941.213 673.694 942.153 673.694 943.22ZM671.314 942.5C671.3 941.66 671 940.987 670.414 940.48C669.827 939.973 669.1 939.72 668.234 939.72C667.447 939.72 666.774 939.973 666.214 940.48C665.654 940.973 665.32 941.647 665.214 942.5H671.314ZM691.233 943.22C691.233 943.633 691.206 944.007 691.153 944.34H682.733C682.799 945.22 683.126 945.927 683.713 946.46C684.299 946.993 685.019 947.26 685.873 947.26C687.099 947.26 687.966 946.747 688.473 945.72H690.933C690.599 946.733 689.993 947.567 689.113 948.22C688.246 948.86 687.166 949.18 685.873 949.18C684.819 949.18 683.873 948.947 683.033 948.48C682.206 948 681.553 947.333 681.073 946.48C680.606 945.613 680.373 944.613 680.373 943.48C680.373 942.347 680.599 941.353 681.053 940.5C681.519 939.633 682.166 938.967 682.993 938.5C683.833 938.033 684.793 937.8 685.873 937.8C686.913 937.8 687.839 938.027 688.653 938.48C689.466 938.933 690.099 939.573 690.553 940.4C691.006 941.213 691.233 942.153 691.233 943.22ZM688.853 942.5C688.839 941.66 688.539 940.987 687.953 940.48C687.366 939.973 686.639 939.72 685.773 939.72C684.986 939.72 684.313 939.973 683.753 940.48C683.193 940.973 682.859 941.647 682.753 942.5H688.853ZM697.477 949.18C696.61 949.18 695.83 949.027 695.137 948.72C694.457 948.4 693.917 947.973 693.517 947.44C693.117 946.893 692.903 946.287 692.877 945.62H695.237C695.277 946.087 695.497 946.48 695.897 946.8C696.31 947.107 696.823 947.26 697.437 947.26C698.077 947.26 698.57 947.14 698.917 946.9C699.277 946.647 699.457 946.327 699.457 945.94C699.457 945.527 699.257 945.22 698.857 945.02C698.47 944.82 697.85 944.6 696.997 944.36C696.17 944.133 695.497 943.913 694.977 943.7C694.457 943.487 694.003 943.16 693.617 942.72C693.243 942.28 693.057 941.7 693.057 940.98C693.057 940.393 693.23 939.86 693.577 939.38C693.923 938.887 694.417 938.5 695.057 938.22C695.71 937.94 696.457 937.8 697.297 937.8C698.55 937.8 699.557 938.12 700.317 938.76C701.09 939.387 701.503 940.247 701.557 941.34H699.277C699.237 940.847 699.037 940.453 698.677 940.16C698.317 939.867 697.83 939.72 697.217 939.72C696.617 939.72 696.157 939.833 695.837 940.06C695.517 940.287 695.357 940.587 695.357 940.96C695.357 941.253 695.463 941.5 695.677 941.7C695.89 941.9 696.15 942.06 696.457 942.18C696.763 942.287 697.217 942.427 697.817 942.6C698.617 942.813 699.27 943.033 699.777 943.26C700.297 943.473 700.743 943.793 701.117 944.22C701.49 944.647 701.683 945.213 701.697 945.92C701.697 946.547 701.523 947.107 701.177 947.6C700.83 948.093 700.337 948.48 699.697 948.76C699.07 949.04 698.33 949.18 697.477 949.18ZM706.44 939.6C706.827 939.093 707.353 938.667 708.02 938.32C708.687 937.973 709.44 937.8 710.28 937.8C711.24 937.8 712.113 938.04 712.9 938.52C713.7 938.987 714.327 939.647 714.78 940.5C715.233 941.353 715.46 942.333 715.46 943.44C715.46 944.547 715.233 945.54 714.78 946.42C714.327 947.287 713.7 947.967 712.9 948.46C712.113 948.94 711.24 949.18 710.28 949.18C709.44 949.18 708.693 949.013 708.04 948.68C707.387 948.333 706.853 947.907 706.44 947.4V954.24H704.16V937.98H706.44V939.6ZM713.14 943.44C713.14 942.68 712.98 942.027 712.66 941.48C712.353 940.92 711.94 940.5 711.42 940.22C710.913 939.927 710.367 939.78 709.78 939.78C709.207 939.78 708.66 939.927 708.14 940.22C707.633 940.513 707.22 940.94 706.9 941.5C706.593 942.06 706.44 942.72 706.44 943.48C706.44 944.24 706.593 944.907 706.9 945.48C707.22 946.04 707.633 946.467 708.14 946.76C708.66 947.053 709.207 947.2 709.78 947.2C710.367 947.2 710.913 947.053 711.42 946.76C711.94 946.453 712.353 946.013 712.66 945.44C712.98 944.867 713.14 944.2 713.14 943.44ZM727.695 937.98V949H725.415V947.7C725.055 948.153 724.582 948.513 723.995 948.78C723.422 949.033 722.808 949.16 722.155 949.16C721.288 949.16 720.508 948.98 719.815 948.62C719.135 948.26 718.595 947.727 718.195 947.02C717.808 946.313 717.615 945.46 717.615 944.46V937.98H719.875V944.12C719.875 945.107 720.122 945.867 720.615 946.4C721.108 946.92 721.782 947.18 722.635 947.18C723.488 947.18 724.162 946.92 724.655 946.4C725.162 945.867 725.415 945.107 725.415 944.12V937.98H727.695ZM744.043 937.8C744.91 937.8 745.683 937.98 746.363 938.34C747.056 938.7 747.596 939.233 747.983 939.94C748.383 940.647 748.583 941.5 748.583 942.5V949H746.323V942.84C746.323 941.853 746.076 941.1 745.583 940.58C745.09 940.047 744.416 939.78 743.563 939.78C742.71 939.78 742.03 940.047 741.523 940.58C741.03 941.1 740.783 941.853 740.783 942.84V949H738.523V942.84C738.523 941.853 738.276 941.1 737.783 940.58C737.29 940.047 736.616 939.78 735.763 939.78C734.91 939.78 734.23 940.047 733.723 940.58C733.23 941.1 732.983 941.853 732.983 942.84V949H730.703V937.98H732.983V939.24C733.356 938.787 733.83 938.433 734.403 938.18C734.976 937.927 735.59 937.8 736.243 937.8C737.123 937.8 737.91 937.987 738.603 938.36C739.296 938.733 739.83 939.273 740.203 939.98C740.536 939.313 741.056 938.787 741.763 938.4C742.47 938 743.23 937.8 744.043 937.8ZM750.724 943.44C750.724 942.333 750.951 941.353 751.404 940.5C751.871 939.647 752.498 938.987 753.284 938.52C754.084 938.04 754.964 937.8 755.924 937.8C756.791 937.8 757.544 937.973 758.184 938.32C758.838 938.653 759.358 939.073 759.744 939.58V937.98H762.044V949H759.744V947.36C759.358 947.88 758.831 948.313 758.164 948.66C757.498 949.007 756.738 949.18 755.884 949.18C754.938 949.18 754.071 948.94 753.284 948.46C752.498 947.967 751.871 947.287 751.404 946.42C750.951 945.54 750.724 944.547 750.724 943.44ZM759.744 943.48C759.744 942.72 759.584 942.06 759.264 941.5C758.958 940.94 758.551 940.513 758.044 940.22C757.538 939.927 756.991 939.78 756.404 939.78C755.818 939.78 755.271 939.927 754.764 940.22C754.258 940.5 753.844 940.92 753.524 941.48C753.218 942.027 753.064 942.68 753.064 943.44C753.064 944.2 753.218 944.867 753.524 945.44C753.844 946.013 754.258 946.453 754.764 946.76C755.284 947.053 755.831 947.2 756.404 947.2C756.991 947.2 757.538 947.053 758.044 946.76C758.551 946.467 758.958 946.04 759.264 945.48C759.584 944.907 759.744 944.24 759.744 943.48ZM772.514 935.1V949H770.234V935.1H772.514ZM781.888 942.06L786.208 949H783.648L780.508 943.96L777.568 949H775.028L779.348 942.06L775.008 935.1H777.568L780.728 940.18L783.688 935.1H786.228L781.888 942.06ZM798.431 939.24C798.431 939.947 798.264 940.613 797.931 941.24C797.598 941.867 797.064 942.38 796.331 942.78C795.598 943.167 794.658 943.36 793.511 943.36H790.991V949H788.711V935.1H793.511C794.578 935.1 795.478 935.287 796.211 935.66C796.958 936.02 797.511 936.513 797.871 937.14C798.244 937.767 798.431 938.467 798.431 939.24ZM793.511 941.5C794.378 941.5 795.024 941.307 795.451 940.92C795.878 940.52 796.091 939.96 796.091 939.24C796.091 937.72 795.231 936.96 793.511 936.96H790.991V941.5H793.511ZM802.885 936.94V941.02H807.685V942.88H802.885V947.14H808.285V949H800.605V935.08H808.285V936.94H802.885Z" fill="#2F4159"/>
<path d="M657.825 121.108H572.163V253.174" stroke="#2F4159" stroke-width="0.75" stroke-miterlimit="10"/>
<path d="M563.757 338.138H148.334V302.567" stroke="#2F4159" stroke-width="0.75" stroke-miterlimit="10"/>
<path d="M555.872 407.538H73.0796V694.721" stroke="#2F4159" stroke-width="0.75" stroke-miterlimit="10"/>
<path d="M378.583 611.882V943.041H528.694" stroke="#2F4159" stroke-width="0.75" stroke-miterlimit="10"/>
</svg>
