<svg width="328" height="240" viewBox="0 0 328 240" fill="none" xmlns="http://www.w3.org/2000/svg">
<g clip-path="url(#clip0_2709_5914)">
<mask id="mask0_2709_5914" style="mask-type:luminance" maskUnits="userSpaceOnUse" x="27" y="39" width="301" height="195">
<path d="M328 39.0957H27.1405V233.261H328V39.0957Z" fill="white"/>
</mask>
<g mask="url(#mask0_2709_5914)">
<path d="M71.5781 119.035L78.9065 116.813L78.5089 114.37L74.0777 113.076L70.6881 114.771L71.5781 119.035Z" fill="#3D3D3A"/>
<path d="M282.729 214.935L336.768 86.9336V89.976L282.729 220.284V214.935Z" fill="#4D4D4C"/>
<path d="M44.3506 151.892L282.729 214.934L336.768 86.9333L232.879 71.8945L44.3506 151.892Z" fill="#3D3D3A"/>
<path d="M321.492 71.6113C321.492 71.6113 321.151 75.831 318.368 77.3838L329.606 77.3964L330.01 76.8031V76.1876L337.787 76.0835L295.256 159.918L248.113 155.838L265.14 124.81L321.492 71.6145V71.6113Z" fill="#686A6C"/>
<path d="M64.1202 104.61C64.1202 104.61 224.19 71.6828 242.06 64.5059L321.489 71.6102L265.91 140.495L64.1171 104.61H64.1202Z" fill="#707275"/>
<path d="M330.01 75.6686L274.555 156.818L266.74 156.142L325.942 75.5645L330.01 75.6686Z" fill="#707275"/>
<path d="M274.555 158.121V156.817L266.741 156.142V157.445L248.113 155.833L252.194 149.782C264.156 148.937 265.914 140.494 265.914 140.494L64.1203 104.609L64.2623 111.928L57.2969 112.774V115.87L71.5813 119.036C72.0042 114.955 75.3118 114.813 75.3118 114.813C79.7713 114.731 79.5346 119.667 79.5346 119.667V125.717L246.289 161.917C250.932 172.26 290.758 171.31 290.758 171.31L295.262 159.91L274.564 158.118L274.555 158.121Z" fill="#58585C"/>
<path d="M330.01 75.6699V76.7998L274.555 158.122V156.819L330.01 75.6699Z" fill="#5E5E63"/>
<path d="M264.014 117.803L263.487 121.076L76.4194 89.5559L73.8977 89.1299L74.0776 86.1758L264.014 117.803Z" fill="#A29593"/>
<path d="M328.287 69.8178L327.883 72.1564C290.313 123.026 263.483 121.076 263.483 121.076L264.013 117.803L74.0775 86.1758C74.0775 86.1758 144.12 92.3711 241.214 62.8145L328.287 69.8146V69.8178Z" fill="#825C50"/>
<path d="M328.287 69.8184V71.611C328.151 71.7972 328.019 71.9771 327.883 72.157C290.313 123.027 263.483 121.076 263.483 121.076L264.014 117.803C289.578 120.268 323.01 77.6959 328.287 69.8184Z" fill="#B2A38B"/>
<path d="M262.114 101.7C262.872 101.7 263.487 101.522 263.487 101.302C263.487 101.082 262.872 100.904 262.114 100.904C261.356 100.904 260.741 101.082 260.741 101.302C260.741 101.522 261.356 101.7 262.114 101.7Z" fill="#997468"/>
<path d="M224.963 101.7C225.722 101.7 226.336 101.522 226.336 101.302C226.336 101.082 225.722 100.904 224.963 100.904C224.205 100.904 223.59 101.082 223.59 101.302C223.59 101.522 224.205 101.7 224.963 101.7Z" fill="#997468"/>
<path d="M173.248 88.1165C173.86 88.1165 174.356 87.9724 174.356 87.7946C174.356 87.6168 173.86 87.4727 173.248 87.4727C172.636 87.4727 172.14 87.6168 172.14 87.7946C172.14 87.9724 172.636 88.1165 173.248 88.1165Z" fill="#997468"/>
<path d="M213.39 91.4056C214.002 91.4056 214.498 91.2614 214.498 91.0836C214.498 90.9059 214.002 90.7617 213.39 90.7617C212.778 90.7617 212.282 90.9059 212.282 91.0836C212.282 91.2614 212.778 91.4056 213.39 91.4056Z" fill="#997468"/>
<path d="M200.075 86.095C200.53 86.095 200.898 85.9876 200.898 85.8551C200.898 85.7226 200.53 85.6152 200.075 85.6152C199.62 85.6152 199.251 85.7226 199.251 85.8551C199.251 85.9876 199.62 86.095 200.075 86.095Z" fill="#997468"/>
<path d="M135.555 91.3235C136.01 91.3235 136.379 91.2161 136.379 91.0836C136.379 90.9511 136.01 90.8438 135.555 90.8438C135.1 90.8438 134.731 90.9511 134.731 91.0836C134.731 91.2161 135.1 91.3235 135.555 91.3235Z" fill="#997468"/>
<path d="M304.102 77.3919C304.714 77.3919 305.21 77.2478 305.21 77.07C305.21 76.8922 304.714 76.748 304.102 76.748C303.49 76.748 302.995 76.8922 302.995 77.07C302.995 77.2478 303.49 77.3919 304.102 77.3919Z" fill="#997468"/>
<path d="M191.667 97.8489C192.279 97.8489 192.775 97.7048 192.775 97.527C192.775 97.3492 192.279 97.2051 191.667 97.2051C191.055 97.2051 190.559 97.3492 190.559 97.527C190.559 97.7048 191.055 97.8489 191.667 97.8489Z" fill="#997468"/>
<path d="M282.167 103.949C282.779 103.949 283.275 103.804 283.275 103.627C283.275 103.449 282.779 103.305 282.167 103.305C281.556 103.305 281.06 103.449 281.06 103.627C281.06 103.804 281.556 103.949 282.167 103.949Z" fill="#997468"/>
<g opacity="0.7">
<path d="M282.167 99.1209L201.425 87.7243L138.629 78.8589C138.629 78.8589 108.659 73.6514 107.248 66.0547L159.749 73.7208L159.759 73.7271L275.836 90.6816C275.836 90.6816 275.552 96.5929 282.167 99.1241V99.1209Z" fill="#E8E8E7"/>
</g>
<g opacity="0.7">
<path d="M326.637 61.4092C296.663 101.517 282.167 99.1212 282.167 99.1212C275.552 96.59 275.836 90.6787 275.836 90.6787L159.759 73.7242L159.75 73.7179L240.656 55.6367L326.637 61.406V61.4092Z" fill="#DBDDDC"/>
</g>
<g opacity="0.7">
<path d="M289.344 86.9327L126.816 63.382C126.816 63.382 112.885 60.2859 111.755 53.3867L157.872 60.2133L157.894 60.2196L273.867 77.3919C273.867 77.3919 277.964 83.9723 286.207 86.2952C287.195 86.5792 288.24 86.797 289.348 86.9327H289.344Z" fill="#E6E7E8"/>
<path d="M330.187 47.9336L289.344 86.9333L286.204 86.2958C277.96 83.9729 273.864 77.3925 273.864 77.3925L157.891 60.2202L157.868 60.2139L243.19 42.3379L330.184 47.9336H330.187Z" fill="white"/>
</g>
<path d="M337.787 76.0801L336.768 79.2772L290.752 171.312L295.253 159.915L337.787 76.0801Z" fill="#5E5E63"/>
<path d="M282.729 214.935L44.3506 151.893V157.242L282.729 220.285V214.935Z" fill="#4D4D4C"/>
</g>
<path d="M217.875 63.2281V16.1426H235.24" stroke="#2F4159" stroke-width="0.75" stroke-miterlimit="10"/>
<path d="M151.405 41.2493C151.582 41.2493 151.727 41.1052 151.727 40.9274C151.727 40.7496 151.582 40.6055 151.405 40.6055C151.227 40.6055 151.083 40.7496 151.083 40.9274C151.083 41.1052 151.227 41.2493 151.405 41.2493Z" fill="#2F4159" stroke="#2F4159" stroke-miterlimit="10"/>
<path d="M131.688 71.5931C131.866 71.5931 132.01 71.4489 132.01 71.2711C132.01 71.0933 131.866 70.9492 131.688 70.9492C131.511 70.9492 131.367 71.0933 131.367 71.2711C131.367 71.4489 131.511 71.5931 131.688 71.5931Z" fill="#2F4159" stroke="#2F4159" stroke-miterlimit="10"/>
<path d="M129.754 91.1477C129.932 91.1477 130.076 91.0036 130.076 90.8258C130.076 90.648 129.932 90.5039 129.754 90.5039C129.576 90.5039 129.432 90.648 129.432 90.8258C129.432 91.0036 129.576 91.1477 129.754 91.1477Z" fill="#2F4159" stroke="#2F4159" stroke-miterlimit="10"/>
<path d="M127.939 107.12C128.117 107.12 128.261 106.976 128.261 106.798C128.261 106.621 128.117 106.477 127.939 106.477C127.761 106.477 127.617 106.621 127.617 106.798C127.617 106.976 127.761 107.12 127.939 107.12Z" fill="#2F4159" stroke="#2F4159" stroke-miterlimit="10"/>
<path d="M34.1404 82.9407C34.3182 82.9407 34.4623 82.7966 34.4623 82.6188C34.4623 82.441 34.3182 82.2969 34.1404 82.2969C33.9626 82.2969 33.8185 82.441 33.8185 82.6188C33.8185 82.7966 33.9626 82.9407 34.1404 82.9407Z" fill="#2F4159" stroke="#2F4159" stroke-miterlimit="10"/>
<path d="M16.82 173.218C16.9978 173.218 17.1419 173.074 17.1419 172.896C17.1419 172.718 16.9978 172.574 16.82 172.574C16.6422 172.574 16.498 172.718 16.498 172.896C16.498 173.074 16.6422 173.218 16.82 173.218Z" fill="#2F4159" stroke="#2F4159" stroke-miterlimit="10"/>
<path d="M121.684 230.372C121.862 230.372 122.006 230.228 122.006 230.05C122.006 229.873 121.862 229.729 121.684 229.729C121.506 229.729 121.362 229.873 121.362 230.05C121.362 230.228 121.506 230.372 121.684 230.372Z" fill="#2F4159" stroke="#2F4159" stroke-miterlimit="10"/>
<path d="M235.24 16.4661C235.417 16.4661 235.562 16.322 235.562 16.1442C235.562 15.9664 235.417 15.8223 235.24 15.8223C235.062 15.8223 234.918 15.9664 234.918 16.1442C234.918 16.322 235.062 16.4661 235.24 16.4661Z" fill="#2F4159" stroke="#2F4159" stroke-miterlimit="10"/>
<path d="M217.875 63.5501C218.053 63.5501 218.197 63.406 218.197 63.2282C218.197 63.0504 218.053 62.9062 217.875 62.9062C217.697 62.9062 217.553 63.0504 217.553 63.2282C217.553 63.406 217.697 63.5501 217.875 63.5501Z" fill="#2F4159" stroke="#2F4159" stroke-miterlimit="10"/>
<path d="M238.444 7.812C238.444 6.996 238.632 6.264 239.008 5.616C239.392 4.968 239.908 4.464 240.556 4.104C241.212 3.736 241.928 3.552 242.704 3.552C243.592 3.552 244.38 3.772 245.068 4.212C245.764 4.644 246.268 5.26 246.58 6.06H244.936C244.72 5.62 244.42 5.292 244.036 5.076C243.652 4.86 243.208 4.752 242.704 4.752C242.152 4.752 241.66 4.876 241.228 5.124C240.796 5.372 240.456 5.728 240.208 6.192C239.968 6.656 239.848 7.196 239.848 7.812C239.848 8.428 239.968 8.968 240.208 9.432C240.456 9.896 240.796 10.256 241.228 10.512C241.66 10.76 242.152 10.884 242.704 10.884C243.208 10.884 243.652 10.776 244.036 10.56C244.42 10.344 244.72 10.016 244.936 9.576H246.58C246.268 10.376 245.764 10.992 245.068 11.424C244.38 11.856 243.592 12.072 242.704 12.072C241.92 12.072 241.204 11.892 240.556 11.532C239.908 11.164 239.392 10.656 239.008 10.008C238.632 9.36 238.444 8.628 238.444 7.812ZM247.725 8.664C247.725 8 247.861 7.412 248.133 6.9C248.413 6.388 248.789 5.992 249.261 5.712C249.741 5.424 250.269 5.28 250.845 5.28C251.365 5.28 251.817 5.384 252.201 5.592C252.593 5.792 252.905 6.044 253.137 6.348V5.388H254.517V12H253.137V11.016C252.905 11.328 252.589 11.588 252.189 11.796C251.789 12.004 251.333 12.108 250.821 12.108C250.253 12.108 249.733 11.964 249.261 11.676C248.789 11.38 248.413 10.972 248.133 10.452C247.861 9.924 247.725 9.328 247.725 8.664ZM253.137 8.688C253.137 8.232 253.041 7.836 252.849 7.5C252.665 7.164 252.421 6.908 252.117 6.732C251.813 6.556 251.485 6.468 251.133 6.468C250.781 6.468 250.453 6.556 250.149 6.732C249.845 6.9 249.597 7.152 249.405 7.488C249.221 7.816 249.129 8.208 249.129 8.664C249.129 9.12 249.221 9.52 249.405 9.864C249.597 10.208 249.845 10.472 250.149 10.656C250.461 10.832 250.789 10.92 251.133 10.92C251.485 10.92 251.813 10.832 252.117 10.656C252.421 10.48 252.665 10.224 252.849 9.888C253.041 9.544 253.137 9.144 253.137 8.688ZM257.682 6.36C257.914 6.056 258.23 5.8 258.63 5.592C259.03 5.384 259.482 5.28 259.986 5.28C260.562 5.28 261.086 5.424 261.558 5.712C262.038 5.992 262.414 6.388 262.686 6.9C262.958 7.412 263.094 8 263.094 8.664C263.094 9.328 262.958 9.924 262.686 10.452C262.414 10.972 262.038 11.38 261.558 11.676C261.086 11.964 260.562 12.108 259.986 12.108C259.482 12.108 259.034 12.008 258.642 11.808C258.25 11.6 257.93 11.344 257.682 11.04V15.144H256.314V5.388H257.682V6.36ZM261.702 8.664C261.702 8.208 261.606 7.816 261.414 7.488C261.23 7.152 260.982 6.9 260.67 6.732C260.366 6.556 260.038 6.468 259.686 6.468C259.342 6.468 259.014 6.556 258.702 6.732C258.398 6.908 258.15 7.164 257.958 7.5C257.774 7.836 257.682 8.232 257.682 8.688C257.682 9.144 257.774 9.544 257.958 9.888C258.15 10.224 258.398 10.48 258.702 10.656C259.014 10.832 259.342 10.92 259.686 10.92C260.038 10.92 260.366 10.832 260.67 10.656C260.982 10.472 261.23 10.208 261.414 9.864C261.606 9.52 261.702 9.12 261.702 8.664ZM263.991 8.664C263.991 8 264.127 7.412 264.399 6.9C264.679 6.388 265.055 5.992 265.527 5.712C266.007 5.424 266.535 5.28 267.111 5.28C267.631 5.28 268.083 5.384 268.467 5.592C268.859 5.792 269.171 6.044 269.403 6.348V5.388H270.783V12H269.403V11.016C269.171 11.328 268.855 11.588 268.455 11.796C268.055 12.004 267.599 12.108 267.087 12.108C266.519 12.108 265.999 11.964 265.527 11.676C265.055 11.38 264.679 10.972 264.399 10.452C264.127 9.924 263.991 9.328 263.991 8.664ZM269.403 8.688C269.403 8.232 269.307 7.836 269.115 7.5C268.931 7.164 268.687 6.908 268.383 6.732C268.079 6.556 267.751 6.468 267.399 6.468C267.047 6.468 266.719 6.556 266.415 6.732C266.111 6.9 265.863 7.152 265.671 7.488C265.487 7.816 265.395 8.208 265.395 8.664C265.395 9.12 265.487 9.52 265.671 9.864C265.863 10.208 266.111 10.472 266.415 10.656C266.727 10.832 267.055 10.92 267.399 10.92C267.751 10.92 268.079 10.832 268.383 10.656C268.687 10.48 268.931 10.224 269.115 9.888C269.307 9.544 269.403 9.144 269.403 8.688ZM275.241 8.664C275.241 8 275.377 7.412 275.649 6.9C275.929 6.388 276.305 5.992 276.777 5.712C277.257 5.424 277.789 5.28 278.373 5.28C278.805 5.28 279.229 5.376 279.645 5.568C280.069 5.752 280.405 6 280.653 6.312V3.12H282.033V12H280.653V11.004C280.429 11.324 280.117 11.588 279.717 11.796C279.325 12.004 278.873 12.108 278.361 12.108C277.785 12.108 277.257 11.964 276.777 11.676C276.305 11.38 275.929 10.972 275.649 10.452C275.377 9.924 275.241 9.328 275.241 8.664ZM280.653 8.688C280.653 8.232 280.557 7.836 280.365 7.5C280.181 7.164 279.937 6.908 279.633 6.732C279.329 6.556 279.001 6.468 278.649 6.468C278.297 6.468 277.969 6.556 277.665 6.732C277.361 6.9 277.113 7.152 276.921 7.488C276.737 7.816 276.645 8.208 276.645 8.664C276.645 9.12 276.737 9.52 276.921 9.864C277.113 10.208 277.361 10.472 277.665 10.656C277.977 10.832 278.305 10.92 278.649 10.92C279.001 10.92 279.329 10.832 279.633 10.656C279.937 10.48 280.181 10.224 280.365 9.888C280.557 9.544 280.653 9.144 280.653 8.688ZM289.89 8.532C289.89 8.78 289.874 9.004 289.842 9.204H284.79C284.83 9.732 285.026 10.156 285.378 10.476C285.73 10.796 286.162 10.956 286.674 10.956C287.41 10.956 287.93 10.648 288.234 10.032H289.71C289.51 10.64 289.146 11.14 288.618 11.532C288.098 11.916 287.45 12.108 286.674 12.108C286.042 12.108 285.474 11.968 284.97 11.688C284.474 11.4 284.082 11 283.794 10.488C283.514 9.968 283.374 9.368 283.374 8.688C283.374 8.008 283.51 7.412 283.782 6.9C284.062 6.38 284.45 5.98 284.946 5.7C285.45 5.42 286.026 5.28 286.674 5.28C287.298 5.28 287.854 5.416 288.342 5.688C288.83 5.96 289.21 6.344 289.482 6.84C289.754 7.328 289.89 7.892 289.89 8.532ZM288.462 8.1C288.454 7.596 288.274 7.192 287.922 6.888C287.57 6.584 287.134 6.432 286.614 6.432C286.142 6.432 285.738 6.584 285.402 6.888C285.066 7.184 284.866 7.588 284.802 8.1H288.462ZM240.268 22.36C240.5 22.056 240.816 21.8 241.216 21.592C241.616 21.384 242.068 21.28 242.572 21.28C243.148 21.28 243.672 21.424 244.144 21.712C244.624 21.992 245 22.388 245.272 22.9C245.544 23.412 245.68 24 245.68 24.664C245.68 25.328 245.544 25.924 245.272 26.452C245 26.972 244.624 27.38 244.144 27.676C243.672 27.964 243.148 28.108 242.572 28.108C242.068 28.108 241.62 28.008 241.228 27.808C240.836 27.6 240.516 27.344 240.268 27.04V31.144H238.9V21.388H240.268V22.36ZM244.288 24.664C244.288 24.208 244.192 23.816 244 23.488C243.816 23.152 243.568 22.9 243.256 22.732C242.952 22.556 242.624 22.468 242.272 22.468C241.928 22.468 241.6 22.556 241.288 22.732C240.984 22.908 240.736 23.164 240.544 23.5C240.36 23.836 240.268 24.232 240.268 24.688C240.268 25.144 240.36 25.544 240.544 25.888C240.736 26.224 240.984 26.48 241.288 26.656C241.6 26.832 241.928 26.92 242.272 26.92C242.624 26.92 242.952 26.832 243.256 26.656C243.568 26.472 243.816 26.208 244 25.864C244.192 25.52 244.288 25.12 244.288 24.664ZM248.401 22.348C248.601 22.012 248.865 21.752 249.193 21.568C249.529 21.376 249.925 21.28 250.381 21.28V22.696H250.033C249.497 22.696 249.089 22.832 248.809 23.104C248.537 23.376 248.401 23.848 248.401 24.52V28H247.033V21.388H248.401V22.348ZM254.506 28.108C253.882 28.108 253.318 27.968 252.814 27.688C252.31 27.4 251.914 27 251.626 26.488C251.338 25.968 251.194 25.368 251.194 24.688C251.194 24.016 251.342 23.42 251.638 22.9C251.934 22.38 252.338 21.98 252.85 21.7C253.362 21.42 253.934 21.28 254.566 21.28C255.198 21.28 255.77 21.42 256.282 21.7C256.794 21.98 257.198 22.38 257.494 22.9C257.79 23.42 257.938 24.016 257.938 24.688C257.938 25.36 257.786 25.956 257.482 26.476C257.178 26.996 256.762 27.4 256.234 27.688C255.714 27.968 255.138 28.108 254.506 28.108ZM254.506 26.92C254.858 26.92 255.186 26.836 255.49 26.668C255.802 26.5 256.054 26.248 256.246 25.912C256.438 25.576 256.534 25.168 256.534 24.688C256.534 24.208 256.442 23.804 256.258 23.476C256.074 23.14 255.83 22.888 255.526 22.72C255.222 22.552 254.894 22.468 254.542 22.468C254.19 22.468 253.862 22.552 253.558 22.72C253.262 22.888 253.026 23.14 252.85 23.476C252.674 23.804 252.586 24.208 252.586 24.688C252.586 25.4 252.766 25.952 253.126 26.344C253.494 26.728 253.954 26.92 254.506 26.92ZM260.887 22.504V26.164C260.887 26.412 260.943 26.592 261.055 26.704C261.175 26.808 261.375 26.86 261.655 26.86H262.495V28H261.415C260.799 28 260.327 27.856 259.999 27.568C259.671 27.28 259.507 26.812 259.507 26.164V22.504H258.727V21.388H259.507V19.744H260.887V21.388H262.495V22.504H260.887ZM269.815 24.532C269.815 24.78 269.799 25.004 269.767 25.204H264.715C264.755 25.732 264.951 26.156 265.303 26.476C265.655 26.796 266.087 26.956 266.599 26.956C267.335 26.956 267.855 26.648 268.159 26.032H269.635C269.435 26.64 269.071 27.14 268.543 27.532C268.023 27.916 267.375 28.108 266.599 28.108C265.967 28.108 265.399 27.968 264.895 27.688C264.399 27.4 264.007 27 263.719 26.488C263.439 25.968 263.299 25.368 263.299 24.688C263.299 24.008 263.435 23.412 263.707 22.9C263.987 22.38 264.375 21.98 264.871 21.7C265.375 21.42 265.951 21.28 266.599 21.28C267.223 21.28 267.779 21.416 268.267 21.688C268.755 21.96 269.135 22.344 269.407 22.84C269.679 23.328 269.815 23.892 269.815 24.532ZM268.387 24.1C268.379 23.596 268.199 23.192 267.847 22.888C267.495 22.584 267.059 22.432 266.539 22.432C266.067 22.432 265.663 22.584 265.327 22.888C264.991 23.184 264.791 23.588 264.727 24.1H268.387ZM270.706 24.688C270.706 24.008 270.842 23.412 271.114 22.9C271.394 22.38 271.778 21.98 272.266 21.7C272.754 21.42 273.314 21.28 273.946 21.28C274.746 21.28 275.406 21.472 275.926 21.856C276.454 22.232 276.81 22.772 276.994 23.476H275.518C275.398 23.148 275.206 22.892 274.942 22.708C274.678 22.524 274.346 22.432 273.946 22.432C273.386 22.432 272.938 22.632 272.602 23.032C272.274 23.424 272.11 23.976 272.11 24.688C272.11 25.4 272.274 25.956 272.602 26.356C272.938 26.756 273.386 26.956 273.946 26.956C274.738 26.956 275.262 26.608 275.518 25.912H276.994C276.802 26.584 276.442 27.12 275.914 27.52C275.386 27.912 274.73 28.108 273.946 28.108C273.314 28.108 272.754 27.968 272.266 27.688C271.778 27.4 271.394 27 271.114 26.488C270.842 25.968 270.706 25.368 270.706 24.688ZM277.901 24.688C277.901 24.008 278.037 23.412 278.309 22.9C278.589 22.38 278.973 21.98 279.461 21.7C279.949 21.42 280.509 21.28 281.141 21.28C281.941 21.28 282.601 21.472 283.121 21.856C283.649 22.232 284.005 22.772 284.189 23.476H282.713C282.593 23.148 282.401 22.892 282.137 22.708C281.873 22.524 281.541 22.432 281.141 22.432C280.581 22.432 280.133 22.632 279.797 23.032C279.469 23.424 279.305 23.976 279.305 24.688C279.305 25.4 279.469 25.956 279.797 26.356C280.133 26.756 280.581 26.956 281.141 26.956C281.933 26.956 282.457 26.608 282.713 25.912H284.189C283.997 26.584 283.637 27.12 283.109 27.52C282.581 27.912 281.925 28.108 281.141 28.108C280.509 28.108 279.949 27.968 279.461 27.688C278.973 27.4 278.589 27 278.309 26.488C278.037 25.968 277.901 25.368 277.901 24.688ZM286.248 20.512C286 20.512 285.792 20.428 285.624 20.26C285.456 20.092 285.372 19.884 285.372 19.636C285.372 19.388 285.456 19.18 285.624 19.012C285.792 18.844 286 18.76 286.248 18.76C286.488 18.76 286.692 18.844 286.86 19.012C287.028 19.18 287.112 19.388 287.112 19.636C287.112 19.884 287.028 20.092 286.86 20.26C286.692 20.428 286.488 20.512 286.248 20.512ZM286.92 21.388V28H285.552V21.388H286.92ZM291.584 28.108C290.96 28.108 290.396 27.968 289.892 27.688C289.388 27.4 288.992 27 288.704 26.488C288.416 25.968 288.272 25.368 288.272 24.688C288.272 24.016 288.42 23.42 288.716 22.9C289.012 22.38 289.416 21.98 289.928 21.7C290.44 21.42 291.012 21.28 291.644 21.28C292.276 21.28 292.848 21.42 293.36 21.7C293.872 21.98 294.276 22.38 294.572 22.9C294.868 23.42 295.016 24.016 295.016 24.688C295.016 25.36 294.864 25.956 294.56 26.476C294.256 26.996 293.84 27.4 293.312 27.688C292.792 27.968 292.216 28.108 291.584 28.108ZM291.584 26.92C291.936 26.92 292.264 26.836 292.568 26.668C292.88 26.5 293.132 26.248 293.324 25.912C293.516 25.576 293.612 25.168 293.612 24.688C293.612 24.208 293.52 23.804 293.336 23.476C293.152 23.14 292.908 22.888 292.604 22.72C292.3 22.552 291.972 22.468 291.62 22.468C291.268 22.468 290.94 22.552 290.636 22.72C290.34 22.888 290.104 23.14 289.928 23.476C289.752 23.804 289.664 24.208 289.664 24.688C289.664 25.4 289.844 25.952 290.204 26.344C290.572 26.728 291.032 26.92 291.584 26.92ZM292.88 19.504L290.228 20.812V19.804L292.88 18.34V19.504ZM299.705 21.28C300.225 21.28 300.689 21.388 301.097 21.604C301.513 21.82 301.837 22.14 302.069 22.564C302.301 22.988 302.417 23.5 302.417 24.1V28H301.061V24.304C301.061 23.712 300.913 23.26 300.617 22.948C300.321 22.628 299.917 22.468 299.405 22.468C298.893 22.468 298.485 22.628 298.181 22.948C297.885 23.26 297.737 23.712 297.737 24.304V28H296.369V21.388H297.737V22.144C297.961 21.872 298.245 21.66 298.589 21.508C298.941 21.356 299.313 21.28 299.705 21.28ZM308.635 19.66V24.976C308.635 25.608 308.799 26.084 309.127 26.404C309.463 26.724 309.927 26.884 310.519 26.884C311.119 26.884 311.583 26.724 311.911 26.404C312.247 26.084 312.415 25.608 312.415 24.976V19.66H313.783V24.952C313.783 25.632 313.635 26.208 313.339 26.68C313.043 27.152 312.647 27.504 312.151 27.736C311.655 27.968 311.107 28.084 310.507 28.084C309.907 28.084 309.359 27.968 308.863 27.736C308.375 27.504 307.987 27.152 307.699 26.68C307.411 26.208 307.267 25.632 307.267 24.952V19.66H308.635ZM322.752 19.66L319.62 28H318.036L314.892 19.66H316.356L318.828 26.596L321.312 19.66H322.752Z" fill="#2F4159"/>
<path d="M154.444 32.812C154.444 31.996 154.632 31.264 155.008 30.616C155.392 29.968 155.908 29.464 156.556 29.104C157.212 28.736 157.928 28.552 158.704 28.552C159.592 28.552 160.38 28.772 161.068 29.212C161.764 29.644 162.268 30.26 162.58 31.06H160.936C160.72 30.62 160.42 30.292 160.036 30.076C159.652 29.86 159.208 29.752 158.704 29.752C158.152 29.752 157.66 29.876 157.228 30.124C156.796 30.372 156.456 30.728 156.208 31.192C155.968 31.656 155.848 32.196 155.848 32.812C155.848 33.428 155.968 33.968 156.208 34.432C156.456 34.896 156.796 35.256 157.228 35.512C157.66 35.76 158.152 35.884 158.704 35.884C159.208 35.884 159.652 35.776 160.036 35.56C160.42 35.344 160.72 35.016 160.936 34.576H162.58C162.268 35.376 161.764 35.992 161.068 36.424C160.38 36.856 159.592 37.072 158.704 37.072C157.92 37.072 157.204 36.892 156.556 36.532C155.908 36.164 155.392 35.656 155.008 35.008C154.632 34.36 154.444 33.628 154.444 32.812ZM163.725 33.664C163.725 33 163.861 32.412 164.133 31.9C164.413 31.388 164.789 30.992 165.261 30.712C165.741 30.424 166.269 30.28 166.845 30.28C167.365 30.28 167.817 30.384 168.201 30.592C168.593 30.792 168.905 31.044 169.137 31.348V30.388H170.517V37H169.137V36.016C168.905 36.328 168.589 36.588 168.189 36.796C167.789 37.004 167.333 37.108 166.821 37.108C166.253 37.108 165.733 36.964 165.261 36.676C164.789 36.38 164.413 35.972 164.133 35.452C163.861 34.924 163.725 34.328 163.725 33.664ZM169.137 33.688C169.137 33.232 169.041 32.836 168.849 32.5C168.665 32.164 168.421 31.908 168.117 31.732C167.813 31.556 167.485 31.468 167.133 31.468C166.781 31.468 166.453 31.556 166.149 31.732C165.845 31.9 165.597 32.152 165.405 32.488C165.221 32.816 165.129 33.208 165.129 33.664C165.129 34.12 165.221 34.52 165.405 34.864C165.597 35.208 165.845 35.472 166.149 35.656C166.461 35.832 166.789 35.92 167.133 35.92C167.485 35.92 167.813 35.832 168.117 35.656C168.421 35.48 168.665 35.224 168.849 34.888C169.041 34.544 169.137 34.144 169.137 33.688ZM173.682 31.36C173.914 31.056 174.23 30.8 174.63 30.592C175.03 30.384 175.482 30.28 175.986 30.28C176.562 30.28 177.086 30.424 177.558 30.712C178.038 30.992 178.414 31.388 178.686 31.9C178.958 32.412 179.094 33 179.094 33.664C179.094 34.328 178.958 34.924 178.686 35.452C178.414 35.972 178.038 36.38 177.558 36.676C177.086 36.964 176.562 37.108 175.986 37.108C175.482 37.108 175.034 37.008 174.642 36.808C174.25 36.6 173.93 36.344 173.682 36.04V40.144H172.314V30.388H173.682V31.36ZM177.702 33.664C177.702 33.208 177.606 32.816 177.414 32.488C177.23 32.152 176.982 31.9 176.67 31.732C176.366 31.556 176.038 31.468 175.686 31.468C175.342 31.468 175.014 31.556 174.702 31.732C174.398 31.908 174.15 32.164 173.958 32.5C173.774 32.836 173.682 33.232 173.682 33.688C173.682 34.144 173.774 34.544 173.958 34.888C174.15 35.224 174.398 35.48 174.702 35.656C175.014 35.832 175.342 35.92 175.686 35.92C176.038 35.92 176.366 35.832 176.67 35.656C176.982 35.472 177.23 35.208 177.414 34.864C177.606 34.52 177.702 34.12 177.702 33.664ZM179.991 33.664C179.991 33 180.127 32.412 180.399 31.9C180.679 31.388 181.055 30.992 181.527 30.712C182.007 30.424 182.535 30.28 183.111 30.28C183.631 30.28 184.083 30.384 184.467 30.592C184.859 30.792 185.171 31.044 185.403 31.348V30.388H186.783V37H185.403V36.016C185.171 36.328 184.855 36.588 184.455 36.796C184.055 37.004 183.599 37.108 183.087 37.108C182.519 37.108 181.999 36.964 181.527 36.676C181.055 36.38 180.679 35.972 180.399 35.452C180.127 34.924 179.991 34.328 179.991 33.664ZM185.403 33.688C185.403 33.232 185.307 32.836 185.115 32.5C184.931 32.164 184.687 31.908 184.383 31.732C184.079 31.556 183.751 31.468 183.399 31.468C183.047 31.468 182.719 31.556 182.415 31.732C182.111 31.9 181.863 32.152 181.671 32.488C181.487 32.816 181.395 33.208 181.395 33.664C181.395 34.12 181.487 34.52 181.671 34.864C181.863 35.208 182.111 35.472 182.415 35.656C182.727 35.832 183.055 35.92 183.399 35.92C183.751 35.92 184.079 35.832 184.383 35.656C184.687 35.48 184.931 35.224 185.115 34.888C185.307 34.544 185.403 34.144 185.403 33.688ZM191.241 33.664C191.241 33 191.377 32.412 191.649 31.9C191.929 31.388 192.305 30.992 192.777 30.712C193.257 30.424 193.789 30.28 194.373 30.28C194.805 30.28 195.229 30.376 195.645 30.568C196.069 30.752 196.405 31 196.653 31.312V28.12H198.033V37H196.653V36.004C196.429 36.324 196.117 36.588 195.717 36.796C195.325 37.004 194.873 37.108 194.361 37.108C193.785 37.108 193.257 36.964 192.777 36.676C192.305 36.38 191.929 35.972 191.649 35.452C191.377 34.924 191.241 34.328 191.241 33.664ZM196.653 33.688C196.653 33.232 196.557 32.836 196.365 32.5C196.181 32.164 195.937 31.908 195.633 31.732C195.329 31.556 195.001 31.468 194.649 31.468C194.297 31.468 193.969 31.556 193.665 31.732C193.361 31.9 193.113 32.152 192.921 32.488C192.737 32.816 192.645 33.208 192.645 33.664C192.645 34.12 192.737 34.52 192.921 34.864C193.113 35.208 193.361 35.472 193.665 35.656C193.977 35.832 194.305 35.92 194.649 35.92C195.001 35.92 195.329 35.832 195.633 35.656C195.937 35.48 196.181 35.224 196.365 34.888C196.557 34.544 196.653 34.144 196.653 33.688ZM205.89 33.532C205.89 33.78 205.874 34.004 205.842 34.204H200.79C200.83 34.732 201.026 35.156 201.378 35.476C201.73 35.796 202.162 35.956 202.674 35.956C203.41 35.956 203.93 35.648 204.234 35.032H205.71C205.51 35.64 205.146 36.14 204.618 36.532C204.098 36.916 203.45 37.108 202.674 37.108C202.042 37.108 201.474 36.968 200.97 36.688C200.474 36.4 200.082 36 199.794 35.488C199.514 34.968 199.374 34.368 199.374 33.688C199.374 33.008 199.51 32.412 199.782 31.9C200.062 31.38 200.45 30.98 200.946 30.7C201.45 30.42 202.026 30.28 202.674 30.28C203.298 30.28 203.854 30.416 204.342 30.688C204.83 30.96 205.21 31.344 205.482 31.84C205.754 32.328 205.89 32.892 205.89 33.532ZM204.462 33.1C204.454 32.596 204.274 32.192 203.922 31.888C203.57 31.584 203.134 31.432 202.614 31.432C202.142 31.432 201.738 31.584 201.402 31.888C201.066 32.184 200.866 32.588 200.802 33.1H204.462ZM154.444 49.664C154.444 49 154.58 48.412 154.852 47.9C155.132 47.388 155.508 46.992 155.98 46.712C156.46 46.424 156.992 46.28 157.576 46.28C158.008 46.28 158.432 46.376 158.848 46.568C159.272 46.752 159.608 47 159.856 47.312V44.12H161.236V53H159.856V52.004C159.632 52.324 159.32 52.588 158.92 52.796C158.528 53.004 158.076 53.108 157.564 53.108C156.988 53.108 156.46 52.964 155.98 52.676C155.508 52.38 155.132 51.972 154.852 51.452C154.58 50.924 154.444 50.328 154.444 49.664ZM159.856 49.688C159.856 49.232 159.76 48.836 159.568 48.5C159.384 48.164 159.14 47.908 158.836 47.732C158.532 47.556 158.204 47.468 157.852 47.468C157.5 47.468 157.172 47.556 156.868 47.732C156.564 47.9 156.316 48.152 156.124 48.488C155.94 48.816 155.848 49.208 155.848 49.664C155.848 50.12 155.94 50.52 156.124 50.864C156.316 51.208 156.564 51.472 156.868 51.656C157.18 51.832 157.508 51.92 157.852 51.92C158.204 51.92 158.532 51.832 158.836 51.656C159.14 51.48 159.384 51.224 159.568 50.888C159.76 50.544 159.856 50.144 159.856 49.688ZM169.093 49.532C169.093 49.78 169.077 50.004 169.045 50.204H163.993C164.033 50.732 164.229 51.156 164.581 51.476C164.933 51.796 165.365 51.956 165.877 51.956C166.613 51.956 167.133 51.648 167.437 51.032H168.913C168.713 51.64 168.349 52.14 167.821 52.532C167.301 52.916 166.653 53.108 165.877 53.108C165.245 53.108 164.677 52.968 164.173 52.688C163.677 52.4 163.285 52 162.997 51.488C162.717 50.968 162.577 50.368 162.577 49.688C162.577 49.008 162.713 48.412 162.985 47.9C163.265 47.38 163.653 46.98 164.149 46.7C164.653 46.42 165.229 46.28 165.877 46.28C166.501 46.28 167.057 46.416 167.545 46.688C168.033 46.96 168.413 47.344 168.685 47.84C168.957 48.328 169.093 48.892 169.093 49.532ZM167.665 49.1C167.657 48.596 167.477 48.192 167.125 47.888C166.773 47.584 166.337 47.432 165.817 47.432C165.345 47.432 164.941 47.584 164.605 47.888C164.269 48.184 164.069 48.588 164.005 49.1H167.665ZM172.839 53.108C172.319 53.108 171.851 53.016 171.435 52.832C171.027 52.64 170.703 52.384 170.463 52.064C170.223 51.736 170.095 51.372 170.079 50.972H171.495C171.519 51.252 171.651 51.488 171.891 51.68C172.139 51.864 172.447 51.956 172.815 51.956C173.199 51.956 173.495 51.884 173.703 51.74C173.919 51.588 174.027 51.396 174.027 51.164C174.027 50.916 173.907 50.732 173.667 50.612C173.435 50.492 173.063 50.36 172.551 50.216C172.055 50.08 171.651 49.948 171.339 49.82C171.027 49.692 170.755 49.496 170.523 49.232C170.299 48.968 170.187 48.62 170.187 48.188C170.187 47.836 170.291 47.516 170.499 47.228C170.707 46.932 171.003 46.7 171.387 46.532C171.779 46.364 172.227 46.28 172.731 46.28C173.483 46.28 174.087 46.472 174.543 46.856C175.007 47.232 175.255 47.748 175.287 48.404H173.919C173.895 48.108 173.775 47.872 173.559 47.696C173.343 47.52 173.051 47.432 172.683 47.432C172.323 47.432 172.047 47.5 171.855 47.636C171.663 47.772 171.567 47.952 171.567 48.176C171.567 48.352 171.631 48.5 171.759 48.62C171.887 48.74 172.043 48.836 172.227 48.908C172.411 48.972 172.683 49.056 173.043 49.16C173.523 49.288 173.915 49.42 174.219 49.556C174.531 49.684 174.799 49.876 175.023 50.132C175.247 50.388 175.363 50.728 175.371 51.152C175.371 51.528 175.267 51.864 175.059 52.16C174.851 52.456 174.555 52.688 174.171 52.856C173.795 53.024 173.351 53.108 172.839 53.108ZM179.513 46.28C180.025 46.28 180.477 46.384 180.869 46.592C181.269 46.792 181.581 47.044 181.805 47.348V46.388H183.185V53.108C183.185 53.716 183.057 54.256 182.801 54.728C182.545 55.208 182.173 55.584 181.685 55.856C181.205 56.128 180.629 56.264 179.957 56.264C179.061 56.264 178.317 56.052 177.725 55.628C177.133 55.212 176.797 54.644 176.717 53.924H178.073C178.177 54.268 178.397 54.544 178.733 54.752C179.077 54.968 179.485 55.076 179.957 55.076C180.509 55.076 180.953 54.908 181.289 54.572C181.633 54.236 181.805 53.748 181.805 53.108V52.004C181.573 52.316 181.257 52.58 180.857 52.796C180.465 53.004 180.017 53.108 179.513 53.108C178.937 53.108 178.409 52.964 177.929 52.676C177.457 52.38 177.081 51.972 176.801 51.452C176.529 50.924 176.393 50.328 176.393 49.664C176.393 49 176.529 48.412 176.801 47.9C177.081 47.388 177.457 46.992 177.929 46.712C178.409 46.424 178.937 46.28 179.513 46.28ZM181.805 49.688C181.805 49.232 181.709 48.836 181.517 48.5C181.333 48.164 181.089 47.908 180.785 47.732C180.481 47.556 180.153 47.468 179.801 47.468C179.449 47.468 179.121 47.556 178.817 47.732C178.513 47.9 178.265 48.152 178.073 48.488C177.889 48.816 177.797 49.208 177.797 49.664C177.797 50.12 177.889 50.52 178.073 50.864C178.265 51.208 178.513 51.472 178.817 51.656C179.129 51.832 179.457 51.92 179.801 51.92C180.153 51.92 180.481 51.832 180.785 51.656C181.089 51.48 181.333 51.224 181.517 50.888C181.709 50.544 181.805 50.144 181.805 49.688ZM184.526 49.664C184.526 49 184.662 48.412 184.934 47.9C185.214 47.388 185.59 46.992 186.062 46.712C186.542 46.424 187.07 46.28 187.646 46.28C188.166 46.28 188.618 46.384 189.002 46.592C189.394 46.792 189.706 47.044 189.938 47.348V46.388H191.318V53H189.938V52.016C189.706 52.328 189.39 52.588 188.99 52.796C188.59 53.004 188.134 53.108 187.622 53.108C187.054 53.108 186.534 52.964 186.062 52.676C185.59 52.38 185.214 51.972 184.934 51.452C184.662 50.924 184.526 50.328 184.526 49.664ZM189.938 49.688C189.938 49.232 189.842 48.836 189.65 48.5C189.466 48.164 189.222 47.908 188.918 47.732C188.614 47.556 188.286 47.468 187.934 47.468C187.582 47.468 187.254 47.556 186.95 47.732C186.646 47.9 186.398 48.152 186.206 48.488C186.022 48.816 185.93 49.208 185.93 49.664C185.93 50.12 186.022 50.52 186.206 50.864C186.398 51.208 186.646 51.472 186.95 51.656C187.262 51.832 187.59 51.92 187.934 51.92C188.286 51.92 188.614 51.832 188.918 51.656C189.222 51.48 189.466 51.224 189.65 50.888C189.842 50.544 189.938 50.144 189.938 49.688ZM195.515 53.108C194.995 53.108 194.527 53.016 194.111 52.832C193.703 52.64 193.379 52.384 193.139 52.064C192.899 51.736 192.771 51.372 192.755 50.972H194.171C194.195 51.252 194.327 51.488 194.567 51.68C194.815 51.864 195.123 51.956 195.491 51.956C195.875 51.956 196.171 51.884 196.379 51.74C196.595 51.588 196.703 51.396 196.703 51.164C196.703 50.916 196.583 50.732 196.343 50.612C196.111 50.492 195.739 50.36 195.227 50.216C194.731 50.08 194.327 49.948 194.015 49.82C193.703 49.692 193.431 49.496 193.199 49.232C192.975 48.968 192.863 48.62 192.863 48.188C192.863 47.836 192.967 47.516 193.175 47.228C193.383 46.932 193.679 46.7 194.063 46.532C194.455 46.364 194.903 46.28 195.407 46.28C196.159 46.28 196.763 46.472 197.219 46.856C197.683 47.232 197.931 47.748 197.963 48.404H196.595C196.571 48.108 196.451 47.872 196.235 47.696C196.019 47.52 195.727 47.432 195.359 47.432C194.999 47.432 194.723 47.5 194.531 47.636C194.339 47.772 194.243 47.952 194.243 48.176C194.243 48.352 194.307 48.5 194.435 48.62C194.563 48.74 194.719 48.836 194.903 48.908C195.087 48.972 195.359 49.056 195.719 49.16C196.199 49.288 196.591 49.42 196.895 49.556C197.207 49.684 197.475 49.876 197.699 50.132C197.923 50.388 198.039 50.728 198.047 51.152C198.047 51.528 197.943 51.864 197.735 52.16C197.527 52.456 197.231 52.688 196.847 52.856C196.471 53.024 196.027 53.108 195.515 53.108ZM201.121 47.504V51.164C201.121 51.412 201.177 51.592 201.289 51.704C201.409 51.808 201.609 51.86 201.889 51.86H202.729V53H201.649C201.033 53 200.561 52.856 200.233 52.568C199.905 52.28 199.741 51.812 199.741 51.164V47.504H198.961V46.388H199.741V44.744H201.121V46.388H202.729V47.504H201.121ZM210.05 49.532C210.05 49.78 210.034 50.004 210.002 50.204H204.95C204.99 50.732 205.186 51.156 205.538 51.476C205.89 51.796 206.322 51.956 206.834 51.956C207.57 51.956 208.09 51.648 208.394 51.032H209.87C209.67 51.64 209.306 52.14 208.778 52.532C208.258 52.916 207.61 53.108 206.834 53.108C206.202 53.108 205.634 52.968 205.13 52.688C204.634 52.4 204.242 52 203.954 51.488C203.674 50.968 203.534 50.368 203.534 49.688C203.534 49.008 203.67 48.412 203.942 47.9C204.222 47.38 204.61 46.98 205.106 46.7C205.61 46.42 206.186 46.28 206.834 46.28C207.458 46.28 208.014 46.416 208.502 46.688C208.99 46.96 209.37 47.344 209.642 47.84C209.914 48.328 210.05 48.892 210.05 49.532ZM208.622 49.1C208.614 48.596 208.434 48.192 208.082 47.888C207.73 47.584 207.294 47.432 206.774 47.432C206.302 47.432 205.898 47.584 205.562 47.888C205.226 48.184 205.026 48.588 204.962 49.1H208.622Z" fill="#2F4159"/>
<path d="M6.732 71.144C6.732 71.568 6.632 71.968 6.432 72.344C6.232 72.72 5.912 73.028 5.472 73.268C5.032 73.5 4.468 73.616 3.78 73.616H2.268V77H0.9V68.66H3.78C4.42 68.66 4.96 68.772 5.4 68.996C5.848 69.212 6.18 69.508 6.396 69.884C6.62 70.26 6.732 70.68 6.732 71.144ZM3.78 72.5C4.3 72.5 4.688 72.384 4.944 72.152C5.2 71.912 5.328 71.576 5.328 71.144C5.328 70.232 4.812 69.776 3.78 69.776H2.268V72.5H3.78ZM14.0967 73.532C14.0967 73.78 14.0807 74.004 14.0487 74.204H8.99672C9.03672 74.732 9.23272 75.156 9.58472 75.476C9.93672 75.796 10.3687 75.956 10.8807 75.956C11.6167 75.956 12.1367 75.648 12.4407 75.032H13.9167C13.7167 75.64 13.3527 76.14 12.8247 76.532C12.3047 76.916 11.6567 77.108 10.8807 77.108C10.2487 77.108 9.68072 76.968 9.17672 76.688C8.68072 76.4 8.28872 76 8.00072 75.488C7.72072 74.968 7.58072 74.368 7.58072 73.688C7.58072 73.008 7.71672 72.412 7.98872 71.9C8.26872 71.38 8.65672 70.98 9.15272 70.7C9.65672 70.42 10.2327 70.28 10.8807 70.28C11.5047 70.28 12.0607 70.416 12.5487 70.688C13.0367 70.96 13.4167 71.344 13.6887 71.84C13.9607 72.328 14.0967 72.892 14.0967 73.532ZM12.6687 73.1C12.6607 72.596 12.4807 72.192 12.1287 71.888C11.7767 71.584 11.3407 71.432 10.8207 71.432C10.3487 71.432 9.94472 71.584 9.60872 71.888C9.27272 72.184 9.07272 72.588 9.00872 73.1H12.6687ZM16.811 68.12V77H15.443V68.12H16.811ZM19.975 70.388V77H18.607V70.388H19.975ZM20.527 68.612L17.875 69.92V68.912L20.527 67.448V68.612ZM21.3151 73.688C21.3151 73.008 21.4511 72.412 21.7231 71.9C22.0031 71.38 22.3871 70.98 22.8751 70.7C23.3631 70.42 23.9231 70.28 24.5551 70.28C25.3551 70.28 26.0151 70.472 26.5351 70.856C27.0631 71.232 27.4191 71.772 27.6031 72.476H26.1271C26.0071 72.148 25.8151 71.892 25.5511 71.708C25.2871 71.524 24.9551 71.432 24.5551 71.432C23.9951 71.432 23.5471 71.632 23.2111 72.032C22.8831 72.424 22.7191 72.976 22.7191 73.688C22.7191 74.4 22.8831 74.956 23.2111 75.356C23.5471 75.756 23.9951 75.956 24.5551 75.956C25.3471 75.956 25.8711 75.608 26.1271 74.912H27.6031C27.4111 75.584 27.0511 76.12 26.5231 76.52C25.9951 76.912 25.3391 77.108 24.5551 77.108C23.9231 77.108 23.3631 76.968 22.8751 76.688C22.3871 76.4 22.0031 76 21.7231 75.488C21.4511 74.968 21.3151 74.368 21.3151 73.688ZM34.9544 70.388V77H33.5864V76.22C33.3704 76.492 33.0864 76.708 32.7344 76.868C32.3904 77.02 32.0224 77.096 31.6304 77.096C31.1104 77.096 30.6424 76.988 30.2264 76.772C29.8184 76.556 29.4944 76.236 29.2544 75.812C29.0224 75.388 28.9064 74.876 28.9064 74.276V70.388H30.2624V74.072C30.2624 74.664 30.4104 75.12 30.7064 75.44C31.0024 75.752 31.4064 75.908 31.9184 75.908C32.4304 75.908 32.8344 75.752 33.1304 75.44C33.4344 75.12 33.5864 74.664 33.5864 74.072V70.388H34.9544ZM38.1274 68.12V77H36.7594V68.12H38.1274ZM39.4674 73.664C39.4674 73 39.6034 72.412 39.8754 71.9C40.1554 71.388 40.5314 70.992 41.0034 70.712C41.4834 70.424 42.0114 70.28 42.5874 70.28C43.1074 70.28 43.5594 70.384 43.9434 70.592C44.3354 70.792 44.6474 71.044 44.8794 71.348V70.388H46.2594V77H44.8794V76.016C44.6474 76.328 44.3314 76.588 43.9314 76.796C43.5314 77.004 43.0754 77.108 42.5634 77.108C41.9954 77.108 41.4754 76.964 41.0034 76.676C40.5314 76.38 40.1554 75.972 39.8754 75.452C39.6034 74.924 39.4674 74.328 39.4674 73.664ZM44.8794 73.688C44.8794 73.232 44.7834 72.836 44.5914 72.5C44.4074 72.164 44.1634 71.908 43.8594 71.732C43.5554 71.556 43.2274 71.468 42.8754 71.468C42.5234 71.468 42.1954 71.556 41.8914 71.732C41.5874 71.9 41.3394 72.152 41.1474 72.488C40.9634 72.816 40.8714 73.208 40.8714 73.664C40.8714 74.12 40.9634 74.52 41.1474 74.864C41.3394 75.208 41.5874 75.472 41.8914 75.656C42.2034 75.832 42.5314 75.92 42.8754 75.92C43.2274 75.92 43.5554 75.832 43.8594 75.656C44.1634 75.48 44.4074 75.224 44.5914 74.888C44.7834 74.544 44.8794 74.144 44.8794 73.688ZM50.7174 73.664C50.7174 73 50.8534 72.412 51.1254 71.9C51.4054 71.388 51.7814 70.992 52.2534 70.712C52.7334 70.424 53.2654 70.28 53.8494 70.28C54.2814 70.28 54.7054 70.376 55.1214 70.568C55.5454 70.752 55.8814 71 56.1294 71.312V68.12H57.5094V77H56.1294V76.004C55.9054 76.324 55.5934 76.588 55.1934 76.796C54.8014 77.004 54.3494 77.108 53.8374 77.108C53.2614 77.108 52.7334 76.964 52.2534 76.676C51.7814 76.38 51.4054 75.972 51.1254 75.452C50.8534 74.924 50.7174 74.328 50.7174 73.664ZM56.1294 73.688C56.1294 73.232 56.0334 72.836 55.8414 72.5C55.6574 72.164 55.4134 71.908 55.1094 71.732C54.8054 71.556 54.4774 71.468 54.1254 71.468C53.7734 71.468 53.4454 71.556 53.1414 71.732C52.8374 71.9 52.5894 72.152 52.3974 72.488C52.2134 72.816 52.1214 73.208 52.1214 73.664C52.1214 74.12 52.2134 74.52 52.3974 74.864C52.5894 75.208 52.8374 75.472 53.1414 75.656C53.4534 75.832 53.7814 75.92 54.1254 75.92C54.4774 75.92 54.8054 75.832 55.1094 75.656C55.4134 75.48 55.6574 75.224 55.8414 74.888C56.0334 74.544 56.1294 74.144 56.1294 73.688ZM65.3663 73.532C65.3663 73.78 65.3503 74.004 65.3183 74.204H60.2663C60.3063 74.732 60.5023 75.156 60.8543 75.476C61.2063 75.796 61.6383 75.956 62.1503 75.956C62.8863 75.956 63.4063 75.648 63.7103 75.032H65.1862C64.9863 75.64 64.6223 76.14 64.0943 76.532C63.5743 76.916 62.9263 77.108 62.1503 77.108C61.5183 77.108 60.9503 76.968 60.4463 76.688C59.9503 76.4 59.5583 76 59.2703 75.488C58.9903 74.968 58.8503 74.368 58.8503 73.688C58.8503 73.008 58.9863 72.412 59.2583 71.9C59.5383 71.38 59.9263 70.98 60.4223 70.7C60.9263 70.42 61.5023 70.28 62.1503 70.28C62.7743 70.28 63.3303 70.416 63.8183 70.688C64.3063 70.96 64.6863 71.344 64.9583 71.84C65.2303 72.328 65.3663 72.892 65.3663 73.532ZM63.9383 73.1C63.9303 72.596 63.7503 72.192 63.3983 71.888C63.0463 71.584 62.6103 71.432 62.0903 71.432C61.6183 71.432 61.2143 71.584 60.8783 71.888C60.5423 72.184 60.3423 72.588 60.2783 73.1H63.9383ZM69.3737 73.688C69.3737 73.008 69.5097 72.412 69.7817 71.9C70.0617 71.38 70.4457 70.98 70.9337 70.7C71.4217 70.42 71.9817 70.28 72.6137 70.28C73.4137 70.28 74.0737 70.472 74.5937 70.856C75.1217 71.232 75.4777 71.772 75.6617 72.476H74.1857C74.0657 72.148 73.8737 71.892 73.6097 71.708C73.3457 71.524 73.0137 71.432 72.6137 71.432C72.0537 71.432 71.6057 71.632 71.2697 72.032C70.9417 72.424 70.7777 72.976 70.7777 73.688C70.7777 74.4 70.9417 74.956 71.2697 75.356C71.6057 75.756 72.0537 75.956 72.6137 75.956C73.4057 75.956 73.9297 75.608 74.1857 74.912H75.6617C75.4697 75.584 75.1097 76.12 74.5817 76.52C74.0537 76.912 73.3977 77.108 72.6137 77.108C71.9817 77.108 71.4217 76.968 70.9337 76.688C70.4457 76.4 70.0617 76 69.7817 75.488C69.5097 74.968 69.3737 74.368 69.3737 73.688ZM79.893 77.108C79.269 77.108 78.705 76.968 78.201 76.688C77.697 76.4 77.301 76 77.013 75.488C76.725 74.968 76.581 74.368 76.581 73.688C76.581 73.016 76.729 72.42 77.025 71.9C77.321 71.38 77.725 70.98 78.237 70.7C78.749 70.42 79.321 70.28 79.953 70.28C80.585 70.28 81.157 70.42 81.669 70.7C82.181 70.98 82.585 71.38 82.881 71.9C83.177 72.42 83.325 73.016 83.325 73.688C83.325 74.36 83.173 74.956 82.869 75.476C82.565 75.996 82.149 76.4 81.621 76.688C81.101 76.968 80.525 77.108 79.893 77.108ZM79.893 75.92C80.245 75.92 80.573 75.836 80.877 75.668C81.189 75.5 81.441 75.248 81.633 74.912C81.825 74.576 81.921 74.168 81.921 73.688C81.921 73.208 81.829 72.804 81.645 72.476C81.461 72.14 81.217 71.888 80.913 71.72C80.609 71.552 80.281 71.468 79.929 71.468C79.577 71.468 79.249 71.552 78.945 71.72C78.649 71.888 78.413 72.14 78.237 72.476C78.061 72.804 77.973 73.208 77.973 73.688C77.973 74.4 78.153 74.952 78.513 75.344C78.881 75.728 79.341 75.92 79.893 75.92ZM86.0453 68.12V77H84.6773V68.12H86.0453ZM90.7094 77.108C90.0854 77.108 89.5214 76.968 89.0174 76.688C88.5134 76.4 88.1174 76 87.8294 75.488C87.5414 74.968 87.3974 74.368 87.3974 73.688C87.3974 73.016 87.5454 72.42 87.8414 71.9C88.1374 71.38 88.5414 70.98 89.0534 70.7C89.5654 70.42 90.1374 70.28 90.7694 70.28C91.4014 70.28 91.9734 70.42 92.4854 70.7C92.9974 70.98 93.4014 71.38 93.6974 71.9C93.9934 72.42 94.1414 73.016 94.1414 73.688C94.1414 74.36 93.9894 74.956 93.6854 75.476C93.3814 75.996 92.9654 76.4 92.4374 76.688C91.9174 76.968 91.3414 77.108 90.7094 77.108ZM90.7094 75.92C91.0614 75.92 91.3894 75.836 91.6934 75.668C92.0054 75.5 92.2574 75.248 92.4494 74.912C92.6414 74.576 92.7374 74.168 92.7374 73.688C92.7374 73.208 92.6454 72.804 92.4614 72.476C92.2774 72.14 92.0334 71.888 91.7294 71.72C91.4254 71.552 91.0974 71.468 90.7454 71.468C90.3934 71.468 90.0654 71.552 89.7614 71.72C89.4654 71.888 89.2294 72.14 89.0534 72.476C88.8774 72.804 88.7894 73.208 88.7894 73.688C88.7894 74.4 88.9694 74.952 89.3294 75.344C89.6974 75.728 90.1574 75.92 90.7094 75.92ZM96.8618 71.348C97.0618 71.012 97.3258 70.752 97.6538 70.568C97.9898 70.376 98.3858 70.28 98.8418 70.28V71.696H98.4938C97.9578 71.696 97.5498 71.832 97.2698 72.104C96.9978 72.376 96.8618 72.848 96.8618 73.52V77H95.4938V70.388H96.8618V71.348Z" fill="#2F4159"/>
<path d="M7.752 188H6.384L2.268 181.772V188H0.9V179.648H2.268L6.384 185.864V179.648H7.752V188ZM15.5364 181.388V188H14.1684V187.22C13.9524 187.492 13.6684 187.708 13.3164 187.868C12.9724 188.02 12.6044 188.096 12.2124 188.096C11.6924 188.096 11.2244 187.988 10.8084 187.772C10.4004 187.556 10.0764 187.236 9.83644 186.812C9.60444 186.388 9.48844 185.876 9.48844 185.276V181.388H10.8444V185.072C10.8444 185.664 10.9924 186.12 11.2884 186.44C11.5844 186.752 11.9884 186.908 12.5004 186.908C13.0124 186.908 13.4164 186.752 13.7124 186.44C14.0164 186.12 14.1684 185.664 14.1684 185.072V181.388H15.5364ZM13.7844 179.612L11.1324 180.92V179.912L13.7844 178.448V179.612ZM16.8854 184.688C16.8854 184.008 17.0214 183.412 17.2934 182.9C17.5734 182.38 17.9574 181.98 18.4454 181.7C18.9334 181.42 19.4934 181.28 20.1254 181.28C20.9254 181.28 21.5854 181.472 22.1054 181.856C22.6334 182.232 22.9894 182.772 23.1734 183.476H21.6974C21.5774 183.148 21.3854 182.892 21.1214 182.708C20.8574 182.524 20.5254 182.432 20.1254 182.432C19.5654 182.432 19.1174 182.632 18.7814 183.032C18.4534 183.424 18.2894 183.976 18.2894 184.688C18.2894 185.4 18.4534 185.956 18.7814 186.356C19.1174 186.756 19.5654 186.956 20.1254 186.956C20.9174 186.956 21.4414 186.608 21.6974 185.912H23.1734C22.9814 186.584 22.6214 187.12 22.0934 187.52C21.5654 187.912 20.9094 188.108 20.1254 188.108C19.4934 188.108 18.9334 187.968 18.4454 187.688C17.9574 187.4 17.5734 187 17.2934 186.488C17.0214 185.968 16.8854 185.368 16.8854 184.688ZM25.9047 179.12V188H24.5367V179.12H25.9047ZM33.7608 184.532C33.7608 184.78 33.7448 185.004 33.7128 185.204H28.6608C28.7008 185.732 28.8968 186.156 29.2488 186.476C29.6008 186.796 30.0328 186.956 30.5448 186.956C31.2808 186.956 31.8008 186.648 32.1048 186.032H33.5808C33.3808 186.64 33.0168 187.14 32.4888 187.532C31.9688 187.916 31.3208 188.108 30.5448 188.108C29.9128 188.108 29.3448 187.968 28.8408 187.688C28.3448 187.4 27.9528 187 27.6648 186.488C27.3848 185.968 27.2448 185.368 27.2448 184.688C27.2448 184.008 27.3808 183.412 27.6528 182.9C27.9328 182.38 28.3208 181.98 28.8168 181.7C29.3208 181.42 29.8968 181.28 30.5448 181.28C31.1688 181.28 31.7248 181.416 32.2128 181.688C32.7008 181.96 33.0808 182.344 33.3528 182.84C33.6248 183.328 33.7608 183.892 33.7608 184.532ZM32.3328 184.1C32.3248 183.596 32.1448 183.192 31.7928 182.888C31.4408 182.584 31.0048 182.432 30.4848 182.432C30.0128 182.432 29.6088 182.584 29.2728 182.888C28.9368 183.184 28.7368 183.588 28.6728 184.1H32.3328ZM37.975 188.108C37.351 188.108 36.787 187.968 36.283 187.688C35.779 187.4 35.383 187 35.095 186.488C34.807 185.968 34.663 185.368 34.663 184.688C34.663 184.016 34.811 183.42 35.107 182.9C35.403 182.38 35.807 181.98 36.319 181.7C36.831 181.42 37.403 181.28 38.035 181.28C38.667 181.28 39.239 181.42 39.751 181.7C40.263 181.98 40.667 182.38 40.963 182.9C41.259 183.42 41.407 184.016 41.407 184.688C41.407 185.36 41.255 185.956 40.951 186.476C40.647 186.996 40.231 187.4 39.703 187.688C39.183 187.968 38.607 188.108 37.975 188.108ZM37.975 186.92C38.327 186.92 38.655 186.836 38.959 186.668C39.271 186.5 39.523 186.248 39.715 185.912C39.907 185.576 40.003 185.168 40.003 184.688C40.003 184.208 39.911 183.804 39.727 183.476C39.543 183.14 39.299 182.888 38.995 182.72C38.691 182.552 38.363 182.468 38.011 182.468C37.659 182.468 37.331 182.552 37.027 182.72C36.731 182.888 36.495 183.14 36.319 183.476C36.143 183.804 36.055 184.208 36.055 184.688C36.055 185.4 36.235 185.952 36.595 186.344C36.963 186.728 37.423 186.92 37.975 186.92ZM45.4206 184.664C45.4206 184 45.5566 183.412 45.8286 182.9C46.1086 182.388 46.4846 181.992 46.9566 181.712C47.4366 181.424 47.9686 181.28 48.5526 181.28C48.9846 181.28 49.4086 181.376 49.8246 181.568C50.2486 181.752 50.5846 182 50.8326 182.312V179.12H52.2126V188H50.8326V187.004C50.6086 187.324 50.2966 187.588 49.8966 187.796C49.5046 188.004 49.0526 188.108 48.5406 188.108C47.9646 188.108 47.4366 187.964 46.9566 187.676C46.4846 187.38 46.1086 186.972 45.8286 186.452C45.5566 185.924 45.4206 185.328 45.4206 184.664ZM50.8326 184.688C50.8326 184.232 50.7366 183.836 50.5446 183.5C50.3606 183.164 50.1166 182.908 49.8126 182.732C49.5086 182.556 49.1806 182.468 48.8286 182.468C48.4766 182.468 48.1486 182.556 47.8446 182.732C47.5406 182.9 47.2926 183.152 47.1006 183.488C46.9166 183.816 46.8246 184.208 46.8246 184.664C46.8246 185.12 46.9166 185.52 47.1006 185.864C47.2926 186.208 47.5406 186.472 47.8446 186.656C48.1566 186.832 48.4846 186.92 48.8286 186.92C49.1806 186.92 49.5086 186.832 49.8126 186.656C50.1166 186.48 50.3606 186.224 50.5446 185.888C50.7366 185.544 50.8326 185.144 50.8326 184.688ZM60.0694 184.532C60.0694 184.78 60.0534 185.004 60.0214 185.204H54.9694C55.0094 185.732 55.2054 186.156 55.5574 186.476C55.9094 186.796 56.3414 186.956 56.8534 186.956C57.5894 186.956 58.1094 186.648 58.4134 186.032H59.8894C59.6894 186.64 59.3254 187.14 58.7974 187.532C58.2774 187.916 57.6294 188.108 56.8534 188.108C56.2214 188.108 55.6534 187.968 55.1494 187.688C54.6534 187.4 54.2614 187 53.9734 186.488C53.6934 185.968 53.5534 185.368 53.5534 184.688C53.5534 184.008 53.6894 183.412 53.9614 182.9C54.2414 182.38 54.6294 181.98 55.1254 181.7C55.6294 181.42 56.2054 181.28 56.8534 181.28C57.4774 181.28 58.0334 181.416 58.5214 181.688C59.0094 181.96 59.3894 182.344 59.6614 182.84C59.9334 183.328 60.0694 183.892 60.0694 184.532ZM58.6414 184.1C58.6334 183.596 58.4534 183.192 58.1014 182.888C57.7494 182.584 57.3134 182.432 56.7934 182.432C56.3214 182.432 55.9174 182.584 55.5814 182.888C55.2454 183.184 55.0454 183.588 54.9814 184.1H58.6414ZM3.648 204.084C3.088 204.084 2.584 203.988 2.136 203.796C1.688 203.596 1.336 203.316 1.08 202.956C0.824 202.596 0.696 202.176 0.696 201.696H2.16C2.192 202.056 2.332 202.352 2.58 202.584C2.836 202.816 3.192 202.932 3.648 202.932C4.12 202.932 4.488 202.82 4.752 202.596C5.016 202.364 5.148 202.068 5.148 201.708C5.148 201.428 5.064 201.2 4.896 201.024C4.736 200.848 4.532 200.712 4.284 200.616C4.044 200.52 3.708 200.416 3.276 200.304C2.732 200.16 2.288 200.016 1.944 199.872C1.608 199.72 1.32 199.488 1.08 199.176C0.84 198.864 0.72 198.448 0.72 197.928C0.72 197.448 0.84 197.028 1.08 196.668C1.32 196.308 1.656 196.032 2.088 195.84C2.52 195.648 3.02 195.552 3.588 195.552C4.396 195.552 5.056 195.756 5.568 196.164C6.088 196.564 6.376 197.116 6.432 197.82H4.92C4.896 197.516 4.752 197.256 4.488 197.04C4.224 196.824 3.876 196.716 3.444 196.716C3.052 196.716 2.732 196.816 2.484 197.016C2.236 197.216 2.112 197.504 2.112 197.88C2.112 198.136 2.188 198.348 2.34 198.516C2.5 198.676 2.7 198.804 2.94 198.9C3.18 198.996 3.508 199.1 3.924 199.212C4.476 199.364 4.924 199.516 5.268 199.668C5.62 199.82 5.916 200.056 6.156 200.376C6.404 200.688 6.528 201.108 6.528 201.636C6.528 202.06 6.412 202.46 6.18 202.836C5.956 203.212 5.624 203.516 5.184 203.748C4.752 203.972 4.24 204.084 3.648 204.084ZM13.9742 198.144C13.9742 198.568 13.8742 198.968 13.6742 199.344C13.4742 199.72 13.1542 200.028 12.7142 200.268C12.2742 200.5 11.7102 200.616 11.0222 200.616H9.51019V204H8.14219V195.66H11.0222C11.6622 195.66 12.2022 195.772 12.6422 195.996C13.0902 196.212 13.4222 196.508 13.6382 196.884C13.8622 197.26 13.9742 197.68 13.9742 198.144ZM11.0222 199.5C11.5422 199.5 11.9302 199.384 12.1862 199.152C12.4422 198.912 12.5702 198.576 12.5702 198.144C12.5702 197.232 12.0542 196.776 11.0222 196.776H9.51019V199.5H11.0222ZM14.8229 199.812C14.8229 198.996 15.0109 198.264 15.3869 197.616C15.7709 196.968 16.2869 196.464 16.9349 196.104C17.5909 195.736 18.3069 195.552 19.0829 195.552C19.9709 195.552 20.7589 195.772 21.4469 196.212C22.1429 196.644 22.6469 197.26 22.9589 198.06H21.3149C21.0989 197.62 20.7989 197.292 20.4149 197.076C20.0309 196.86 19.5869 196.752 19.0829 196.752C18.5309 196.752 18.0389 196.876 17.6069 197.124C17.1749 197.372 16.8349 197.728 16.5869 198.192C16.3469 198.656 16.2269 199.196 16.2269 199.812C16.2269 200.428 16.3469 200.968 16.5869 201.432C16.8349 201.896 17.1749 202.256 17.6069 202.512C18.0389 202.76 18.5309 202.884 19.0829 202.884C19.5869 202.884 20.0309 202.776 20.4149 202.56C20.7989 202.344 21.0989 202.016 21.3149 201.576H22.9589C22.6469 202.376 22.1429 202.992 21.4469 203.424C20.7589 203.856 19.9709 204.072 19.0829 204.072C18.2989 204.072 17.5829 203.892 16.9349 203.532C16.2869 203.164 15.7709 202.656 15.3869 202.008C15.0109 201.36 14.8229 200.628 14.8229 199.812Z" fill="#2F4159"/>
<path d="M131.587 234L129.667 230.664H128.623V234H127.255V225.66H130.135C130.775 225.66 131.315 225.772 131.755 225.996C132.203 226.22 132.535 226.52 132.751 226.896C132.975 227.272 133.087 227.692 133.087 228.156C133.087 228.7 132.927 229.196 132.607 229.644C132.295 230.084 131.811 230.384 131.155 230.544L133.219 234H131.587ZM128.623 229.572H130.135C130.647 229.572 131.031 229.444 131.287 229.188C131.551 228.932 131.683 228.588 131.683 228.156C131.683 227.724 131.555 227.388 131.299 227.148C131.043 226.9 130.655 226.776 130.135 226.776H128.623V229.572ZM140.897 230.532C140.897 230.78 140.881 231.004 140.849 231.204H135.797C135.837 231.732 136.033 232.156 136.385 232.476C136.737 232.796 137.169 232.956 137.681 232.956C138.417 232.956 138.937 232.648 139.241 232.032H140.717C140.517 232.64 140.153 233.14 139.625 233.532C139.105 233.916 138.457 234.108 137.681 234.108C137.049 234.108 136.481 233.968 135.977 233.688C135.481 233.4 135.089 233 134.801 232.488C134.521 231.968 134.381 231.368 134.381 230.688C134.381 230.008 134.517 229.412 134.789 228.9C135.069 228.38 135.457 227.98 135.953 227.7C136.457 227.42 137.033 227.28 137.681 227.28C138.305 227.28 138.861 227.416 139.349 227.688C139.837 227.96 140.217 228.344 140.489 228.84C140.761 229.328 140.897 229.892 140.897 230.532ZM139.469 230.1C139.461 229.596 139.281 229.192 138.929 228.888C138.577 228.584 138.141 228.432 137.621 228.432C137.149 228.432 136.745 228.584 136.409 228.888C136.073 229.184 135.873 229.588 135.809 230.1H139.469ZM144.643 234.108C144.123 234.108 143.655 234.016 143.239 233.832C142.831 233.64 142.507 233.384 142.267 233.064C142.027 232.736 141.899 232.372 141.883 231.972H143.299C143.323 232.252 143.455 232.488 143.695 232.68C143.943 232.864 144.251 232.956 144.619 232.956C145.003 232.956 145.299 232.884 145.507 232.74C145.723 232.588 145.831 232.396 145.831 232.164C145.831 231.916 145.711 231.732 145.471 231.612C145.239 231.492 144.867 231.36 144.355 231.216C143.859 231.08 143.455 230.948 143.143 230.82C142.831 230.692 142.559 230.496 142.327 230.232C142.103 229.968 141.991 229.62 141.991 229.188C141.991 228.836 142.095 228.516 142.303 228.228C142.511 227.932 142.807 227.7 143.191 227.532C143.583 227.364 144.031 227.28 144.535 227.28C145.287 227.28 145.891 227.472 146.347 227.856C146.811 228.232 147.059 228.748 147.091 229.404H145.723C145.699 229.108 145.579 228.872 145.363 228.696C145.147 228.52 144.855 228.432 144.487 228.432C144.127 228.432 143.851 228.5 143.659 228.636C143.467 228.772 143.371 228.952 143.371 229.176C143.371 229.352 143.435 229.5 143.563 229.62C143.691 229.74 143.847 229.836 144.031 229.908C144.215 229.972 144.487 230.056 144.847 230.16C145.327 230.288 145.719 230.42 146.023 230.556C146.335 230.684 146.603 230.876 146.827 231.132C147.051 231.388 147.167 231.728 147.175 232.152C147.175 232.528 147.071 232.864 146.863 233.16C146.655 233.456 146.359 233.688 145.975 233.856C145.599 234.024 145.155 234.108 144.643 234.108ZM150.021 228.36C150.253 228.056 150.569 227.8 150.969 227.592C151.369 227.384 151.821 227.28 152.325 227.28C152.901 227.28 153.425 227.424 153.897 227.712C154.377 227.992 154.753 228.388 155.025 228.9C155.297 229.412 155.433 230 155.433 230.664C155.433 231.328 155.297 231.924 155.025 232.452C154.753 232.972 154.377 233.38 153.897 233.676C153.425 233.964 152.901 234.108 152.325 234.108C151.821 234.108 151.373 234.008 150.981 233.808C150.589 233.6 150.269 233.344 150.021 233.04V237.144H148.653V227.388H150.021V228.36ZM154.041 230.664C154.041 230.208 153.945 229.816 153.753 229.488C153.569 229.152 153.321 228.9 153.009 228.732C152.705 228.556 152.377 228.468 152.025 228.468C151.681 228.468 151.353 228.556 151.041 228.732C150.737 228.908 150.489 229.164 150.297 229.5C150.113 229.836 150.021 230.232 150.021 230.688C150.021 231.144 150.113 231.544 150.297 231.888C150.489 232.224 150.737 232.48 151.041 232.656C151.353 232.832 151.681 232.92 152.025 232.92C152.377 232.92 152.705 232.832 153.009 232.656C153.321 232.472 153.569 232.208 153.753 231.864C153.945 231.52 154.041 231.12 154.041 230.664ZM156.33 230.664C156.33 230 156.466 229.412 156.738 228.9C157.018 228.388 157.394 227.992 157.866 227.712C158.346 227.424 158.874 227.28 159.45 227.28C159.97 227.28 160.422 227.384 160.806 227.592C161.198 227.792 161.51 228.044 161.742 228.348V227.388H163.122V234H161.742V233.016C161.51 233.328 161.194 233.588 160.794 233.796C160.394 234.004 159.938 234.108 159.426 234.108C158.858 234.108 158.338 233.964 157.866 233.676C157.394 233.38 157.018 232.972 156.738 232.452C156.466 231.924 156.33 231.328 156.33 230.664ZM161.742 230.688C161.742 230.232 161.646 229.836 161.454 229.5C161.27 229.164 161.026 228.908 160.722 228.732C160.418 228.556 160.09 228.468 159.738 228.468C159.386 228.468 159.058 228.556 158.754 228.732C158.45 228.9 158.202 229.152 158.01 229.488C157.826 229.816 157.734 230.208 157.734 230.664C157.734 231.12 157.826 231.52 158.01 231.864C158.202 232.208 158.45 232.472 158.754 232.656C159.066 232.832 159.394 232.92 159.738 232.92C160.09 232.92 160.418 232.832 160.722 232.656C161.026 232.48 161.27 232.224 161.454 231.888C161.646 231.544 161.742 231.144 161.742 230.688ZM166.287 225.12V234H164.919V225.12H166.287ZM167.627 230.664C167.627 230 167.763 229.412 168.035 228.9C168.315 228.388 168.691 227.992 169.163 227.712C169.643 227.424 170.175 227.28 170.759 227.28C171.191 227.28 171.615 227.376 172.031 227.568C172.455 227.752 172.791 228 173.039 228.312V225.12H174.419V234H173.039V233.004C172.815 233.324 172.503 233.588 172.103 233.796C171.711 234.004 171.259 234.108 170.747 234.108C170.171 234.108 169.643 233.964 169.163 233.676C168.691 233.38 168.315 232.972 168.035 232.452C167.763 231.924 167.627 231.328 167.627 230.664ZM173.039 230.688C173.039 230.232 172.943 229.836 172.751 229.5C172.567 229.164 172.323 228.908 172.019 228.732C171.715 228.556 171.387 228.468 171.035 228.468C170.683 228.468 170.355 228.556 170.051 228.732C169.747 228.9 169.499 229.152 169.307 229.488C169.123 229.816 169.031 230.208 169.031 230.664C169.031 231.12 169.123 231.52 169.307 231.864C169.499 232.208 169.747 232.472 170.051 232.656C170.363 232.832 170.691 232.92 171.035 232.92C171.387 232.92 171.715 232.832 172.019 232.656C172.323 232.48 172.567 232.224 172.751 231.888C172.943 231.544 173.039 231.144 173.039 230.688ZM179.084 234.108C178.46 234.108 177.896 233.968 177.392 233.688C176.888 233.4 176.492 233 176.204 232.488C175.916 231.968 175.772 231.368 175.772 230.688C175.772 230.016 175.92 229.42 176.216 228.9C176.512 228.38 176.916 227.98 177.428 227.7C177.94 227.42 178.512 227.28 179.144 227.28C179.776 227.28 180.348 227.42 180.86 227.7C181.372 227.98 181.776 228.38 182.072 228.9C182.368 229.42 182.516 230.016 182.516 230.688C182.516 231.36 182.364 231.956 182.06 232.476C181.756 232.996 181.34 233.4 180.812 233.688C180.292 233.968 179.716 234.108 179.084 234.108ZM179.084 232.92C179.436 232.92 179.764 232.836 180.068 232.668C180.38 232.5 180.632 232.248 180.824 231.912C181.016 231.576 181.112 231.168 181.112 230.688C181.112 230.208 181.02 229.804 180.836 229.476C180.652 229.14 180.408 228.888 180.104 228.72C179.8 228.552 179.472 228.468 179.12 228.468C178.768 228.468 178.44 228.552 178.136 228.72C177.84 228.888 177.604 229.14 177.428 229.476C177.252 229.804 177.164 230.208 177.164 230.688C177.164 231.4 177.344 231.952 177.704 232.344C178.072 232.728 178.532 232.92 179.084 232.92ZM186.529 230.664C186.529 230 186.665 229.412 186.937 228.9C187.217 228.388 187.593 227.992 188.065 227.712C188.545 227.424 189.077 227.28 189.661 227.28C190.093 227.28 190.517 227.376 190.933 227.568C191.357 227.752 191.693 228 191.941 228.312V225.12H193.321V234H191.941V233.004C191.717 233.324 191.405 233.588 191.005 233.796C190.613 234.004 190.161 234.108 189.649 234.108C189.073 234.108 188.545 233.964 188.065 233.676C187.593 233.38 187.217 232.972 186.937 232.452C186.665 231.924 186.529 231.328 186.529 230.664ZM191.941 230.688C191.941 230.232 191.845 229.836 191.653 229.5C191.469 229.164 191.225 228.908 190.921 228.732C190.617 228.556 190.289 228.468 189.937 228.468C189.585 228.468 189.257 228.556 188.953 228.732C188.649 228.9 188.401 229.152 188.209 229.488C188.025 229.816 187.933 230.208 187.933 230.664C187.933 231.12 188.025 231.52 188.209 231.864C188.401 232.208 188.649 232.472 188.953 232.656C189.265 232.832 189.593 232.92 189.937 232.92C190.289 232.92 190.617 232.832 190.921 232.656C191.225 232.48 191.469 232.224 191.653 231.888C191.845 231.544 191.941 231.144 191.941 230.688ZM201.178 230.532C201.178 230.78 201.162 231.004 201.13 231.204H196.078C196.118 231.732 196.314 232.156 196.666 232.476C197.018 232.796 197.45 232.956 197.962 232.956C198.698 232.956 199.218 232.648 199.522 232.032H200.998C200.798 232.64 200.434 233.14 199.906 233.532C199.386 233.916 198.738 234.108 197.962 234.108C197.33 234.108 196.762 233.968 196.258 233.688C195.762 233.4 195.37 233 195.082 232.488C194.802 231.968 194.662 231.368 194.662 230.688C194.662 230.008 194.798 229.412 195.07 228.9C195.35 228.38 195.738 227.98 196.234 227.7C196.738 227.42 197.314 227.28 197.962 227.28C198.586 227.28 199.142 227.416 199.63 227.688C200.118 227.96 200.498 228.344 200.77 228.84C201.042 229.328 201.178 229.892 201.178 230.532ZM199.75 230.1C199.742 229.596 199.562 229.192 199.21 228.888C198.858 228.584 198.422 228.432 197.902 228.432C197.43 228.432 197.026 228.584 196.69 228.888C196.354 229.184 196.154 229.588 196.09 230.1H199.75ZM211.701 230.532C211.701 230.78 211.685 231.004 211.653 231.204H206.601C206.641 231.732 206.837 232.156 207.189 232.476C207.541 232.796 207.973 232.956 208.485 232.956C209.221 232.956 209.741 232.648 210.045 232.032H211.521C211.321 232.64 210.957 233.14 210.429 233.532C209.909 233.916 209.261 234.108 208.485 234.108C207.853 234.108 207.285 233.968 206.781 233.688C206.285 233.4 205.893 233 205.605 232.488C205.325 231.968 205.185 231.368 205.185 230.688C205.185 230.008 205.321 229.412 205.593 228.9C205.873 228.38 206.261 227.98 206.757 227.7C207.261 227.42 207.837 227.28 208.485 227.28C209.109 227.28 209.665 227.416 210.153 227.688C210.641 227.96 211.021 228.344 211.293 228.84C211.565 229.328 211.701 229.892 211.701 230.532ZM210.273 230.1C210.265 229.596 210.085 229.192 209.733 228.888C209.381 228.584 208.945 228.432 208.425 228.432C207.953 228.432 207.549 228.584 207.213 228.888C206.877 229.184 206.677 229.588 206.613 230.1H210.273ZM215.448 234.108C214.928 234.108 214.46 234.016 214.044 233.832C213.636 233.64 213.312 233.384 213.072 233.064C212.832 232.736 212.704 232.372 212.688 231.972H214.104C214.128 232.252 214.26 232.488 214.5 232.68C214.748 232.864 215.056 232.956 215.424 232.956C215.808 232.956 216.104 232.884 216.312 232.74C216.528 232.588 216.636 232.396 216.636 232.164C216.636 231.916 216.516 231.732 216.276 231.612C216.044 231.492 215.672 231.36 215.16 231.216C214.664 231.08 214.26 230.948 213.948 230.82C213.636 230.692 213.364 230.496 213.132 230.232C212.908 229.968 212.796 229.62 212.796 229.188C212.796 228.836 212.9 228.516 213.108 228.228C213.316 227.932 213.612 227.7 213.996 227.532C214.388 227.364 214.836 227.28 215.34 227.28C216.092 227.28 216.696 227.472 217.152 227.856C217.616 228.232 217.864 228.748 217.896 229.404H216.528C216.504 229.108 216.384 228.872 216.168 228.696C215.952 228.52 215.66 228.432 215.292 228.432C214.932 228.432 214.656 228.5 214.464 228.636C214.272 228.772 214.176 228.952 214.176 229.176C214.176 229.352 214.24 229.5 214.368 229.62C214.496 229.74 214.652 229.836 214.836 229.908C215.02 229.972 215.292 230.056 215.652 230.16C216.132 230.288 216.524 230.42 216.828 230.556C217.14 230.684 217.408 230.876 217.632 231.132C217.856 231.388 217.972 231.728 217.98 232.152C217.98 232.528 217.876 232.864 217.668 233.16C217.46 233.456 217.164 233.688 216.78 233.856C216.404 234.024 215.96 234.108 215.448 234.108ZM220.826 228.36C221.058 228.056 221.374 227.8 221.774 227.592C222.174 227.384 222.626 227.28 223.13 227.28C223.706 227.28 224.23 227.424 224.702 227.712C225.182 227.992 225.558 228.388 225.83 228.9C226.102 229.412 226.238 230 226.238 230.664C226.238 231.328 226.102 231.924 225.83 232.452C225.558 232.972 225.182 233.38 224.702 233.676C224.23 233.964 223.706 234.108 223.13 234.108C222.626 234.108 222.178 234.008 221.786 233.808C221.394 233.6 221.074 233.344 220.826 233.04V237.144H219.458V227.388H220.826V228.36ZM224.846 230.664C224.846 230.208 224.75 229.816 224.558 229.488C224.374 229.152 224.126 228.9 223.814 228.732C223.51 228.556 223.182 228.468 222.83 228.468C222.486 228.468 222.158 228.556 221.846 228.732C221.542 228.908 221.294 229.164 221.102 229.5C220.918 229.836 220.826 230.232 220.826 230.688C220.826 231.144 220.918 231.544 221.102 231.888C221.294 232.224 221.542 232.48 221.846 232.656C222.158 232.832 222.486 232.92 222.83 232.92C223.182 232.92 223.51 232.832 223.814 232.656C224.126 232.472 224.374 232.208 224.558 231.864C224.75 231.52 224.846 231.12 224.846 230.664ZM233.579 227.388V234H232.211V233.22C231.995 233.492 231.711 233.708 231.359 233.868C231.015 234.02 230.647 234.096 230.255 234.096C229.735 234.096 229.267 233.988 228.851 233.772C228.443 233.556 228.119 233.236 227.879 232.812C227.647 232.388 227.531 231.876 227.531 231.276V227.388H228.887V231.072C228.887 231.664 229.035 232.12 229.331 232.44C229.627 232.752 230.031 232.908 230.543 232.908C231.055 232.908 231.459 232.752 231.755 232.44C232.059 232.12 232.211 231.664 232.211 231.072V227.388H233.579ZM243.388 227.28C243.908 227.28 244.372 227.388 244.78 227.604C245.196 227.82 245.52 228.14 245.752 228.564C245.992 228.988 246.112 229.5 246.112 230.1V234H244.756V230.304C244.756 229.712 244.608 229.26 244.312 228.948C244.016 228.628 243.612 228.468 243.1 228.468C242.588 228.468 242.18 228.628 241.876 228.948C241.58 229.26 241.432 229.712 241.432 230.304V234H240.076V230.304C240.076 229.712 239.928 229.26 239.632 228.948C239.336 228.628 238.932 228.468 238.42 228.468C237.908 228.468 237.5 228.628 237.196 228.948C236.9 229.26 236.752 229.712 236.752 230.304V234H235.384V227.388H236.752V228.144C236.976 227.872 237.26 227.66 237.604 227.508C237.948 227.356 238.316 227.28 238.708 227.28C239.236 227.28 239.708 227.392 240.124 227.616C240.54 227.84 240.86 228.164 241.084 228.588C241.284 228.188 241.596 227.872 242.02 227.64C242.444 227.4 242.9 227.28 243.388 227.28ZM247.396 230.664C247.396 230 247.532 229.412 247.804 228.9C248.084 228.388 248.46 227.992 248.932 227.712C249.412 227.424 249.94 227.28 250.516 227.28C251.036 227.28 251.488 227.384 251.872 227.592C252.264 227.792 252.576 228.044 252.808 228.348V227.388H254.188V234H252.808V233.016C252.576 233.328 252.26 233.588 251.86 233.796C251.46 234.004 251.004 234.108 250.492 234.108C249.924 234.108 249.404 233.964 248.932 233.676C248.46 233.38 248.084 232.972 247.804 232.452C247.532 231.924 247.396 231.328 247.396 230.664ZM252.808 230.688C252.808 230.232 252.712 229.836 252.52 229.5C252.336 229.164 252.092 228.908 251.788 228.732C251.484 228.556 251.156 228.468 250.804 228.468C250.452 228.468 250.124 228.556 249.82 228.732C249.516 228.9 249.268 229.152 249.076 229.488C248.892 229.816 248.8 230.208 248.8 230.664C248.8 231.12 248.892 231.52 249.076 231.864C249.268 232.208 249.516 232.472 249.82 232.656C250.132 232.832 250.46 232.92 250.804 232.92C251.156 232.92 251.484 232.832 251.788 232.656C252.092 232.48 252.336 232.224 252.52 231.888C252.712 231.544 252.808 231.144 252.808 230.688ZM260.47 225.66V234H259.102V225.66H260.47ZM266.094 229.836L268.686 234H267.15L265.266 230.976L263.502 234H261.978L264.57 229.836L261.966 225.66H263.502L265.398 228.708L267.174 225.66H268.698L266.094 229.836ZM276.02 228.144C276.02 228.568 275.92 228.968 275.72 229.344C275.52 229.72 275.2 230.028 274.76 230.268C274.32 230.5 273.756 230.616 273.068 230.616H271.556V234H270.188V225.66H273.068C273.708 225.66 274.248 225.772 274.688 225.996C275.136 226.212 275.468 226.508 275.684 226.884C275.908 227.26 276.02 227.68 276.02 228.144ZM273.068 229.5C273.588 229.5 273.976 229.384 274.232 229.152C274.488 228.912 274.616 228.576 274.616 228.144C274.616 227.232 274.1 226.776 273.068 226.776H271.556V229.5H273.068ZM278.693 226.764V229.212H281.573V230.328H278.693V232.884H281.933V234H277.325V225.648H281.933V226.764H278.693Z" fill="#2F4159"/>
<path d="M151.405 40.873H131.689V71.2692" stroke="#2F4159" stroke-width="0.75" stroke-miterlimit="10"/>
<path d="M129.754 90.8255H34.1406V82.6387" stroke="#2F4159" stroke-width="0.75" stroke-miterlimit="10"/>
<path d="M127.939 106.799H16.8199V172.897" stroke="#2F4159" stroke-width="0.75" stroke-miterlimit="10"/>
<path d="M87.1344 153.832V230.051H121.684" stroke="#2F4159" stroke-width="0.75" stroke-miterlimit="10"/>
</g>
<defs>
<clipPath id="clip0_2709_5914">
<rect width="328" height="240" fill="white"/>
</clipPath>
</defs>
</svg>
